<svg width="15" height="8" viewBox="0 0 15 8" fill="none" xmlns="http://www.w3.org/2000/svg">
<path d="M7.5 8C7.41997 8.00008 7.34071 7.98435 7.26678 7.95371C7.19284 7.92307 7.12569 7.87812 7.06918 7.82145L0.975459 1.72774C0.737347 1.48962 0.737347 1.10404 0.975459 0.866084C1.21357 0.628124 1.59915 0.627972 1.83711 0.866084L7.5 6.52898L13.1629 0.866084C13.401 0.627972 13.7866 0.627972 14.0245 0.866084C14.2625 1.1042 14.2627 1.48978 14.0245 1.72774L7.93083 7.82145C7.87432 7.87812 7.80716 7.92307 7.73323 7.95371C7.65929 7.98435 7.58003 8.00008 7.5 8Z" fill="#363533"/>
</svg>
