<svg width="35" height="35" viewBox="0 0 35 35" fill="none" xmlns="http://www.w3.org/2000/svg">
<path d="M18.0003 24.5495C15.8998 24.5495 14.191 22.8407 14.191 20.7404C14.191 20.4735 14.2208 20.2078 14.276 19.9482H8.30664V30.6343H27.694V19.9482H21.7247C21.7804 20.2086 21.8088 20.4741 21.8094 20.7404C21.8094 22.8407 20.1006 24.5495 18.0003 24.5495ZM10.4374 1.5H14.191V2.521H10.4374V1.5ZM27.694 5.89142H8.30657V16.578H15.7056L17.6843 12.1902C17.7118 12.1294 17.7562 12.0778 17.8123 12.0416C17.8683 12.0054 17.9336 11.9862 18.0003 11.9862C18.067 11.9862 18.1323 12.0054 18.1884 12.0416C18.2444 12.0778 18.2888 12.1294 18.3163 12.1902L20.295 16.578H27.694V5.89142ZM14.4932 19.255C14.5354 19.1533 14.5822 19.0534 14.6335 18.9559L15.3929 17.2712H7.77999C7.35024 17.2712 7.00069 17.621 7.00069 18.051V18.4759C7.00069 18.9055 7.35024 19.255 7.77999 19.255H14.4932Z" fill="#0EAE60"/>
<path d="M20.7399 19.251L18.0001 13.1757L16.2486 17.0595V17.0597L15.2603 19.251C15.2572 19.2581 15.2539 19.265 15.2503 19.2718C15.0107 19.7203 14.8842 20.2279 14.8842 20.7405C14.8842 22.4588 16.2819 23.8564 18.0001 23.8564C19.7184 23.8564 21.116 22.4587 21.116 20.7405C21.116 20.2274 20.9896 19.7195 20.7505 19.2721C20.7467 19.2652 20.7432 19.2582 20.7399 19.251ZM28.2199 3.21417H7.78C7.34976 3.21417 7 3.564 7 3.99396V4.41851C7 4.84854 7.34976 5.1983 7.78 5.1983H28.2199C28.6499 5.1983 29 4.84854 29 4.41851V3.99396C29 3.564 28.65 3.21417 28.2199 3.21417ZM28.0431 31.3274C28.0424 31.3274 28.0415 31.3277 28.0404 31.3277C28.0396 31.3277 28.0388 31.3274 28.0377 31.3274H7.96229C7.96153 31.3274 7.9607 31.3277 7.95959 31.3277C7.95883 31.3277 7.958 31.3274 7.95689 31.3274H7.78013C7.34983 31.3274 7.00007 31.6775 7.00007 32.1075V32.532C7.00007 32.9623 7.34983 33.3121 7.78007 33.3121H28.22C28.65 33.3121 28.9998 32.9623 28.9998 32.532V32.1075C28.9998 31.6775 28.65 31.3274 28.22 31.3274H28.0431ZM20.6073 17.2712L21.3673 18.9559C21.4183 19.0535 21.465 19.1532 21.5073 19.2548H28.2205C28.6502 19.2548 28.9997 18.9052 28.9997 18.4758V18.051C28.9997 17.621 28.6502 17.2712 28.2205 17.2712H20.6073Z" fill="#0EAE60"/>
</svg>
