<svg width="35" height="35" viewBox="0 0 35 35" fill="none" xmlns="http://www.w3.org/2000/svg">
<path fill-rule="evenodd" clip-rule="evenodd" d="M32.8214 28.6378L33.0169 22.562L27.7724 20.9569L22.5278 22.562L22.7233 28.6378C22.7397 29.1477 22.9134 29.5661 23.2675 29.9537C24.3927 31.1855 26.237 32.2854 27.7724 33.1228C29.3104 32.2854 31.1555 31.1855 32.28 29.9537C32.6341 29.5661 32.8043 29.1477 32.8214 28.6378ZM17.8603 32.1357C21.4915 27.1605 19.3395 24.3886 17.2546 21.7082C16.0043 20.0983 14.7171 18.4433 14.9297 16.422C12.4373 18.9779 11.5972 21.8668 12.3532 25.215C12.3867 25.3613 12.3395 25.5131 12.2274 25.6122C12.1724 25.6609 12.1053 25.694 12.0332 25.7079C11.9611 25.7219 11.8865 25.7162 11.8173 25.6915C10.8568 25.3497 10.2122 24.5697 9.86904 23.3208C8.20244 27.2309 8.90039 30.4247 11.9793 33.0538C13.9918 33.3765 16.0316 33.0381 17.8603 32.1357ZM24.1685 21.2023L21.9885 21.8695C21.9024 21.8961 21.8275 21.9501 21.775 22.0233C21.7226 22.0965 21.6955 22.1849 21.6979 22.2749L21.9044 28.6638V28.6884C21.2037 29.6543 20.3807 30.4801 19.4763 31.1493C20.5146 29.2981 20.8578 27.5775 20.5174 25.926C20.1407 24.0816 19.0019 22.6187 17.902 21.2037C16.3864 19.2541 15.0773 17.5697 16.074 15.3091C16.152 15.1341 16.0993 14.929 15.9455 14.8148C15.7917 14.7007 15.5798 14.7068 15.4349 14.8306C13.6124 16.3789 12.373 18.0879 11.7503 19.911C11.2677 21.3288 11.1446 22.86 11.3818 24.4747C10.8794 23.9791 10.5779 23.1554 10.4494 21.9536C10.44 21.8659 10.4026 21.7837 10.3427 21.7189C10.2829 21.6542 10.2038 21.6104 10.1172 21.594C9.9415 21.5605 9.7624 21.6474 9.67627 21.8073C8.46494 24.1315 7.9789 26.2917 8.23593 28.2283C8.44238 29.7978 9.13759 31.2512 10.3072 32.5664C6.44424 31.0481 3.85957 28.9276 2.62021 26.2548C1.38906 23.6024 1.42871 20.2925 2.7289 16.4049C3.31201 17.5902 4.16103 18.5753 5.25752 19.3423C5.37441 19.4243 5.52822 19.4393 5.65947 19.3812C5.79072 19.3231 5.88027 19.2015 5.89941 19.0593C6.51328 14.3691 8.66797 12.4393 10.569 10.7372C11.7134 9.71112 12.7935 8.74179 13.2624 7.32196C13.6561 6.12841 13.5803 4.71132 13.0197 2.94012C18.3955 8.17509 20.0983 13.3827 18.2253 18.82C18.1665 18.9902 18.2253 19.1789 18.3702 19.2849C18.5151 19.3908 18.7134 19.3901 18.859 19.2821C20.8298 17.8097 21.9017 16.2333 22.063 14.5797C23.3618 16.6899 24.0816 18.9506 24.1685 21.2023ZM29.804 25.2369C29.8419 25.1989 29.8869 25.1687 29.9364 25.1481C29.986 25.1275 30.0392 25.1169 30.0928 25.1169C30.1465 25.1169 30.1996 25.1275 30.2492 25.1481C30.2988 25.1687 30.3438 25.1989 30.3816 25.2369C30.4201 25.2747 30.4507 25.3198 30.4715 25.3696C30.4924 25.4194 30.5031 25.4728 30.5031 25.5267C30.5031 25.5807 30.4924 25.6341 30.4715 25.6839C30.4507 25.7336 30.4201 25.7788 30.3816 25.8166L27.3171 28.8811C27.2392 28.9611 27.1332 29.0015 27.0266 29.0015C26.9233 29.0015 26.8174 28.9611 26.7388 28.8811L25.1617 27.3061C25.0852 27.2291 25.0423 27.1249 25.0423 27.0163C25.0423 26.9077 25.0852 26.8035 25.1617 26.7265C25.3237 26.5665 25.5835 26.5665 25.7421 26.7265L27.0259 28.0109L29.804 25.2369Z" fill="#0EAE60"/>
</svg>
