<svg width="35" height="35" viewBox="0 0 35 35" fill="none" xmlns="http://www.w3.org/2000/svg">
<path fill-rule="evenodd" clip-rule="evenodd" d="M15.6276 15.0432L11.4315 12.6202L10.3937 7.75407C10.3047 7.33857 10.0544 6.97542 9.69786 6.7444C9.34132 6.51339 8.90767 6.43343 8.49221 6.52208C8.07675 6.61073 7.71348 6.86075 7.48222 7.21719C7.25096 7.57363 7.17064 8.00733 7.25891 8.42298L7.69361 10.4614L5.68688 9.30246C4.92082 8.85999 3.93988 9.12307 3.49753 9.88933C3.05517 10.6556 3.31818 11.6368 4.08423 12.0793L6.09096 13.2383L4.10829 13.8809C3.70398 14.0121 3.36831 14.2985 3.17512 14.6772C2.98193 15.0559 2.94704 15.4958 3.07814 15.9002C3.20923 16.3047 3.49557 16.6404 3.87416 16.8337C4.25275 17.0269 4.69258 17.0618 5.09689 16.9307L9.82883 15.3965L14.0249 17.82L9.82883 20.2435L5.09689 18.7093C4.69629 18.5914 4.26551 18.6345 3.89619 18.8295C3.52688 19.0244 3.24818 19.3558 3.11938 19.7531C2.99058 20.1505 3.02185 20.5824 3.20654 20.957C3.39123 21.3316 3.71475 21.6194 4.10829 21.7591L6.09096 22.4017L4.08423 23.5607C3.31818 24.0032 3.05517 24.9844 3.49753 25.7507C3.93988 26.5169 4.92082 26.78 5.68688 26.3375L7.69361 25.1786L7.25891 27.217C7.17064 27.6327 7.25096 28.0664 7.48222 28.4228C7.71348 28.7792 8.07675 29.0293 8.49221 29.1179C8.90767 29.2066 9.34132 29.1266 9.69786 28.8956C10.0544 28.6646 10.3047 28.3014 10.3937 27.8859L11.4315 23.0198L15.6276 20.5968V25.4433L11.9334 28.7753C11.6179 29.0601 11.4284 29.4586 11.4065 29.8832C11.3845 30.3078 11.532 30.7237 11.8164 31.0396C12.1013 31.355 12.4997 31.5445 12.9241 31.5665C13.3485 31.5884 13.7643 31.441 14.0801 31.1566L15.6276 29.7603V32.0782C15.6385 32.4962 15.8121 32.8933 16.1115 33.185C16.4108 33.4767 16.8123 33.64 17.2302 33.64C17.6481 33.64 18.0496 33.4767 18.3489 33.185C18.6483 32.8933 18.8219 32.4962 18.8328 32.0782V29.7603L20.3803 31.1566C20.6961 31.441 21.1119 31.5884 21.5363 31.5665C21.9607 31.5445 22.3591 31.355 22.644 31.0396C22.9283 30.7236 23.0756 30.3077 23.0537 29.8832C23.0318 29.4587 22.8423 29.0602 22.527 28.7753L18.8328 25.4433V20.5968L23.0289 23.0198L24.0667 27.8859C24.1646 28.2924 24.4172 28.6445 24.7709 28.8673C25.1245 29.0902 25.5511 29.1661 25.9598 29.0788C26.3686 28.9916 26.7271 28.7482 26.9591 28.4004C27.191 28.0526 27.278 27.628 27.2015 27.217L26.7668 25.1786L28.7735 26.3375C29.1417 26.55 29.5791 26.6075 29.9897 26.4975C30.4002 26.3874 30.7503 26.1188 30.9629 25.7507C31.1751 25.3824 31.2325 24.9449 31.1225 24.5342C31.0125 24.1236 30.7441 23.7735 30.3762 23.5607L28.3694 22.4017L30.3516 21.7591C30.7507 21.6238 31.0804 21.3368 31.2696 20.9602C31.4587 20.5835 31.4918 20.1475 31.3619 19.7465C31.232 19.3456 30.9495 19.0119 30.5755 18.8178C30.2014 18.6237 29.766 18.5847 29.3635 18.7093L24.6316 20.2435L20.4355 17.82L24.6316 15.3965L29.3635 16.9307C29.766 17.0553 30.2014 17.0163 30.5755 16.8222C30.9495 16.6281 31.232 16.2944 31.3619 15.8935C31.4918 15.4925 31.4587 15.0565 31.2696 14.6798C31.0804 14.3032 30.7507 14.0162 30.3516 13.8809L28.3694 13.2383L30.3762 12.0793C30.7441 11.8665 31.0125 11.5164 31.1225 11.1057C31.2325 10.6951 31.1751 10.2576 30.9629 9.88933C30.7503 9.5212 30.4002 9.25258 29.9897 9.14253C29.5791 9.03248 29.1417 9.09001 28.7735 9.30246L26.7668 10.4614L27.2015 8.42298C27.278 8.01199 27.191 7.58736 26.9591 7.23959C26.7271 6.89181 26.3686 6.64838 25.9598 6.56116C25.5511 6.47394 25.1245 6.54983 24.7709 6.77266C24.4172 6.99548 24.1646 7.34763 24.0667 7.75407L23.0289 12.6202L18.8328 15.0432V10.1967L22.527 6.86474C22.8423 6.57978 23.0318 6.18131 23.0537 5.75678C23.0756 5.33225 22.9283 4.91636 22.644 4.6004C22.3591 4.28495 21.9607 4.09546 21.5363 4.07352C21.1119 4.05158 20.6961 4.19897 20.3803 4.48335L18.8328 5.8797V3.56176C18.8219 3.14384 18.6483 2.74671 18.3489 2.45498C18.0496 2.16326 17.6481 2 17.2302 2C16.8123 2 16.4108 2.16326 16.1115 2.45498C15.8121 2.74671 15.6385 3.14384 15.6276 3.56176V5.8797L14.0801 4.48335C13.7643 4.19897 13.3485 4.05158 12.9241 4.07352C12.4997 4.09546 12.1013 4.28495 11.8164 4.6004C11.532 4.9163 11.3845 5.33222 11.4065 5.75679C11.4284 6.18136 11.6179 6.57986 11.9334 6.86474L15.6276 10.1967V15.0432Z" fill="#0EAE60"/>
</svg>
