<svg width="35" height="35" viewBox="0 0 35 35" fill="none" xmlns="http://www.w3.org/2000/svg">
<path fill-rule="evenodd" clip-rule="evenodd" d="M11.2842 11.706C11.5044 12.3951 11.6302 13.0229 11.6302 13.5413C11.6302 16.9269 8.88161 19.6754 5.49609 19.6754C4.68963 19.6754 3.91927 19.5194 3.21343 19.2361C3.17843 19.9901 3.21708 20.747 3.32937 21.4954L6.20338 21.7605C6.42203 22.704 6.79517 23.6049 7.3077 24.4267L5.46328 26.6463C6.14796 27.5733 6.96736 28.3929 7.89432 29.0777L10.1143 27.2333C10.9361 27.7458 11.8369 28.1189 12.7805 28.3376L13.0455 31.2116C14.1852 31.3829 15.3442 31.3829 16.4839 31.2116L16.7493 28.3376C17.6928 28.1189 18.5937 27.7458 19.4155 27.2333L21.6351 29.0777C22.5623 28.393 23.3818 27.5734 24.0665 26.6463L22.2221 24.4267C22.7346 23.6049 23.1078 22.704 23.3264 21.7605L26.2001 21.4954C26.3714 20.3554 26.3714 19.1967 26.2001 18.0567L23.3264 17.7916C23.1078 16.8481 22.7346 15.9472 22.2221 15.1254L24.0665 12.9059C23.3818 11.9787 22.5623 11.1592 21.6351 10.4745L19.4155 12.3189C18.5937 11.8064 17.6928 11.4332 16.7493 11.2146L16.4839 8.34055C15.3442 8.1692 14.1852 8.1692 13.0455 8.34055L12.7805 11.2146C12.268 11.3333 11.7673 11.4978 11.2842 11.706ZM14.7649 15.8444C16.9349 15.8444 18.6966 17.6061 18.6966 19.7761C18.6966 21.9461 16.9349 23.7077 14.7649 23.7077C12.5949 23.7077 10.8332 21.9461 10.8332 19.7761C10.8332 17.6061 12.5949 15.8444 14.7649 15.8444Z" fill="#0EAE60"/>
<path fill-rule="evenodd" clip-rule="evenodd" d="M5.49608 3.66003C5.49608 3.66003 0.455719 10.5769 0.455719 13.5413C0.455719 16.3231 2.71431 18.5817 5.49608 18.5817C8.27785 18.5817 10.5364 16.3231 10.5364 13.5413C10.5364 10.5769 5.49608 3.66003 5.49608 3.66003ZM26.5701 8.46998H33.9974C34.1424 8.46998 34.2815 8.41237 34.3841 8.30981C34.4866 8.20725 34.5443 8.06815 34.5443 7.92311C34.5443 7.77807 34.4866 7.63897 34.3841 7.53641C34.2815 7.43385 34.1424 7.37623 33.9974 7.37623H26.5701C26.4285 7.3814 26.2944 7.44128 26.1961 7.54328C26.0978 7.64527 26.0428 7.78143 26.0428 7.92311C26.0428 8.06479 26.0978 8.20094 26.1961 8.30294C26.2944 8.40493 26.4285 8.46481 26.5701 8.46998ZM26.5701 11.0706H31.3381C31.4832 11.0706 31.6223 11.0129 31.7248 10.9104C31.8274 10.8078 31.885 10.6687 31.885 10.5237C31.885 10.3786 31.8274 10.2395 31.7248 10.137C31.6223 10.0344 31.4832 9.97681 31.3381 9.97681H26.5701C26.4285 9.98198 26.2944 10.0419 26.1961 10.1439C26.0978 10.2458 26.0428 10.382 26.0428 10.5237C26.0428 10.6654 26.0978 10.8015 26.1961 10.9035C26.2944 11.0055 26.4285 11.0654 26.5701 11.0706ZM26.5701 13.6711H28.9541C29.0957 13.666 29.2297 13.6061 29.3281 13.5041C29.4264 13.4021 29.4814 13.2659 29.4814 13.1243C29.4814 12.9826 29.4264 12.8464 29.3281 12.7444C29.2297 12.6424 29.0957 12.5825 28.9541 12.5774H26.5701C26.4285 12.5825 26.2944 12.6424 26.1961 12.7444C26.0978 12.8464 26.0428 12.9826 26.0428 13.1243C26.0428 13.2659 26.0978 13.4021 26.1961 13.5041C26.2944 13.6061 26.4285 13.666 26.5701 13.6711Z" fill="#0EAE60"/>
</svg>
