<svg width="60" height="60" viewBox="0 0 60 60" fill="none" xmlns="http://www.w3.org/2000/svg">
<path d="M25.2717 7.47127C24.9992 7.19877 24.5696 7.13919 24.2463 7.34877C23.9329 7.55169 23.6383 7.79085 23.3667 8.06251L5.34584 26.0833C5.12084 26.3042 5 26.6 5 26.9167C5 27.2334 5.12084 27.5292 5.34584 27.75L20 42.4042C20.4458 42.85 21.2208 42.85 21.6667 42.4042L40.3479 23.7267C40.6733 23.4013 40.6733 22.8738 40.3479 22.5479L25.2717 7.47127ZM21.8375 37.9209C21.675 38.0833 21.4625 38.1667 21.25 38.1667C21.0375 38.1667 20.825 38.0834 20.6625 37.9209L9.82917 27.0875C9.5 26.7625 9.5 26.2375 9.82917 25.9125L18.9958 16.7459C19.3208 16.4167 19.8458 16.4167 20.1708 16.7459L31.0042 27.5792C31.3333 27.9042 31.3333 28.4292 31.0042 28.7542L21.8375 37.9209ZM35.8084 8.90418L28.6917 6.73335C28.1875 6.57918 27.6625 6.50001 27.1334 6.50001C26.9792 6.50001 26.825 6.50835 26.6709 6.52084L42.1125 21.9625L42.2542 21.8167C42.4125 21.6584 42.5 21.45 42.5 21.225V15.5959L35.8084 8.90418ZM47.9167 12.75C47.9167 12.7959 47.9 12.8375 47.8667 12.8709L45.1209 15.6167C45.0584 15.6792 44.9417 15.6792 44.8792 15.6167L36.3 7.03752C36.2667 7.00419 36.25 6.96252 36.25 6.91668C36.25 6.87084 36.2667 6.82918 36.3 6.79584L39.0458 4.05C39.0792 4.01667 39.1208 4 39.1667 4C39.2125 4 39.2542 4.01667 39.2875 4.05L47.8667 12.6292C47.9 12.6625 47.9167 12.7042 47.9167 12.75Z" fill="white"/>
<path d="M11.5918 26.4993L19.5779 18.5132L29.2304 28.1657L21.2443 36.1518L11.5918 26.4993ZM53.3336 28.1667C53.3336 30.6958 51.2794 32.75 48.7502 32.75C46.2211 32.75 44.1669 30.6958 44.1669 28.1667C44.1669 25.9333 47.4294 21.4584 48.0836 20.5834C48.3961 20.1625 49.1044 20.1625 49.4169 20.5834C50.0711 21.4584 53.3336 25.9333 53.3336 28.1667ZM46.1502 47.85L47.1086 48.8125C46.6836 49.0167 46.3127 49.3417 46.0544 49.7667C44.7544 51.8958 42.4919 53.1667 40.0002 53.1667C36.9127 53.1667 34.2086 51.1625 33.2711 48.2833C33.4794 48.1704 33.6711 48.0292 33.8419 47.8579C34.3211 47.3829 34.5836 46.7538 34.5836 46.0829C34.5836 45.4121 34.3211 44.7829 33.8502 44.3163L32.8877 43.3538C33.3169 43.1538 33.6836 42.8246 33.9461 42.3996C35.2461 40.2704 37.5086 38.9996 40.0002 38.9996C43.0877 38.9996 45.7919 41.0038 46.7294 43.8788C46.5211 43.9954 46.3294 44.1371 46.1586 44.3079C45.6794 44.7829 45.4169 45.4121 45.4169 46.0829C45.4169 46.7538 45.6794 47.3833 46.1502 47.85Z" fill="white"/>
<path d="M51.8379 46.6708L50.1712 48.3375C50.0087 48.5 49.7962 48.5833 49.5837 48.5833C49.3712 48.5833 49.1587 48.5 48.9962 48.3375L47.3295 46.6708C47.2514 46.5943 47.1893 46.5029 47.1469 46.402C47.1045 46.3011 47.0827 46.1928 47.0827 46.0833C47.0827 45.9739 47.1045 45.8656 47.1469 45.7647C47.1893 45.6638 47.2514 45.5724 47.3295 45.4958C47.6545 45.1667 48.1795 45.1667 48.5045 45.4958L48.742 45.7333C48.7254 45.2833 48.6712 44.8334 48.5837 44.4C47.7879 40.3 44.1754 37.3333 40.0004 37.3333C36.9254 37.3333 34.1295 38.9042 32.5254 41.5333C32.2837 41.925 31.7712 42.05 31.3795 41.8125C30.9879 41.5709 30.8629 41.0583 31.1004 40.6667C33.0129 37.5375 36.3379 35.6667 40.0004 35.6667C44.9712 35.6667 49.2712 39.2042 50.217 44.075C50.3295 44.6167 50.392 45.1833 50.4087 45.75L50.6629 45.4958C50.9879 45.1667 51.5129 45.1667 51.8379 45.4958C52.167 45.8208 52.167 46.3459 51.8379 46.6708ZM48.9004 51.5C46.9879 54.6292 43.6629 56.5 40.0004 56.5C35.0295 56.5 30.7296 52.9625 29.7837 48.0917C29.6712 47.55 29.6087 46.9834 29.592 46.4167L29.3379 46.6709C29.0129 47 28.4879 47 28.1629 46.6709C28.0847 46.5943 28.0226 46.5029 27.9802 46.402C27.9379 46.3011 27.916 46.1928 27.916 46.0834C27.916 45.9739 27.9379 45.8656 27.9802 45.7647C28.0226 45.6638 28.0847 45.5724 28.1629 45.4959L29.8296 43.8292C30.1546 43.5 30.6796 43.5 31.0045 43.8292L32.6712 45.4959C32.7494 45.5724 32.8115 45.6638 32.8539 45.7647C32.8962 45.8656 32.9181 45.9739 32.9181 46.0834C32.9181 46.1928 32.8962 46.3011 32.8539 46.402C32.8115 46.5029 32.7494 46.5943 32.6712 46.6709C32.5087 46.8334 32.2962 46.9167 32.0837 46.9167C31.8712 46.9167 31.6587 46.8334 31.4962 46.6709L31.2587 46.4334C31.2754 46.8834 31.3295 47.3334 31.417 47.7667C32.2129 51.8667 35.8254 54.8334 40.0004 54.8334C43.0754 54.8334 45.8712 53.2625 47.4754 50.6334C47.717 50.2417 48.2295 50.1167 48.6212 50.3542C49.0129 50.5959 49.1379 51.1083 48.9004 51.5Z" fill="white"/>
</svg>
