<svg width="60" height="60" viewBox="0 0 60 60" fill="none" xmlns="http://www.w3.org/2000/svg">
<path d="M29.5615 31.0148V43.3195L40.2177 37.1672V24.8625L29.5615 31.0148ZM27.8037 27.9703L38.4598 21.8178L27.8037 15.6656L17.1475 21.818L27.8037 27.9703ZM26.0459 31.0148L15.3896 24.8625V37.1672L26.0459 43.3195V31.0148Z" fill="white"/>
<path d="M52.3828 37.1889C53.7489 32.5186 53.7474 27.5078 52.3784 22.8149C54.6488 20.9375 55.3054 17.6346 53.7843 15C52.2644 12.3671 49.079 11.2841 46.319 12.3082C42.9576 8.79 38.6172 6.28582 33.8685 5.12496C33.3777 2.22012 30.8456 0 27.8034 0C24.7631 0 22.2325 2.21719 21.7396 5.11922C17.0122 6.27117 12.6737 8.7777 9.29403 12.3094C8.10458 11.8644 6.80978 11.7981 5.55845 12.1334C3.97103 12.5588 2.64435 13.5768 1.82275 15C0.30259 17.633 0.957433 20.9332 3.22419 22.8111C1.85814 27.4813 1.85966 32.4921 3.22864 37.1851C0.958253 39.0625 0.301535 42.3653 1.82263 45C2.64435 46.4232 3.97103 47.4412 5.55833 47.8665C6.08085 48.0071 6.61955 48.0785 7.16064 48.0789C7.88568 48.0789 8.60357 47.9463 9.28736 47.6914C12.6489 51.2099 16.9895 53.7142 21.7384 54.8752C22.2292 57.7799 24.7611 60 27.8034 60C30.8436 60 33.3744 57.7828 33.8673 54.8807C38.5943 53.7288 42.9327 51.2225 46.3122 47.6911C46.9948 47.9453 47.7173 48.0752 48.4457 48.0749C50.5735 48.0748 52.6459 46.9713 53.7842 44.9999C55.3043 42.3671 54.6496 39.0669 52.3828 37.1889ZM33.4307 51.3649C32.4744 49.206 30.3127 47.6953 27.8034 47.6953C25.2962 47.6953 23.1359 49.2036 22.1784 51.3599C18.3672 50.3537 14.8791 48.3423 12.1167 45.5582C12.5659 44.9438 12.8971 44.2514 13.0935 43.5162C13.5188 41.9289 13.3006 40.2709 12.4788 38.8477C11.2252 36.6764 8.83888 35.5598 6.49279 35.8088C5.45825 32.0041 5.45626 27.9768 6.48693 24.1918C6.70466 24.2152 6.92286 24.2273 7.14036 24.2273C9.26814 24.2273 11.3406 23.1238 12.4788 21.1523C13.3006 19.7291 13.5189 18.0713 13.0935 16.4838C12.8976 15.7504 12.5675 15.0596 12.12 14.4464C14.8975 11.6493 18.3837 9.63457 22.1761 8.63508C23.1325 10.794 25.2942 12.3047 27.8034 12.3047C30.3107 12.3047 32.4709 10.7964 33.4285 8.64012C37.2409 9.64664 40.7299 11.6589 43.4925 14.4442C42.101 16.3518 41.8736 18.9792 43.1281 21.1523C44.2663 23.1239 46.3385 24.2272 48.4665 24.2272C48.683 24.227 48.8993 24.2153 49.1145 24.1923C50.1489 27.9969 50.1506 32.0243 49.1197 35.8092C46.7719 35.558 44.3827 36.6745 43.1281 38.8477C41.8745 41.019 42.1007 43.644 43.4892 45.5513C40.7114 48.3497 37.2243 50.3652 33.4307 51.3649Z" fill="white"/>
</svg>
