<svg width="60" height="60" viewBox="0 0 60 60" fill="none" xmlns="http://www.w3.org/2000/svg">
<path d="M53.6476 24.7908L43.1851 6.65957C42.8961 6.15524 42.4791 5.73616 41.9762 5.44471C41.4733 5.15326 40.9023 4.99977 40.3211 4.99977C39.7398 4.99977 39.1688 5.15326 38.6659 5.44471C38.163 5.73616 37.746 6.15524 37.457 6.65957L26.9945 24.7908C25.627 27.1254 24.9062 29.7821 24.9062 32.4877C24.9062 35.1933 25.627 37.85 26.9945 40.1846C32.6523 50.393 47.9926 50.3893 53.6476 40.1846C55.0152 37.85 55.736 35.1933 55.736 32.4877C55.736 29.7821 55.0152 27.1254 53.6476 24.7908ZM30.482 33.1721C30.7182 33.0954 30.9752 33.1156 31.1966 33.228C31.418 33.3405 31.5858 33.5361 31.6632 33.7721C32.2379 35.5215 33.1604 37.1367 34.3751 38.5206C35.5898 39.9045 37.0718 41.0286 38.732 41.8252C38.9523 41.9337 39.1212 42.1244 39.2024 42.3562C39.2837 42.588 39.2707 42.8424 39.1663 43.0647C39.0619 43.287 38.8744 43.4595 38.6442 43.545C38.4139 43.6305 38.1593 43.6223 37.9351 43.5221C36.0445 42.6174 34.3564 41.3396 32.9724 39.7655C31.5884 38.1914 30.5372 36.3536 29.882 34.3627C29.8043 34.1252 29.8238 33.8667 29.9362 33.6435C30.0487 33.4204 30.2449 33.2509 30.482 33.1721Z" fill="white"/>
<path d="M25.3633 41.1221C21.8073 35.1165 22.487 27.8733 26.3289 22.1752L27.4164 20.3002L25.5976 17.1502C25.2701 16.6015 24.8055 16.1473 24.2495 15.8323C23.6936 15.5172 23.0653 15.3521 22.4262 15.353C21.7872 15.3539 21.1593 15.521 20.6043 15.8377C20.0493 16.1544 19.5861 16.6099 19.2601 17.1596L9.08825 34.7658C3.09763 44.7765 10.7533 58.0515 22.4289 57.8565C25.3031 57.8692 28.1226 57.0711 30.5636 55.5537C33.0046 54.0364 34.9682 51.8613 36.2289 49.2783C33.9569 48.7325 31.8208 47.7273 29.9521 46.3246C28.0834 44.9218 26.5217 43.1513 25.3633 41.1221ZM11.2539 40.3815C11.3765 40.3666 11.5008 40.3762 11.6197 40.4097C11.7386 40.4432 11.8496 40.5 11.9464 40.5767C12.0432 40.6534 12.1238 40.7486 12.1836 40.8567C12.2433 40.9648 12.281 41.0837 12.2945 41.2065C12.5471 43.2509 13.2552 45.2127 14.3666 46.9471C15.4781 48.6816 16.9645 50.1446 18.7164 51.2283C18.9189 51.3617 19.0616 51.5686 19.1145 51.8052C19.1673 52.0419 19.1261 52.2898 18.9996 52.4967C18.873 52.7035 18.671 52.8531 18.4363 52.9138C18.2015 52.9745 17.9523 52.9416 17.7414 52.8221C15.7473 51.5932 14.0554 49.9312 12.7912 47.9594C11.5269 45.9875 10.7228 43.7564 10.4383 41.4315C10.4228 41.3089 10.4316 41.1846 10.4642 41.0655C10.4968 40.9464 10.5526 40.8349 10.6284 40.7373C10.7041 40.6398 10.7983 40.5582 10.9057 40.4971C11.013 40.436 11.1313 40.3967 11.2539 40.3815Z" fill="white"/>
</svg>
