<svg width="45" height="45" viewBox="0 0 45 45" fill="none" xmlns="http://www.w3.org/2000/svg">
<path d="M44.209 37.636H31.4848C31.4028 37.6359 31.3242 37.6032 31.2662 37.5453C31.2082 37.4873 31.1756 37.4087 31.1754 37.3267V18.1417C31.1756 18.0597 31.2082 17.9811 31.2662 17.9231C31.3242 17.8651 31.4028 17.8325 31.4848 17.8323H34.2359C34.3092 17.8319 34.3802 17.8578 34.4362 17.9051C34.4921 17.9525 34.5293 18.0183 34.5409 18.0906C35.8986 26.1996 39.0679 33.3073 44.209 37.636ZM25.2521 33.7277C25.2521 35.8609 23.5068 37.6062 21.3736 37.6062H4.93269C2.79949 37.6062 1.05425 35.8609 1.05425 33.7278C1.05425 31.5946 2.79949 29.8493 4.93269 29.8493H21.3737C23.5068 29.8493 25.2521 31.5945 25.2521 33.7277ZM6.33349 33.7277C6.33349 32.9541 5.7063 32.3269 4.93269 32.3269C4.15907 32.3269 3.53188 32.9541 3.53188 33.7277C3.53188 34.5013 4.15907 35.1285 4.93269 35.1285C5.7063 35.1286 6.33349 34.5014 6.33349 33.7277ZM11.8138 33.7277C11.8138 32.9541 11.1866 32.3269 10.413 32.3269C9.6394 32.3269 9.01222 32.9541 9.01222 33.7277C9.01222 34.5013 9.6394 35.1285 10.413 35.1285C11.1866 35.1286 11.8138 34.5014 11.8138 33.7277ZM17.2941 33.7277C17.2941 32.9541 16.667 32.3269 15.8933 32.3269C15.1197 32.3269 14.4925 32.9541 14.4925 33.7277C14.4925 34.5013 15.1197 35.1285 15.8933 35.1285C16.667 35.1286 17.2941 34.5014 17.2941 33.7277ZM22.7745 33.7277C22.7745 32.9541 22.1473 32.3269 21.3737 32.3269C20.6001 32.3269 19.9729 32.9541 19.9729 33.7277C19.9729 34.5013 20.6001 35.1285 21.3737 35.1285C22.1473 35.1286 22.7745 34.5014 22.7745 33.7277ZM28.9671 23.7433L29.7693 25.1326V30.1422L27.3167 25.8942L25.4009 25.3809C25.304 25.565 25.1901 25.7396 25.0605 25.9024C24.4462 26.6778 23.5947 27.0895 22.6054 27.0895H20.6849V28.4429H5.6214V27.0896H2.21484C1.4306 27.0896 0.791016 26.45 0.791016 25.6658V18.016C0.791016 17.2318 1.4306 16.5922 2.21484 16.5922H7.89363C8.56556 16.5922 9.13166 16.1409 9.2816 15.4859L10.8867 8.47005C11.0366 7.81509 11.6028 7.36377 12.2747 7.36377H20.7972C21.4662 7.36377 22.0303 7.81069 22.1833 8.46196L25.5583 22.8299L28.9671 23.7433ZM3.98039 19.229C3.98039 19.0425 3.90631 18.8637 3.77445 18.7318C3.64259 18.6 3.46375 18.5259 3.27727 18.5259C3.09079 18.5259 2.91194 18.6 2.78008 18.7318C2.64822 18.8637 2.57414 19.0425 2.57414 19.229V21.4315C2.57414 21.618 2.64822 21.7969 2.78008 21.9287C2.91194 22.0606 3.09079 22.1347 3.27727 22.1347C3.46375 22.1347 3.64259 22.0606 3.77445 21.9287C3.90631 21.7969 3.98039 21.618 3.98039 21.4315V19.229ZM6.21853 19.229C6.21853 19.0425 6.14445 18.8637 6.01258 18.7318C5.88072 18.6 5.70188 18.5259 5.5154 18.5259C5.32892 18.5259 5.15008 18.6 5.01822 18.7318C4.88635 18.8637 4.81228 19.0425 4.81228 19.229V21.4315C4.81228 21.618 4.88635 21.7969 5.01822 21.9287C5.15008 22.0606 5.32892 22.1347 5.5154 22.1347C5.70188 22.1347 5.88072 22.0606 6.01258 21.9287C6.14445 21.7969 6.21853 21.618 6.21853 21.4315V19.229ZM8.45657 19.229C8.45657 19.0425 8.38249 18.8637 8.25063 18.7318C8.11877 18.6 7.93993 18.5259 7.75345 18.5259C7.56697 18.5259 7.38812 18.6 7.25626 18.7318C7.1244 18.8637 7.05032 19.0425 7.05032 19.229V21.4315C7.05032 21.618 7.1244 21.7969 7.25626 21.9287C7.38812 22.0606 7.56697 22.1347 7.75345 22.1347C7.93993 22.1347 8.11877 22.0606 8.25063 21.9287C8.38249 21.7969 8.45657 21.618 8.45657 21.4315V19.229ZM21.5273 16.4354L19.9754 9.8248H13.1012L11.6804 16.0349C11.6136 16.3276 11.5134 16.6117 11.3817 16.8815C11.2115 17.2301 11.2385 17.6138 11.4558 17.9352L12.6428 19.6903C12.845 19.9893 13.1555 20.1541 13.5164 20.1541H18.5804C20.5423 20.1541 21.9756 18.3453 21.5273 16.4354Z" fill="#0EAE60"/>
</svg>
