<svg width="35" height="35" viewBox="0 0 35 35" fill="none" xmlns="http://www.w3.org/2000/svg">
<path d="M17.498 21.9673C19.9671 21.9673 21.9688 19.9657 21.9688 17.4966C21.9688 15.0275 19.9671 13.0259 17.498 13.0259C15.0289 13.0259 13.0273 15.0275 13.0273 17.4966C13.0273 19.9657 15.0289 21.9673 17.498 21.9673Z" fill="#0EAE60"/>
<path d="M34.4734 16.0966C33.9901 14.8026 32.8813 13.7218 31.521 13.2317C28.9582 12.2999 25.9565 12.5522 22.7621 13.8872C23.467 14.9124 23.8563 16.1215 23.8818 17.3654C23.9073 18.6093 23.568 19.8334 22.9056 20.8866C24.0417 21.2889 25.0369 22.0119 25.7706 22.968C26.5044 23.9241 26.9453 25.0724 27.04 26.274C27.04 26.274 27.0544 26.425 27.051 26.7525C27.0479 27.1444 27.1629 27.5282 27.3811 27.8537C27.6429 28.2557 28.051 28.54 28.5188 28.6463C28.9866 28.7526 29.4774 28.6725 29.8872 28.4232L29.9234 28.4013C33.3475 25.9158 36.2179 20.5865 34.4734 16.0966ZM11.1137 17.5C11.1122 16.3022 11.4497 15.1284 12.0871 14.1142C10.9526 13.711 9.95916 12.988 9.2267 12.0325C8.49425 11.077 8.05414 9.92977 7.95955 8.72952C7.95955 8.72952 7.94519 8.57845 7.94861 8.25101C7.95171 7.85908 7.83665 7.47531 7.61844 7.14974C7.35663 6.74775 6.94859 6.4635 6.4808 6.3572C6.013 6.25091 5.52219 6.33093 5.11238 6.5803L5.07615 6.60218C1.65203 9.08567 -1.21838 14.415 0.526152 18.9069C1.00945 20.2009 2.11824 21.281 3.47859 21.7718C6.04139 22.7042 9.04373 22.4513 12.2388 21.1156C11.5045 20.053 11.112 18.7916 11.1137 17.5ZM28.4188 5.11263L28.3976 5.0764C25.9135 1.65227 20.5848 -1.21814 16.0929 0.526396C14.7989 1.0097 13.7188 2.11849 13.2287 3.47884C12.2963 6.04095 12.5492 9.04192 13.8829 12.2357C14.9081 11.5297 16.1177 11.1396 17.3621 11.1133C18.6066 11.0871 19.8316 11.4259 20.8856 12.088C21.2888 10.9534 22.0119 9.95973 22.9675 9.22716C23.9232 8.49458 25.0706 8.0544 26.271 7.95979C26.271 7.95979 26.4221 7.94544 26.7495 7.94886C27.1414 7.95187 27.5252 7.83682 27.8508 7.61868C28.2525 7.35666 28.5365 6.94853 28.6425 6.48074C28.7486 6.01296 28.6683 5.52228 28.4188 5.11263ZM17.4998 23.8814C16.3013 23.8828 15.127 23.5448 14.1126 22.9066C13.7101 24.0425 12.9871 25.0375 12.031 25.7712C11.0749 26.5048 9.9266 26.9456 8.72517 27.0403C8.72517 27.0403 8.5741 27.0546 8.24666 27.0512C7.85495 27.0481 7.4714 27.1632 7.14607 27.3814C6.74409 27.6432 6.45984 28.0512 6.35354 28.519C6.24725 28.9868 6.32727 29.4776 6.57664 29.8874L6.59783 29.9237C9.08201 33.3478 14.4106 36.2182 18.9025 34.4737C20.1966 33.9904 21.2766 32.8816 21.7675 31.5212C22.6992 28.9577 22.4463 25.9547 21.1105 22.7589C20.0489 23.4911 18.7894 23.8826 17.4998 23.8814Z" fill="#0EAE60"/>
</svg>
