<svg width="35" height="35" viewBox="0 0 35 35" fill="none" xmlns="http://www.w3.org/2000/svg">
<g clip-path="url(#clip0_84_6689)">
<path d="M6.58984 12.0085C6.64275 6.47158 13.8746 4.57379 16.6722 9.25032C16.937 7.82141 18.1922 6.73565 19.6966 6.73565H21.8381L22.0531 6.5206C22.4536 6.12015 22.4534 5.47046 22.0531 5.07042L18.9466 1.9639C18.5462 1.56345 17.897 1.56352 17.4966 1.96383L16.2841 3.17618C15.9417 3.01003 15.5899 2.86404 15.2305 2.73896V1.02539C15.2305 0.459102 14.7714 0 14.2051 0H9.81183C9.24554 0 8.78644 0.459102 8.78644 1.02539V2.73896C8.42701 2.86404 8.0752 3.01003 7.73281 3.17618L6.52032 1.9639C6.11994 1.56352 5.47066 1.56358 5.07028 1.96396L1.96376 5.07049C1.56324 5.4708 1.56365 6.12056 1.96376 6.52066L3.17625 7.73295C3.01011 8.07529 2.86412 8.42706 2.73902 8.78644H1.02539C0.459102 8.78644 0 9.24554 0 9.81183V14.2051C0 14.7714 0.459102 15.2305 1.02539 15.2305H2.73896C2.86408 15.5898 3.01007 15.9416 3.17618 16.284L1.96369 17.4962C1.56324 17.8967 1.56352 18.5464 1.96369 18.9464L5.07021 22.0529C5.4706 22.4533 6.11987 22.4534 6.52025 22.053L6.73559 21.8377V19.6966C6.73559 18.1921 7.82127 16.9369 9.25025 16.6722C7.65803 15.7286 6.58984 13.9936 6.58984 12.0085Z" fill="#0EAE60"/>
<path d="M33.9742 18.6714H32.3185C32.1189 18.0249 31.859 17.3986 31.5424 16.8007L32.7141 15.6288C33.1146 15.2285 33.1146 14.5792 32.7141 14.1787L29.6076 11.0722C29.2075 10.6721 28.558 10.6717 28.1575 11.0722L26.9857 12.244C26.3878 11.9273 25.7614 11.6674 25.1149 11.4677V9.81201C25.1149 9.24572 24.6558 8.78662 24.0895 8.78662H19.6962C19.1299 8.78662 18.6708 9.24572 18.6708 9.81201V11.4677C18.0243 11.6674 17.3979 11.9273 16.8 12.244L15.6283 11.0722C15.1183 10.5624 14.4533 10.797 14.1782 11.0722L11.0717 14.1787C10.6712 14.5791 10.6712 15.2284 11.0717 15.6288L12.2435 16.8007C11.9268 17.3986 11.6669 18.0249 11.4673 18.6714H9.81152C9.24523 18.6714 8.78613 19.1305 8.78613 19.6968V24.09C8.78613 24.6562 9.24523 25.1154 9.81152 25.1154H11.4673C11.6669 25.7618 11.9268 26.3881 12.2434 26.986L11.0717 28.1578C10.6712 28.5582 10.6712 29.2075 11.0717 29.6079L14.1782 32.7145C14.5782 33.1146 15.2279 33.1149 15.6283 32.7145L16.8 31.5426C17.3979 31.8594 18.0243 32.1193 18.6708 32.3189V33.9747C18.6708 34.541 19.1299 35.0001 19.6962 35.0001H24.0895C24.6558 35.0001 25.1149 34.541 25.1149 33.9747V32.319C25.7614 32.1194 26.3878 31.8595 26.9857 31.5428L28.1574 32.7145C28.5574 33.1146 29.2071 33.115 29.6075 32.7145L32.714 29.608C33.1145 29.2076 33.1145 28.5583 32.714 28.1579L31.5422 26.9861C31.8589 26.3882 32.1188 25.7619 32.3184 25.1154H33.9742C34.5405 25.1154 34.9996 24.6563 34.9996 24.09V19.6968C34.9996 19.1305 34.5405 18.6714 33.9742 18.6714ZM21.8929 28.4103C18.2994 28.4103 15.376 25.4867 15.376 21.8934C15.734 13.2478 28.0532 13.2504 28.4099 21.8934C28.4098 25.4867 25.4863 28.4103 21.8929 28.4103Z" fill="#0EAE60"/>
<path d="M21.9865 17.4294C19.4926 17.3702 17.424 19.4 17.4272 21.8932C17.6724 27.8176 26.1149 27.8168 26.3595 21.8932C26.3595 19.4618 24.4062 17.4793 21.9865 17.4294ZM8.64079 12.0085C8.64035 12.5517 8.77221 13.0869 9.02497 13.5678C9.17545 13.2565 9.37731 12.9727 9.62209 12.7284L12.7285 9.62197C12.9709 9.37957 13.261 9.17948 13.5774 9.02971C11.3838 7.8393 8.61631 9.50105 8.64079 12.0085Z" fill="#0EAE60"/>
</g>
<defs>
<clipPath id="clip0_84_6689">
<rect width="35" height="35" fill="white"/>
</clipPath>
</defs>
</svg>
