<svg width="45" height="45" viewBox="0 0 45 45" fill="none" xmlns="http://www.w3.org/2000/svg">
<path d="M11.9531 31.6406C10.8406 31.6406 9.75307 31.9705 8.82804 32.5886C7.90302 33.2067 7.18205 34.0852 6.75631 35.113C6.33056 36.1409 6.21917 37.2719 6.43621 38.363C6.65325 39.4542 7.18898 40.4564 7.97565 41.2431C8.76232 42.0298 9.7646 42.5655 10.8557 42.7825C11.9469 42.9996 13.0779 42.8882 14.1057 42.4624C15.1336 42.0367 16.0121 41.3157 16.6301 40.3907C17.2482 39.4657 17.5781 38.3781 17.5781 37.2656C17.5765 35.7743 16.9833 34.3445 15.9288 33.29C14.8742 32.2355 13.4445 31.6423 11.9531 31.6406ZM11.9531 40.7812C11.2578 40.7812 10.5781 40.5751 9.99995 40.1888C9.42181 39.8025 8.9712 39.2534 8.70511 38.611C8.43902 37.9686 8.3694 37.2617 8.50505 36.5798C8.6407 35.8978 8.97554 35.2714 9.46721 34.7797C9.95887 34.288 10.5853 33.9532 11.2673 33.8176C11.9492 33.6819 12.6561 33.7515 13.2985 34.0176C13.9409 34.2837 14.49 34.7343 14.8763 35.3124C15.2626 35.8906 15.4688 36.5703 15.4688 37.2656C15.4676 38.1977 15.0969 39.0912 14.4378 39.7503C13.7788 40.4094 12.8852 40.7801 11.9531 40.7812ZM11.25 18.2812C11.25 18.0948 11.1759 17.9159 11.0441 17.7841C10.9122 17.6522 10.7334 17.5781 10.5469 17.5781H7.73438C7.5479 17.5781 7.36905 17.6522 7.23719 17.7841C7.10533 17.9159 7.03125 18.0948 7.03125 18.2812V23.2031H11.25V18.2812Z" fill="#0EAE60"/>
<path d="M11.9531 39.375C13.1181 39.375 14.0625 38.4306 14.0625 37.2656C14.0625 36.1006 13.1181 35.1562 11.9531 35.1562C10.7881 35.1562 9.84375 36.1006 9.84375 37.2656C9.84375 38.4306 10.7881 39.375 11.9531 39.375Z" fill="#0EAE60"/>
<path d="M9.84375 6.32812C9.84375 5.5822 10.1401 4.86683 10.6675 4.33939C11.195 3.81194 11.9103 3.51562 12.6562 3.51562H14.0625V2.10938H11.25C10.5041 2.10938 9.78871 2.40569 9.26126 2.93314C8.73382 3.46058 8.4375 4.17595 8.4375 4.92188V16.1719H9.84375V6.32812ZM22.5 11.9531H33.0469V17.5781H22.5V11.9531Z" fill="#0EAE60"/>
<path d="M35.8594 17.5781V9.14062H22.5V10.5469H33.75C33.9365 10.5469 34.1153 10.621 34.2472 10.7528C34.379 10.8847 34.4531 11.0635 34.4531 11.25V17.5781H35.8594ZM18.9844 6.32812H37.2656V7.73438H18.9844V6.32812ZM33.0469 28.8281C32.2125 28.8281 31.3968 29.0756 30.7031 29.5391C30.0093 30.0027 29.4686 30.6616 29.1493 31.4324C28.83 32.2033 28.7464 33.0516 28.9092 33.8699C29.072 34.6883 29.4738 35.44 30.0638 36.03C30.6538 36.62 31.4055 37.0218 32.2238 37.1846C33.0422 37.3473 33.8904 37.2638 34.6613 36.9445C35.4322 36.6252 36.0911 36.0845 36.5546 35.3907C37.0182 34.6969 37.2656 33.8813 37.2656 33.0469C37.2645 31.9283 36.8197 30.8559 36.0287 30.065C35.2378 29.2741 34.1654 28.8292 33.0469 28.8281ZM33.0469 35.8594C32.4906 35.8594 31.9468 35.6944 31.4843 35.3854C31.0218 35.0763 30.6613 34.6371 30.4485 34.1232C30.2356 33.6093 30.1799 33.0438 30.2884 32.4982C30.3969 31.9526 30.6648 31.4515 31.0581 31.0581C31.4515 30.6648 31.9526 30.3969 32.4982 30.2884C33.0438 30.1799 33.6093 30.2356 34.1232 30.4485C34.6371 30.6613 35.0763 31.0218 35.3854 31.4843C35.6944 31.9468 35.8594 32.4906 35.8594 33.0469C35.8594 33.7928 35.5631 34.5082 35.0356 35.0356C34.5082 35.5631 33.7928 35.8594 33.0469 35.8594Z" fill="#0EAE60"/>
<path d="M33.0469 34.4531C33.8235 34.4531 34.4531 33.8235 34.4531 33.0469C34.4531 32.2702 33.8235 31.6406 33.0469 31.6406C32.2702 31.6406 31.6406 32.2702 31.6406 33.0469C31.6406 33.8235 32.2702 34.4531 33.0469 34.4531Z" fill="#0EAE60"/>
<path d="M22.5 35.8594C22.3135 35.8594 22.1347 35.7853 22.0028 35.6534C21.871 35.5216 21.7969 35.3427 21.7969 35.1562V30.9375C21.7969 30.751 21.871 30.5722 22.0028 30.4403C22.1347 30.3085 22.3135 30.2344 22.5 30.2344H23.6208C23.8135 29.5884 24.0727 28.9642 24.3942 28.3718L23.6011 27.578C23.4693 27.4461 23.3952 27.2673 23.3952 27.0809C23.3952 26.8944 23.4693 26.7156 23.6011 26.5837L26.5845 23.6004C26.7163 23.4686 26.8951 23.3945 27.0816 23.3945C27.268 23.3945 27.4468 23.4686 27.5787 23.6004L28.3725 24.3935C28.9647 24.0723 29.5887 23.8133 30.2344 23.6208V22.5C30.2344 22.3135 30.3085 22.1347 30.4403 22.0028C30.5722 21.871 30.751 21.7969 30.9375 21.7969H35.1562C35.3427 21.7969 35.5216 21.871 35.6534 22.0028C35.7853 22.1347 35.8594 22.3135 35.8594 22.5V23.6208C36.3419 23.769 36.8121 23.9548 37.2656 24.1762V19.6875C37.2656 19.501 37.1915 19.3222 37.0597 19.1903C36.9278 19.0585 36.749 18.9844 36.5625 18.9844H20.3252C20.2251 18.9845 20.1261 19.006 20.0349 19.0475C19.9437 19.0889 19.8624 19.1494 19.7965 19.2248L15.2965 24.3689C15.2303 24.4446 15.1487 24.5052 15.0571 24.5467C14.9656 24.5882 14.8662 24.6096 14.7656 24.6094H2.8125C2.62602 24.6094 2.44718 24.6835 2.31532 24.8153C2.18345 24.9472 2.10938 25.126 2.10938 25.3125V35.8594C2.10938 36.0459 2.18345 36.2247 2.31532 36.3566C2.44718 36.4884 2.62602 36.5625 2.8125 36.5625H4.95773C5.13184 34.828 5.94406 33.22 7.23679 32.0505C8.52953 30.8811 10.2106 30.2335 11.9538 30.2335C13.6971 30.2335 15.3781 30.8811 16.6709 32.0505C17.9636 33.22 18.7758 34.828 18.9499 36.5625H23.8718C23.7832 36.3305 23.6932 36.0977 23.6222 35.8594H22.5ZM15.4688 27.4219H7.73438V26.0156H15.4688V27.4219ZM19.6875 21.0938H23.2031V22.5H19.6875V21.0938ZM19.6875 23.9062H23.2031V25.3125H19.6875V23.9062Z" fill="#0EAE60"/>
<path d="M41.9337 31.6406C41.7753 31.6406 41.6216 31.5871 41.4975 31.4889C41.3733 31.3906 41.2859 31.2533 41.2495 31.0992C41.0417 30.2251 40.6952 29.39 40.223 28.6256C40.1397 28.4908 40.1044 28.3319 40.1228 28.1745C40.1412 28.0172 40.2121 27.8706 40.3242 27.7587L41.0013 27.0809L39.0129 25.0924L38.3351 25.7695C38.2231 25.8816 38.0766 25.9526 37.9192 25.971C37.7619 25.9893 37.6029 25.954 37.4681 25.8708C36.7038 25.3986 35.8686 25.052 34.9945 24.8442C34.8404 24.8078 34.7031 24.7204 34.6049 24.5963C34.5066 24.4721 34.4532 24.3184 34.4531 24.1601V23.2031H31.6406V24.1601C31.6406 24.3184 31.5871 24.4721 31.4889 24.5963C31.3906 24.7204 31.2533 24.8078 31.0992 24.8442C30.2251 25.052 29.39 25.3986 28.6256 25.8708C28.4908 25.954 28.3319 25.9893 28.1745 25.971C28.0172 25.9526 27.8706 25.8816 27.7587 25.7695L27.0809 25.0924L25.0924 27.0809L25.7695 27.7587C25.8816 27.8706 25.9526 28.0172 25.971 28.1745C25.9893 28.3319 25.954 28.4908 25.8708 28.6256C25.3986 29.39 25.052 30.2251 24.8442 31.0992C24.8078 31.2533 24.7204 31.3906 24.5963 31.4889C24.4721 31.5871 24.3184 31.6406 24.1601 31.6406H23.2031V34.4531H24.1601C24.3184 34.4532 24.4721 34.5066 24.5963 34.6049C24.7204 34.7031 24.8078 34.8404 24.8442 34.9945C25.052 35.8686 25.3986 36.7038 25.8708 37.4681C25.954 37.6029 25.9893 37.7619 25.971 37.9192C25.9526 38.0766 25.8816 38.2231 25.7695 38.3351L25.0924 39.0129L27.0809 41.0013L27.7587 40.3235C27.8706 40.2114 28.0172 40.1405 28.1745 40.1221C28.3319 40.1037 28.4908 40.139 28.6256 40.2223C29.3894 40.695 30.2244 41.0414 31.0985 41.2481C31.2529 41.2844 31.3904 41.3718 31.4888 41.4962C31.5872 41.6205 31.6407 41.7744 31.6406 41.933V42.8906H34.4531V41.933C34.453 41.7744 34.5065 41.6205 34.6049 41.4962C34.7034 41.3718 34.8409 41.2844 34.9952 41.2481C35.8693 41.0414 36.7044 40.695 37.4681 40.2223C37.6029 40.139 37.7619 40.1037 37.9192 40.1221C38.0766 40.1405 38.2231 40.2114 38.3351 40.3235L39.0129 41.0013L41.0013 39.0129L40.3242 38.3351C40.2121 38.2231 40.1412 38.0766 40.1228 37.9192C40.1044 37.7619 40.1397 37.6029 40.223 37.4681C40.6952 36.7038 41.0417 35.8686 41.2495 34.9945C41.2859 34.8404 41.3733 34.7031 41.4975 34.6049C41.6216 34.5066 41.7753 34.4532 41.9337 34.4531H42.8906V31.6406H41.9337ZM33.0469 38.6719C31.9344 38.6719 30.8468 38.342 29.9218 37.7239C28.9968 37.1058 28.2758 36.2273 27.8501 35.1995C27.4243 34.1716 27.3129 33.0406 27.53 31.9495C27.747 30.8583 28.2827 29.8561 29.0694 29.0694C29.8561 28.2827 30.8583 27.747 31.9495 27.53C33.0406 27.3129 34.1716 27.4243 35.1995 27.8501C36.2273 28.2758 37.1058 28.9968 37.7239 29.9218C38.342 30.8468 38.6719 31.9344 38.6719 33.0469C38.6702 34.5382 38.077 35.968 37.0225 37.0225C35.968 38.077 34.5382 38.6702 33.0469 38.6719Z" fill="#0EAE60"/>
</svg>
