<svg width="35" height="35" viewBox="0 0 35 35" fill="none" xmlns="http://www.w3.org/2000/svg">
<path d="M25.8236 21.9569C25.7211 21.8551 25.5825 21.7979 25.438 21.7979C25.2936 21.7979 25.155 21.8551 25.0525 21.9569L24.6642 22.3452L23.8931 21.5687C23.995 21.4662 24.0521 21.3276 24.0521 21.1831C24.0521 21.0386 23.995 20.9 23.8931 20.7976L22.3455 19.2499C22.2946 19.1986 22.2341 19.158 22.1675 19.1302C22.1009 19.1024 22.0294 19.0881 21.9572 19.0881C21.885 19.0881 21.8135 19.1024 21.7469 19.1302C21.6802 19.158 21.6197 19.1986 21.5689 19.2499L19.9283 17.6093L24.008 13.5241C24.9886 14.0385 26.0922 14.2722 27.1972 14.1995C28.3022 14.1268 29.3657 13.7505 30.2705 13.112C31.1753 12.4736 31.8863 11.5978 32.3252 10.5811C32.7641 9.56437 32.9139 8.44625 32.758 7.3499C32.744 7.24933 32.7024 7.15462 32.6377 7.07639C32.5729 6.99815 32.4877 6.93948 32.3916 6.90693C32.2971 6.87723 32.1963 6.87375 32.1 6.89687C32.0036 6.91999 31.9154 6.96883 31.8447 7.03818L29.165 9.71787L26.0861 8.91396L25.2767 5.85693L27.9564 3.17725C28.0257 3.10652 28.0746 3.01829 28.0977 2.92197C28.1208 2.82565 28.1173 2.72487 28.0876 2.63037C28.0551 2.5342 27.9964 2.44898 27.9182 2.38427C27.84 2.31955 27.7452 2.2779 27.6447 2.26396C26.6213 2.12031 25.5782 2.2427 24.6159 2.61934C23.6536 2.99598 22.8046 3.61416 22.1506 4.4143C21.4966 5.21444 21.0598 6.16955 20.8823 7.18757C20.7047 8.20559 20.7924 9.25218 21.1369 10.2265L16.8384 14.5194L9.03999 6.721L8.68452 4.94912C8.66923 4.87435 8.63847 4.80362 8.5942 4.74145C8.54993 4.67929 8.49314 4.62708 8.42749 4.58818L4.56108 2.26396C4.45661 2.20141 4.33425 2.17551 4.2134 2.19037C4.09254 2.20523 3.9801 2.26 3.8939 2.346L2.34624 3.89365C2.26024 3.97986 2.20547 4.0923 2.19061 4.21315C2.17575 4.33401 2.20165 4.45637 2.26421 4.56084L4.58843 8.42725C4.62733 8.4929 4.67954 8.54969 4.7417 8.59395C4.80386 8.63822 4.8746 8.66899 4.94937 8.68428L6.72124 9.03975L14.5197 16.8382L10.2267 21.1312C9.02338 20.7014 7.71446 20.6659 6.48962 21.0299C5.26479 21.3939 4.18767 22.1384 3.41437 23.1556C2.64106 24.1728 2.21175 25.4099 2.18863 26.6874C2.16552 27.965 2.5498 29.2168 3.28581 30.2613C4.02181 31.3058 5.07129 32.0888 6.28216 32.4969C7.49302 32.9049 8.80237 32.9168 10.0205 32.5309C11.2385 32.1449 12.3021 31.381 13.0569 30.3501C13.8118 29.3191 14.2188 28.0746 14.2189 26.7968C14.2185 25.8267 13.982 24.8714 13.5298 24.0132L17.615 19.9335L19.2556 21.5741C19.2044 21.625 19.1637 21.6854 19.1359 21.7521C19.1081 21.8187 19.0938 21.8902 19.0938 21.9624C19.0938 22.0346 19.1081 22.1061 19.1359 22.1727C19.1637 22.2394 19.2044 22.2998 19.2556 22.3507L20.7814 23.8929C20.8839 23.9947 21.0225 24.0519 21.1669 24.0519C21.3114 24.0519 21.45 23.9947 21.5525 23.8929L22.3291 24.664L21.9408 25.0522C21.8389 25.1547 21.7817 25.2933 21.7817 25.4378C21.7817 25.5823 21.8389 25.7209 21.9408 25.8233L28.1423 32.014C28.6558 32.5274 29.3522 32.8159 30.0783 32.8159C30.8044 32.8159 31.5008 32.5274 32.0142 32.014C32.5277 31.5005 32.8161 30.8041 32.8161 30.078C32.8161 29.3519 32.5277 28.6555 32.0142 28.1421L25.8236 21.9569ZM10.6423 27.453L8.85952 29.2358L6.41499 28.5851L5.76421 26.1405L7.54702 24.3577L9.99155 25.0085L10.6423 27.453ZM20.4095 21.9569L21.9572 20.4093L22.7283 21.1858L21.1861 22.728L20.4095 21.9569Z" fill="#0EAE60"/>
</svg>
