<svg width="35" height="35" viewBox="0 0 35 35" fill="none" xmlns="http://www.w3.org/2000/svg">
<g clip-path="url(#clip0_84_6710)">
<path d="M20.5908 3.9764C20.5908 3.00036 19.7967 2.2063 18.8207 2.2063H16.1793C15.2033 2.2063 14.4092 3.00036 14.4092 3.9764V6.62279H20.5908V3.9764ZM17.7592 13.2805L28.0196 15.9614V9.345C28.0196 8.97477 27.7184 8.67357 27.3482 8.67357H7.65189C7.28166 8.67357 6.98047 8.97477 6.98047 9.345V15.9614L17.2409 13.2805C17.4108 13.2362 17.5893 13.2362 17.7592 13.2805Z" fill="#0EAE60"/>
<path d="M33.9745 30.743C32.8428 30.743 32.3323 30.4888 31.6859 30.1669C31.3825 30.0158 31.0625 29.8565 30.6806 29.7208C30.1505 29.5323 29.5008 29.3894 28.6106 29.3769L32.3649 19.926C32.448 19.7016 32.3816 19.5147 32.3342 19.4229C32.2865 19.3304 32.1714 19.166 31.9367 19.1047L17.4999 15.3325L3.06318 19.1047C2.82844 19.166 2.71339 19.3304 2.66574 19.4229C2.61837 19.5148 2.55186 19.7018 2.63519 19.9263L6.38107 29.377C5.49117 29.3904 4.84217 29.5342 4.31238 29.7234C3.93374 29.8585 3.6158 30.0168 3.31427 30.167C2.66779 30.4888 2.15722 30.7431 1.02539 30.7431C0.459102 30.7431 0 31.2022 0 31.7685C0 32.3348 0.459102 32.7939 1.02539 32.7939C2.63949 32.7939 3.48359 32.3736 4.2283 32.0028C4.51849 31.8584 4.7816 31.7278 5.08546 31.6275C5.45863 31.5042 5.89333 31.4268 6.51718 31.4268C6.65957 31.4268 6.79205 31.4308 6.91633 31.4385C7.77957 31.4919 8.24093 31.7215 8.80605 32.0029C9.55076 32.3737 10.3949 32.794 12.009 32.794C13.623 32.794 14.467 32.3737 15.2118 32.0029C15.8582 31.6811 16.3688 31.4268 17.5005 31.4268C18.6322 31.4268 19.1427 31.681 19.7891 32.0029C20.5338 32.3737 21.3778 32.794 22.9919 32.794C24.6059 32.794 25.4499 32.3737 26.1946 32.0029C26.7615 31.7207 27.2241 31.4905 28.0926 31.4381C28.2227 31.4304 28.353 31.4266 28.4833 31.4268C29.1003 31.4268 29.5322 31.5027 29.9026 31.6237C30.2116 31.7245 30.478 31.8566 30.7719 32.0029C31.5166 32.3737 32.3606 32.794 33.9747 32.794C34.541 32.794 35.0001 32.3349 35.0001 31.7686C35.0001 31.2023 34.5408 30.743 33.9745 30.743ZM8.02006 20.5801L17.2407 18.1708C17.4107 18.1264 17.5892 18.1264 17.7591 18.1708L26.9798 20.5801C27.5277 20.7232 27.8558 21.2835 27.7127 21.8314C27.5922 22.2924 27.1765 22.5978 26.7213 22.5978C26.6336 22.5978 26.5463 22.5865 26.4614 22.5643L17.4999 20.2227L8.5385 22.5643C7.9906 22.7074 7.43032 22.3793 7.28718 21.8314C7.14403 21.2835 7.47216 20.7232 8.02006 20.5801Z" fill="#0EAE60"/>
</g>
<defs>
<clipPath id="clip0_84_6710">
<rect width="35" height="35" fill="white"/>
</clipPath>
</defs>
</svg>
