<svg width="35" height="35" viewBox="0 0 35 35" fill="none" xmlns="http://www.w3.org/2000/svg">
<g clip-path="url(#clip0_84_6685)">
<path d="M34.5363 16.8734L30.6088 13.8916C30.435 13.7593 30.2276 13.6782 30.0101 13.6577C29.7926 13.6372 29.5738 13.678 29.3783 13.7755C29.1827 13.8725 29.0182 14.0223 28.9032 14.2078C28.7882 14.3933 28.7273 14.6073 28.7274 14.8256V16.6501H27.5656V14.8062C27.5656 14.1585 27.0406 13.6334 26.3932 13.6334H24.059V9.27888C24.059 8.63109 23.5339 8.10608 22.8864 8.10608H19.2395V6.86147H20.2212C20.8688 6.86147 21.3939 6.33634 21.3939 5.6888C21.3939 5.04125 20.8688 4.51636 20.2212 4.51636H12.6459C11.9985 4.51636 11.4734 5.04125 11.4734 5.6888C11.4734 6.33634 11.9985 6.86147 12.6459 6.86147H13.6284V8.10608H9.09531C8.44777 8.10608 7.92264 8.63109 7.92264 9.27888V11.5677H5.63263C4.98497 11.5677 4.45996 12.0927 4.45996 12.7403V15.4227H2.345V12.0957C2.345 11.4481 1.81999 10.9231 1.17244 10.9231C0.524889 10.923 0 11.4481 0 12.0955V24.3603C0 25.0079 0.524889 25.5328 1.17256 25.5328C1.82011 25.5328 2.34511 25.0078 2.34511 24.3603V21.0332H4.4602V23.7831C4.4602 24.4307 4.9852 24.9556 5.63287 24.9556H8.58157L12.7185 30.0503C12.8284 30.1857 12.9672 30.2948 13.1246 30.3698C13.2821 30.4447 13.4543 30.4836 13.6286 30.4836H26.3934C27.041 30.4836 27.5659 29.9584 27.5659 29.3109V27.7616H28.7276V29.3109C28.7277 29.5352 28.792 29.7547 28.9129 29.9435C29.0338 30.1324 29.2064 30.2826 29.41 30.3764C29.6138 30.47 29.8402 30.5033 30.0624 30.4722C30.2845 30.4411 30.4931 30.3471 30.6634 30.2011L34.591 26.8349C34.7194 26.7247 34.8224 26.5881 34.8931 26.4344C34.9637 26.2807 35.0003 26.1135 35.0002 25.9444V17.807C35.0001 17.6261 34.9581 17.4478 34.8776 17.2858C34.7971 17.1239 34.6803 16.9827 34.5363 16.8734Z" fill="#0EAE60"/>
</g>
<defs>
<clipPath id="clip0_84_6685">
<rect width="35" height="35" fill="white"/>
</clipPath>
</defs>
</svg>
