<svg width="45" height="45" viewBox="0 0 45 45" fill="none" xmlns="http://www.w3.org/2000/svg">
<path d="M9.57227 10.5468L13.0795 7.55781C13.2756 7.37501 13.5109 7.23949 13.7674 7.16161C14.024 7.08374 14.2949 7.06557 14.5595 7.10851L15.2932 7.22769C15.7106 7.29537 16.1383 7.21037 16.498 6.98827L19.4195 5.18511C19.7799 4.96278 20.2085 4.87803 20.6264 4.94643C21.0443 5.01483 21.4234 5.23179 21.6941 5.55741L25.2569 10.5468H9.57227Z" fill="#0EAE60"/>
<path fill-rule="evenodd" clip-rule="evenodd" d="M4.92188 37.6172C4.92188 37.2442 5.07003 36.8865 5.33376 36.6228C5.59748 36.3591 5.95516 36.2109 6.32812 36.2109H11.5123C9.47672 35.1591 8.08594 33.0349 8.08594 30.5859C8.08594 27.0911 10.9192 24.2578 14.4141 24.2578C17.9089 24.2578 20.7422 27.0911 20.7422 30.5859C20.7422 33.0349 19.3511 35.1591 17.3159 36.2109H27.6841C25.6486 35.1591 24.2578 33.0349 24.2578 30.5859C24.2578 27.0911 27.0911 24.2578 30.5859 24.2578C34.0808 24.2578 36.9141 27.0911 36.9141 30.5859C36.9141 33.0349 35.5229 35.1591 33.4877 36.2109H38.6719C39.0448 36.2109 39.4025 36.3591 39.6662 36.6228C39.93 36.8865 40.0781 37.2442 40.0781 37.6172C40.0781 37.9901 39.93 38.3478 39.6662 38.6116C39.4025 38.8753 39.0448 39.0234 38.6719 39.0234H6.32812C5.95516 39.0234 5.59748 38.8753 5.33376 38.6116C5.07003 38.3478 4.92188 37.9901 4.92188 37.6172ZM14.4141 32.6953C14.9735 32.6953 15.51 32.4731 15.9056 32.0775C16.3012 31.6819 16.5234 31.1454 16.5234 30.5859C16.5234 30.0265 16.3012 29.49 15.9056 29.0944C15.51 28.6988 14.9735 28.4766 14.4141 28.4766C13.8546 28.4766 13.3181 28.6988 12.9225 29.0944C12.5269 29.49 12.3047 30.0265 12.3047 30.5859C12.3047 31.1454 12.5269 31.6819 12.9225 32.0775C13.3181 32.4731 13.8546 32.6953 14.4141 32.6953ZM30.5859 32.6953C31.1454 32.6953 31.6819 32.4731 32.0775 32.0775C32.4731 31.6819 32.6953 31.1454 32.6953 30.5859C32.6953 30.0265 32.4731 29.49 32.0775 29.0944C31.6819 28.6988 31.1454 28.4766 30.5859 28.4766C30.0265 28.4766 29.49 28.6988 29.0944 29.0944C28.6988 29.49 28.4766 30.0265 28.4766 30.5859C28.4766 31.1454 28.6988 31.6819 29.0944 32.0775C29.49 32.4731 30.0265 32.6953 30.5859 32.6953Z" fill="#0EAE60"/>
<path d="M28.5443 10.5469C27.6418 10.5469 26.8944 11.25 26.7987 11.9531H8.59765C8.24058 11.9532 7.89197 12.0619 7.59824 12.265C7.30451 12.468 7.07959 12.7557 6.95339 13.0897L5.27644 17.53C5.17504 17.7985 5.14093 18.0877 5.17709 18.3724C5.21325 18.6571 5.31857 18.9287 5.48386 19.1633L7.81261 22.4684C8.44402 23.3645 9.36054 23.7414 10.3811 23.985C11.5948 23.2417 12.9907 22.8493 14.4139 22.8516C15.4756 22.8503 16.5261 23.0682 17.4997 23.4916C18.4733 23.9151 19.349 24.535 20.0719 25.3125H24.8848L28.8691 13.3594H35.1561C35.529 13.3594 35.8867 13.2112 36.1505 12.9475C36.4142 12.6838 36.5623 12.3261 36.5623 11.9531C36.5623 11.5802 36.4142 11.2225 36.1505 10.9588C35.8867 10.695 35.529 10.5469 35.1561 10.5469H28.5443ZM21.3049 34.1016C21.8442 33.0469 22.1483 31.8516 22.1483 30.5859C22.1483 29.1772 21.7718 27.8564 21.1136 26.7188H23.8861C23.2062 27.894 22.8493 29.2282 22.8514 30.5859C22.8514 31.8516 23.1555 33.0469 23.6948 34.1016H21.3049Z" fill="#0EAE60"/>
<path d="M31.4196 21.0938H32.3435V18.2812C32.3435 17.6286 32.6028 17.0026 33.0643 16.5411C33.5258 16.0796 34.1518 15.8203 34.8045 15.8203H38.1717C38.0348 15.5068 37.8094 15.2401 37.5232 15.0527C37.2369 14.8654 36.9023 14.7656 36.5602 14.7656H29.8826L26.8711 23.8004C27.3708 23.5262 27.8994 23.3084 28.4471 23.1511C28.9175 21.9407 30.1093 21.0938 31.4196 21.0938ZM38.3201 30.5859C38.3201 31.7939 38.0434 32.9368 37.5495 33.9553C38.9982 33.5229 40.0554 32.182 40.0586 30.593L40.0744 24.2613C40.0748 24.0302 40.0297 23.8012 39.9416 23.5876C39.8535 23.3739 39.724 23.1797 39.5608 23.0161C39.3975 22.8525 39.2036 22.7227 38.9901 22.6341C38.7766 22.5456 38.5477 22.5 38.3166 22.5H31.4196C31.0276 22.5 30.708 22.6266 30.4099 22.8516C34.6902 22.7292 38.3201 26.3246 38.3201 30.5859Z" fill="#0EAE60"/>
<path d="M38.3175 17.2266L38.3126 21.0938H33.75V18.2812C33.75 18.0015 33.8611 17.7333 34.0589 17.5355C34.2567 17.3377 34.525 17.2266 34.8047 17.2266H38.3175Z" fill="#0EAE60"/>
</svg>
