<svg width="35" height="35" viewBox="0 0 35 35" fill="none" xmlns="http://www.w3.org/2000/svg">
<path d="M27.113 13.2838C27.0186 13.1656 26.9041 13.1888 26.8442 13.2129C26.7939 13.2333 26.6788 13.2984 26.6947 13.4615C26.7139 13.6573 26.7246 13.857 26.7267 14.0551C26.7352 14.8766 26.4057 15.6815 25.8225 16.2633C25.2431 16.8413 24.4811 17.1528 23.6696 17.1437C22.5613 17.1296 21.642 16.5515 21.0111 15.4719C20.4894 14.5792 20.7187 13.4278 20.9614 12.2087C21.1035 11.4952 21.2504 10.7573 21.2504 10.0551C21.2504 4.58708 17.5744 1.43243 15.3833 0.0386523C15.3379 0.00987304 15.2948 -0.000244141 15.2566 -0.000244141C15.1944 -0.000244141 15.1452 0.0265527 15.121 0.042959C15.0739 0.0748145 14.9987 0.147412 15.0229 0.275928C15.8604 4.72353 13.3623 7.3985 10.7175 10.2305C7.99128 13.1496 4.90137 16.4583 4.90137 22.4255C4.90137 29.3591 10.5422 34.9999 17.4757 34.9999C23.1846 34.9999 28.2179 31.0197 29.7158 25.3209C30.7372 21.4351 29.6669 16.4854 27.113 13.2838ZM17.7894 32.3159C16.0532 32.3951 14.4021 31.7724 13.1409 30.5665C11.8933 29.3735 11.1777 27.7086 11.1777 25.9987C11.1777 22.7898 12.4046 20.4342 15.7046 17.3068C15.7586 17.2556 15.8139 17.2394 15.8621 17.2394C15.9058 17.2394 15.9437 17.2528 15.9697 17.2653C16.0246 17.2917 16.1148 17.3572 16.1027 17.4989C15.9847 18.8719 15.9867 20.0115 16.1087 20.8862C16.4204 23.1205 18.056 24.6218 20.1789 24.6218C21.2198 24.6218 22.2112 24.2301 22.9706 23.5188C22.9999 23.4906 23.0357 23.4701 23.0748 23.4589C23.1139 23.4477 23.1551 23.4463 23.1949 23.4547C23.2449 23.4655 23.3118 23.4962 23.3468 23.5807C23.6617 24.341 23.8226 25.1479 23.8251 25.9791C23.8351 29.3236 21.1276 32.1663 17.7894 32.3159Z" fill="#0EAE60"/>
</svg>
