<svg width="35" height="35" viewBox="0 0 35 35" fill="none" xmlns="http://www.w3.org/2000/svg">
<g clip-path="url(#clip0_82_6655)">
<path d="M31.4347 5.12864L27.5707 1.27397L24.976 3.85931L21.112 0.00463867H13.3933L0.532 12.8566C-0.177333 13.566 -0.177333 14.714 0.532 15.4326L10.8267 25.7086C11.536 26.418 12.6933 26.418 13.4027 25.7086L30.128 8.99264L28.84 7.71397L31.4347 5.12864ZM12.1053 11.5686L9.52 8.99264L14.6813 3.84997H19.8427L12.1053 11.5686ZM29.7453 19.2313C29.7453 19.2313 24.4907 26.838 24.4907 29.7406C24.4907 32.6433 26.8427 34.9953 29.7453 34.9953C32.648 34.9953 35 32.6433 35 29.7406C35 26.838 29.7453 19.2313 29.7453 19.2313ZM31.5 12.2406C31.5 12.2406 29.7547 14.77 29.7547 15.7406C29.7547 16.7113 30.5387 17.4953 31.5 17.4953C32.4613 17.4953 33.2453 16.7113 33.2453 15.7406C33.2453 14.77 31.5 12.2406 31.5 12.2406Z" fill="#0EAE60"/>
</g>
<defs>
<clipPath id="clip0_82_6655">
<rect width="35" height="35" fill="white"/>
</clipPath>
</defs>
</svg>
