<svg width="45" height="45" viewBox="0 0 45 45" fill="none" xmlns="http://www.w3.org/2000/svg">
<path d="M9.66238 20.5383C9.62301 20.693 9.67645 38.565 9.65535 38.726C9.65703 39.6437 10.0224 40.5232 10.6713 41.1721C11.3202 41.8209 12.1999 42.186 13.1175 42.1875H31.891C32.8087 42.186 33.6884 41.8207 34.3372 41.1718C34.9861 40.5228 35.3512 39.643 35.3525 38.7253V11.5875L9.66238 20.5383ZM31.9789 36.6103C31.9789 37.1586 31.7611 37.6844 31.3734 38.072C30.9857 38.4597 30.4599 38.6775 29.9117 38.6775H14.2664C13.7182 38.6775 13.1924 38.4597 12.8047 38.072C12.4171 37.6844 12.1993 37.1586 12.1993 36.6103V22.7348C12.1977 22.3017 12.333 21.8791 12.5857 21.5273C12.8385 21.1756 13.1959 20.9126 13.6069 20.7759L20.9461 18.3066C21.2064 18.2201 21.4812 18.1861 21.7548 18.2064C22.0283 18.2268 22.295 18.301 22.5397 18.425C22.7844 18.5489 23.0021 18.72 23.1803 18.9285C23.3585 19.137 23.4936 19.3787 23.5779 19.6397L27.4416 31.815C27.4854 31.9592 27.5745 32.0854 27.6957 32.1748C27.817 32.2642 27.9638 32.3121 28.1145 32.3114H29.9103C30.1818 32.3113 30.4507 32.3647 30.7016 32.4686C30.9525 32.5724 31.1804 32.7247 31.3725 32.9166C31.5645 33.1086 31.7168 33.3365 31.8207 33.5874C31.9247 33.8382 31.9782 34.1071 31.9782 34.3786L31.9789 36.6103ZM31.9585 30.8018C31.4009 30.9537 29.7781 30.0945 29.2374 29.9306C29.0476 29.859 28.877 29.7443 28.739 29.5956C28.601 29.4468 28.4994 29.2681 28.4422 29.0735L25.4764 18.6265C25.3948 18.3073 25.4408 17.9689 25.6047 17.6832C25.7685 17.3974 26.0372 17.1867 26.3539 17.0958L31.19 15.5384C31.3926 15.4686 31.6086 15.4461 31.8212 15.4727C32.0339 15.4993 32.2377 15.5743 32.4169 15.6918C32.5961 15.8094 32.746 15.9665 32.8551 16.151C32.9642 16.3355 33.0295 16.5425 33.0462 16.7562L33.1214 29.5362C33.1136 29.8522 32.9914 30.1546 32.7776 30.3873C32.5637 30.6201 32.2727 30.7673 31.9585 30.8018ZM35.0192 10.2607C34.5671 9.43734 34.2626 8.08523 33.1214 7.99523L30.8771 7.73016C29.8034 7.16063 28.5666 6.70641 27.4486 7.45805L20.9398 11.5594C20.9114 11.5752 20.8786 11.5812 20.8465 11.5762C20.8144 11.5712 20.7849 11.5556 20.7626 11.532C19.7972 10.414 19.7136 10.1173 19.722 9.42398C18.7896 9.52312 13.9648 9.43805 12.9411 9.46477C12.4839 9.49425 12.025 9.45298 11.5805 9.34242C11.3794 10.4913 9.82903 18.0717 9.74395 19.0688L35.0192 10.2607ZM12.1451 8.0768C12.1184 8.13375 19.2256 8.09367 19.2115 8.10422C19.6858 8.10366 20.1405 7.91505 20.476 7.57973C20.8114 7.24442 21.0002 6.78977 21.001 6.31547V4.60125C21.0004 4.12702 20.8118 3.67236 20.4764 3.33703C20.1411 3.00169 19.6865 2.81306 19.2122 2.8125H12.451C11.9767 2.81306 11.5221 3.00169 11.1868 3.33703C10.8514 3.67236 10.6628 4.12702 10.6622 4.60125V6.31547C10.6617 6.73698 10.8103 7.14508 11.0819 7.46747C11.3534 7.78986 11.7296 8.00571 12.1451 8.0768Z" fill="#0EAE60"/>
<path d="M29.9108 33.6719H28.115C27.6757 33.6722 27.2477 33.5326 26.8931 33.2733C26.5385 33.014 26.2756 32.6485 26.1427 32.2298L22.2797 20.0545C22.2531 19.9644 22.2078 19.881 22.1469 19.8096C22.086 19.7381 22.0107 19.6802 21.9261 19.6396C21.8437 19.594 21.7524 19.5667 21.6584 19.5597C21.5645 19.5526 21.4701 19.566 21.3818 19.5989L14.0426 22.0612C13.9016 22.1086 13.7791 22.1991 13.6924 22.32C13.6057 22.4409 13.5592 22.586 13.5596 22.7348V36.6103C13.559 36.7033 13.5769 36.7955 13.6123 36.8816C13.6476 36.9677 13.6997 37.0459 13.7655 37.1117C13.8313 37.1775 13.9095 37.2296 13.9956 37.2649C14.0816 37.3003 14.1739 37.3182 14.2669 37.3176H29.9115C30.0044 37.3181 30.0966 37.3001 30.1826 37.2647C30.2686 37.2293 30.3467 37.1772 30.4124 37.1114C30.4781 37.0456 30.5302 36.9675 30.5655 36.8814C30.6008 36.7954 30.6187 36.7032 30.6181 36.6103V34.3792C30.6187 34.2862 30.6007 34.194 30.5654 34.1079C30.53 34.0218 30.478 33.9436 30.4122 33.8778C30.3464 33.812 30.2682 33.76 30.1821 33.7246C30.096 33.6893 30.0038 33.6713 29.9108 33.6719ZM19.4293 32.8352C18.68 32.835 17.9614 32.5377 17.431 32.0085C16.9007 31.4793 16.6018 30.7614 16.5999 30.0121C16.5999 27.5639 18.9132 25.7477 19.0144 25.6732C19.1329 25.5807 19.2789 25.5304 19.4293 25.5304C19.5796 25.5304 19.7256 25.5807 19.8441 25.6732C19.9468 25.7477 22.2593 27.5639 22.2593 30.0121C22.2575 30.7615 21.9585 31.4795 21.428 32.0088C20.8974 32.538 20.1786 32.8352 19.4293 32.8352Z" fill="#0EAE60"/>
<path d="M17.9607 30.0122C17.9691 30.3962 18.1275 30.7618 18.4022 31.0304C18.6768 31.2991 19.0457 31.4495 19.4298 31.4495C19.814 31.4495 20.1829 31.2991 20.4575 31.0304C20.7321 30.7618 20.8906 30.3962 20.899 30.0122C20.7876 28.8991 20.2633 27.8681 19.4295 27.1223C18.5982 27.87 18.0744 28.8999 17.96 30.0122H17.9607Z" fill="#0EAE60"/>
</svg>
