<svg width="35" height="35" viewBox="0 0 35 35" fill="none" xmlns="http://www.w3.org/2000/svg">
<g clip-path="url(#clip0_82_6668)">
<path fill-rule="evenodd" clip-rule="evenodd" d="M31.3298 32.0884H3.67018C1.6403 32.0884 0 30.4481 0 28.4182C0 26.4089 1.6403 24.7686 3.67018 24.7686H31.3298C33.3392 24.7686 35 26.4089 35 28.4182C35 30.4481 33.3392 32.0884 31.3298 32.0884ZM4.08026 30.5916C2.89104 30.5916 1.92736 29.628 1.92736 28.4182C1.92736 27.229 2.89104 26.2653 4.08026 26.2653C5.26948 26.2653 6.23316 27.229 6.23316 28.4182C6.23316 29.628 5.26948 30.5916 4.08026 30.5916ZM4.08026 27.0855C2.31693 27.0855 2.31693 29.7715 4.08026 29.7715C5.84359 29.7715 5.84359 27.0855 4.08026 27.0855ZM9.45226 30.5916C8.26303 30.5916 7.27885 29.628 7.27885 28.4182C7.27885 27.229 8.24253 26.2653 9.45226 26.2653C10.6415 26.2653 11.6052 27.229 11.6052 28.4182C11.6052 29.628 10.6415 30.5916 9.45226 30.5916ZM9.45226 27.0855C7.68893 27.0855 7.68893 29.7715 9.45226 29.7715C11.2156 29.7715 11.2156 27.0855 9.45226 27.0855ZM14.8037 30.5916C13.6145 30.5916 12.6508 29.628 12.6508 28.4182C12.6508 27.229 13.6145 26.2653 14.8037 26.2653C15.993 26.2653 16.9772 27.229 16.9772 28.4182C16.9772 29.628 15.993 30.5916 14.8037 30.5916ZM14.8037 27.0855C13.0404 27.0855 13.0404 29.7715 14.8037 29.7715C16.5671 29.7715 16.5671 27.0855 14.8037 27.0855ZM20.1757 30.5916C18.9865 30.5916 18.0023 29.628 18.0023 28.4182C18.0023 27.229 18.9865 26.2653 20.1757 26.2653C21.365 26.2653 22.3286 27.229 22.3286 28.4182C22.3286 29.628 21.365 30.5916 20.1757 30.5916ZM20.1757 27.0855C18.4124 27.0855 18.4124 29.7715 20.1757 29.7715C21.9391 29.7715 21.9391 27.0855 20.1757 27.0855ZM25.5477 30.5916C24.338 30.5916 23.3743 29.628 23.3743 28.4182C23.3743 27.229 24.338 26.2653 25.5477 26.2653C26.737 26.2653 27.7006 27.229 27.7006 28.4182C27.7006 29.628 26.737 30.5916 25.5477 30.5916ZM25.5477 27.0855C23.7639 27.0855 23.7844 29.7715 25.5477 29.7715C27.3111 29.7715 27.3111 27.0855 25.5477 27.0855ZM30.9197 30.5916C29.7305 30.5916 28.7463 29.628 28.7463 28.4182C28.7463 27.229 29.71 26.2653 30.9197 26.2653C32.109 26.2653 33.0726 27.229 33.0726 28.4182C33.0726 29.628 32.109 30.5916 30.9197 30.5916ZM30.9197 27.0855C29.1564 27.0855 29.1564 29.7715 30.9197 29.7715C32.6831 29.7715 32.6831 27.0855 30.9197 27.0855Z" fill="#0EAE60"/>
<path fill-rule="evenodd" clip-rule="evenodd" d="M10.9078 25.5886H3.99797C3.77242 25.5886 3.58789 25.4041 3.58789 25.1786V19.3965C3.58789 19.1709 3.77242 18.9864 3.99797 18.9864H10.9078C11.1333 18.9864 11.3178 19.1709 11.3178 19.3965V25.1786C11.3178 25.4041 11.1333 25.5886 10.9078 25.5886ZM19.0068 25.5886H12.097C11.8714 25.5886 11.6869 25.4041 11.6869 25.1786V19.3965C11.6869 19.1709 11.8714 18.9864 12.097 18.9864H19.0068C19.2323 18.9864 19.4168 19.1709 19.4168 19.3965V25.1786C19.4168 25.4041 19.2323 25.5886 19.0068 25.5886ZM26.7777 18.9044C24.1737 18.9044 24.4608 19.1914 24.4608 17.4691C24.2147 17.4281 23.9687 17.3461 23.7226 17.2641C22.8615 18.7609 23.251 18.6788 20.9956 17.3666C20.5035 17.0795 21.0161 16.4849 21.3647 15.9108C21.1597 15.7468 20.9956 15.5623 20.8316 15.3777C19.3143 16.2389 19.7244 16.3414 18.4121 14.086C18.1251 13.5939 18.8837 13.3479 19.4578 12.9993C19.3758 12.7532 19.3143 12.5072 19.2733 12.2612C17.5305 12.2612 17.8175 12.5687 17.8175 9.94423C17.8175 9.39062 18.5967 9.53415 19.2733 9.53415C19.3143 9.2881 19.3758 9.04206 19.4578 8.79601C17.9611 7.93485 18.0636 8.34493 19.3758 6.06901C19.6424 5.59742 20.2575 6.11001 20.8316 6.43807C20.9956 6.25354 21.1802 6.06901 21.3647 5.90498C20.5035 4.38769 20.3805 4.79777 22.6564 3.48553C23.128 3.21898 23.3946 3.95711 23.7226 4.53122C23.9687 4.44921 24.2147 4.38769 24.4608 4.34669C24.4608 2.60386 24.1737 2.89092 26.7777 2.89092C27.3518 2.89092 27.1878 3.67006 27.1878 4.34669C27.4543 4.38769 27.7004 4.44921 27.9259 4.53122C28.7871 3.03444 28.3975 3.13696 30.6734 4.44921C31.145 4.71575 30.6324 5.33087 30.3044 5.90498C30.4889 6.06901 30.6734 6.25354 30.8375 6.43807C32.3342 5.57691 31.9447 5.45389 33.2569 7.72981C33.5235 8.22191 32.7648 8.46795 32.1907 8.79601C32.2727 9.04206 32.3547 9.2881 32.3957 9.53415C34.1181 9.53415 33.831 9.2471 33.831 11.8511C33.831 12.4047 33.0724 12.2612 32.3957 12.2612C32.3547 12.5072 32.2727 12.7532 32.1907 12.9993C33.708 13.881 33.6055 13.4709 32.2932 15.7263C32.0062 16.2184 31.4116 15.7058 30.8375 15.3777C30.6734 15.5623 30.4889 15.7468 30.3044 15.9108C31.1655 17.4076 31.268 16.9975 29.0126 18.3098C28.541 18.5968 28.2745 17.8587 27.9259 17.2641C27.7004 17.3461 27.4543 17.4076 27.1878 17.4691C27.1878 18.1252 27.3313 18.9044 26.7777 18.9044ZM25.814 14.7421C23.7021 14.7421 21.9798 13.0198 21.9798 10.9079C21.9798 8.79601 23.7021 7.07369 25.814 7.07369C27.9464 7.07369 29.6687 8.77551 29.6687 10.9079C29.6687 13.0198 27.9464 14.7421 25.814 14.7421Z" fill="#0EAE60"/>
</g>
<defs>
<clipPath id="clip0_82_6668">
<rect width="35" height="35" fill="white"/>
</clipPath>
</defs>
</svg>
