<svg width="45" height="45" viewBox="0 0 45 45" fill="none" xmlns="http://www.w3.org/2000/svg">
<path d="M33.0469 26.4551C33.5039 26.4551 33.9275 26.2182 34.1683 25.8294C34.409 25.4406 34.4309 24.9552 34.2262 24.5471L31.5895 19.2736C31.4799 19.0547 31.3116 18.8705 31.1033 18.7418C30.895 18.6131 30.655 18.545 30.4102 18.5449H14.5898C14.345 18.545 14.105 18.6131 13.8967 18.7418C13.6884 18.8705 13.5201 19.0547 13.4105 19.2736L10.7738 24.5471C10.5691 24.9552 10.591 25.4406 10.8317 25.8294C11.0725 26.2182 11.4961 26.4551 11.9531 26.4551H33.0469ZM10.6348 33.1348C10.6348 33.4849 10.7738 33.8197 11.021 34.0668L13.6578 36.7036C13.7801 36.826 13.9254 36.9232 14.0853 36.9895C14.2453 37.0558 14.4167 37.0899 14.5898 37.0898H30.4102C30.7603 37.0898 31.0951 36.9508 31.3422 36.7036L33.979 34.0668C34.1014 33.9445 34.1986 33.7992 34.2649 33.6393C34.3312 33.4793 34.3653 33.3079 34.3652 33.1348V30.4102C34.3652 29.6815 33.7756 29.0918 33.0469 29.0918H11.9531C11.2244 29.0918 10.6348 29.6815 10.6348 30.4102V33.1348ZM7.99805 43.6816C7.99805 44.4103 8.58771 45 9.31641 45H35.6836C36.4123 45 37.002 44.4103 37.002 43.6816C37.002 42.9529 36.4123 42.3633 35.6836 42.3633H29.0918V39.7266H15.9082V42.3633H9.31641C8.58771 42.3633 7.99805 42.9529 7.99805 43.6816ZM7.99805 1.31836C7.99805 2.04706 8.58771 2.63672 9.31641 2.63672H15.9082V11.9531C15.9082 12.6818 16.4979 13.2715 17.2266 13.2715H18.5449V15.9082H26.4551V13.2715H27.7734C28.5021 13.2715 29.0918 12.6818 29.0918 11.9531V10.6348H31.7285V11.9531C31.7285 12.6818 32.3182 13.2715 33.0469 13.2715C33.7756 13.2715 34.3652 12.6818 34.3652 11.9531V6.67969C34.3652 5.95099 33.7756 5.36133 33.0469 5.36133C32.3182 5.36133 31.7285 5.95099 31.7285 6.67969V7.99805H29.0918V2.63672H35.6836C36.4123 2.63672 37.002 2.04706 37.002 1.31836C37.002 0.589658 36.4123 0 35.6836 0H9.31641C8.58771 0 7.99805 0.589658 7.99805 1.31836Z" fill="#0EAE60"/>
</svg>
