<svg width="35" height="35" viewBox="0 0 35 35" fill="none" xmlns="http://www.w3.org/2000/svg">
<path d="M6.35742 3.4825V4.34082H12.5098V3.4825C12.9431 3.36267 13.2617 2.96659 13.2617 2.49512C13.2617 1.92883 12.8026 1.46973 12.2363 1.46973H6.63086C6.06457 1.46973 5.60547 1.92883 5.60547 2.49512C5.60547 2.96659 5.92409 3.36273 6.35742 3.4825ZM9.46777 33.5303C11.0251 33.5303 12.3343 32.4508 12.6883 31.001H6.24729C6.60126 32.4507 7.91048 33.5303 9.46777 33.5303ZM33.9746 6.3916H5.12695C4.56066 6.3916 4.10156 6.8507 4.10156 7.41699V22.7979H35V7.41699C35 6.8507 34.5409 6.3916 33.9746 6.3916ZM14.8079 15.7419L13.4351 19.6023C13.2857 20.0223 12.8906 20.2843 12.469 20.2843C12.3519 20.2843 12.2357 20.2642 12.1254 20.2248C11.5918 20.035 11.3131 19.4487 11.5029 18.9151L12.3889 16.4237H10.9566C10.7859 16.4237 10.6178 16.3811 10.4677 16.2996C10.3176 16.2182 10.1902 16.1006 10.097 15.9574C10.0039 15.8143 9.94804 15.6501 9.93446 15.4799C9.92089 15.3096 9.95005 15.1387 10.0193 14.9826L11.5881 11.4447C11.8176 10.9269 12.4236 10.6935 12.9411 10.9229C13.4588 11.1525 13.6924 11.7583 13.4628 12.276L12.533 14.3728H13.8418C14.006 14.3728 14.1678 14.4123 14.3136 14.4878C14.4594 14.5634 14.5849 14.6729 14.6796 14.807C14.7743 14.9412 14.8353 15.0961 14.8577 15.2588C14.88 15.4215 14.863 15.5872 14.8079 15.7419ZM29.873 20.7471H20.5762C20.0099 20.7471 19.5508 20.288 19.5508 19.7217C19.5508 19.1554 20.0099 18.6963 20.5762 18.6963H29.873C30.4393 18.6963 30.8984 19.1554 30.8984 19.7217C30.8984 20.288 30.4393 20.7471 29.873 20.7471ZM29.873 16.6454H20.5762C20.0099 16.6454 19.5508 16.1863 19.5508 15.62C19.5508 15.0538 20.0099 14.5947 20.5762 14.5947H29.873C30.4393 14.5947 30.8984 15.0538 30.8984 15.62C30.8984 16.1863 30.4393 16.6454 29.873 16.6454ZM29.873 12.5439H20.5762C20.0099 12.5439 19.5508 12.0848 19.5508 11.5186C19.5508 10.9523 20.0099 10.4932 20.5762 10.4932H29.873C30.4393 10.4932 30.8984 10.9523 30.8984 11.5186C30.8984 12.0848 30.4393 12.5439 29.873 12.5439ZM4.10156 27.9248C4.10156 28.4911 4.56066 28.9502 5.12695 28.9502H33.9746C34.5409 28.9502 35 28.4911 35 27.9248V24.8486H4.10156V27.9248ZM29.6338 33.5303C31.1911 33.5303 32.5003 32.4508 32.8543 31.001H26.4133C26.7673 32.4507 28.0765 33.5303 29.6338 33.5303ZM0 14.6289V22.5586C0 23.7618 0.89291 24.76 2.05078 24.9264V11.0002C0.822705 11.7433 0 13.0917 0 14.6289Z" fill="#0EAE60"/>
</svg>
