<svg width="35" height="35" viewBox="0 0 35 35" fill="none" xmlns="http://www.w3.org/2000/svg">
<g clip-path="url(#clip0_85_6715)">
<path d="M6.01562 2.05078H8.20312V15.3125C8.20312 16.5206 9.18251 17.5 10.3906 17.5C11.5987 17.5 12.5781 16.5206 12.5781 15.3125V2.05078H14.7656C15.3319 2.05078 15.791 1.59168 15.791 1.02539C15.791 0.459102 15.3319 0 14.7656 0H6.01562C5.44934 0 4.99023 0.459102 4.99023 1.02539C4.99023 1.59168 5.44934 2.05078 6.01562 2.05078ZM33.9746 29.3262H22.7637C22.1974 29.3262 21.7383 29.7853 21.7383 30.3516V31.7871C21.7383 33.5587 23.1796 35 24.9512 35H31.7871C33.5587 35 35 33.5587 35 31.7871V30.3516C35 29.7853 34.5409 29.3262 33.9746 29.3262Z" fill="#0EAE60"/>
<path d="M18.5938 4.99023C18.0275 4.99023 17.5684 5.44934 17.5684 6.01562V6.08398H14.6289V15.3125C14.6289 17.6494 12.7276 19.5508 10.3906 19.5508C8.05369 19.5508 6.15234 17.6494 6.15234 15.3125V6.61186C2.57168 7.88156 0 11.3021 0 15.3125C0 20.4012 4.13991 24.541 9.22852 24.541H17.5684V24.6094C17.5684 25.1757 18.0275 25.6348 18.5938 25.6348C19.16 25.6348 19.6191 25.1757 19.6191 24.6094V6.01562C19.6191 5.44934 19.16 4.99023 18.5938 4.99023ZM24.5806 27.2754H32.4259C32.075 24.5327 30.8106 21.9883 28.8405 20.0784C26.8596 18.158 24.3297 17.0506 21.6699 16.9285V22.8653C23.1339 23.3031 24.4617 24.312 24.5806 27.2754Z" fill="#0EAE60"/>
</g>
<defs>
<clipPath id="clip0_85_6715">
<rect width="35" height="35" fill="white"/>
</clipPath>
</defs>
</svg>
