<svg width="35" height="35" viewBox="0 0 35 35" fill="none" xmlns="http://www.w3.org/2000/svg">
<g clip-path="url(#clip0_82_6663)">
<path d="M9.54466 1.64391V2.75755C9.54466 3.23482 9.22647 3.65906 8.7492 3.81815V4.0833C8.59011 4.03027 8.43102 3.97724 8.2189 3.97724H5.14314C4.93102 3.97724 4.77193 4.03027 4.61284 4.0833V3.81815C4.18859 3.65906 3.81738 3.23482 3.81738 2.75755V1.64391C3.87041 1.06058 4.34769 0.530273 4.98405 0.530273H8.43102C9.01435 0.530273 9.54466 1.06058 9.54466 1.64391ZM6.68102 24.3939C7.10526 24.3939 7.47647 24.0227 7.47647 23.5985C7.47647 23.3333 7.10526 22.5378 6.68102 21.6894C6.25678 22.4848 5.88557 23.3333 5.88557 23.5985C5.88557 24.0757 6.25678 24.3939 6.68102 24.3939Z" fill="#0EAE60"/>
<path d="M0.689039 28.053H12.7269V17.5H0.689039V28.053ZM6.25722 20.4166C6.36328 20.2575 6.52237 20.1515 6.68146 20.1515C6.84055 20.1515 7.05268 20.2575 7.10571 20.4166C7.42389 20.9469 8.48449 22.856 8.48449 23.6515C8.48449 24.6591 7.68904 25.4545 6.68146 25.4545C5.67389 25.4545 4.87843 24.6591 4.87843 23.6515C4.87843 22.803 5.88601 20.9469 6.25722 20.4166ZM12.7269 12.6742C12.9921 8.74997 11.5603 6.15149 8.43146 5.09088C8.37843 5.09088 8.3254 5.03785 8.27237 5.03785H5.14358C5.09055 5.03785 4.98449 5.03785 4.93146 5.09088C1.48449 6.46967 0.0526753 9.01512 0.689039 12.7272C0.689039 12.7803 0.742069 12.8863 0.7951 12.9394C1.80268 14.3182 1.53752 14.9015 0.7951 16.0151C0.689039 16.1742 0.742069 16.3863 0.689039 16.5454H12.7269C12.7269 16.3863 12.7799 16.2803 12.6739 16.0682C11.9315 14.5833 11.7193 14.053 12.6209 12.9924C12.6739 12.8333 12.6739 12.7272 12.7269 12.6742ZM0.689039 32.3485C0.7951 32.6136 0.954191 33.1439 1.21934 33.5682C1.53752 34.0985 1.96177 34.4697 2.59813 34.4697C3.23449 34.4697 3.92389 34.0454 4.77237 33.0909C5.09055 33.5682 5.40874 33.8863 5.72692 34.1515C6.0451 34.3636 6.36328 34.4697 6.73449 34.4697C7.37086 34.4697 7.95419 34.0454 8.43146 33.1969C9.17389 34.0454 9.81025 34.4697 10.4996 34.4697C11.3481 34.4697 12.0906 33.7803 12.6209 32.4015C12.6739 32.2424 12.6209 32.4015 12.6739 29.0606H0.689039C0.689039 32.4015 0.636009 32.1894 0.689039 32.3485ZM24.3406 4.29543H19.3027C19.1966 4.29543 19.0906 4.34846 18.9845 4.40149C16.4921 6.31058 15.0072 9.3333 15.0072 12.4621V32.3485C15.0072 33.5151 15.9618 34.5227 17.1815 34.5227H32.3481C33.5148 34.5227 34.5224 33.5682 34.5224 32.3485V18.0303C34.4693 11.6666 30.386 6.15149 24.3406 4.29543ZM23.333 8.16664C24.7118 6.99997 27.4163 9.38633 28.636 10.8182C29.8557 12.25 31.8178 15.2727 30.4921 16.4924C29.1133 17.6591 26.4087 15.2727 25.189 13.8409C23.386 11.7727 22.2193 9.17421 23.333 8.16664ZM31.0754 30.5454C31.0754 30.8106 30.8633 31.0757 30.5451 31.0757H18.8784C18.6133 31.0757 18.3481 30.8636 18.3481 30.5454V23.3863C18.3481 23.1212 18.5603 22.856 18.8784 22.856H30.5451C30.8103 22.856 31.0754 23.0682 31.0754 23.3863V30.5454ZM19.4087 30.0682H30.0148V23.8636H19.4087V30.0682ZM24.7118 1.06058V3.34088H24.6587C24.4996 3.28785 24.3406 3.28785 24.1815 3.28785H19.3027C19.1436 3.28785 18.9315 3.34088 18.7724 3.39391V1.06058C18.7724 0.795425 18.9845 0.530273 19.3027 0.530273H24.1815C24.4466 0.530273 24.7118 0.742395 24.7118 1.06058Z" fill="#0EAE60"/>
</g>
<defs>
<clipPath id="clip0_82_6663">
<rect width="35" height="35" fill="white"/>
</clipPath>
</defs>
</svg>
