<svg width="45" height="45" viewBox="0 0 45 45" fill="none" xmlns="http://www.w3.org/2000/svg">
<path d="M26.5779 21.0536V2.63153H31.8414V0H21.9976L16.7345 5.26351H3.57568L3.1901 5.64899C-0.380101 9.21823 -0.975472 16.3871 1.51429 21.0536H26.5779ZM17.2794 9.21103H19.9109V17.1061H17.2794V9.21103ZM12.0159 9.21103H14.6474V17.1061H12.0159V9.21103ZM6.7524 9.21103H9.38402V17.1061H6.7524V9.21103ZM44.4973 18.4221L43.1817 15.7904H37.1049V18.4221H44.4973Z" fill="#0EAE60"/>
<path d="M34.4735 13.1585H41.8662L39.2346 7.89502H29.21V27.6666C30.313 26.8317 31.6709 26.3171 33.1578 26.3171C36.3346 26.3171 38.9926 28.5812 39.6037 31.5805H45.0004V26.3171H42.3689V23.6854H45.0004V21.0536H34.4735V13.1585Z" fill="#0EAE60"/>
<path d="M37.1045 32.8966C37.1045 35.0766 35.337 36.844 33.1569 36.844C30.9765 36.844 29.2091 35.0765 29.2091 32.8965C29.2091 30.7164 30.9765 28.949 33.1569 28.949C35.337 28.949 37.1045 30.7165 37.1045 32.8965V32.8966ZM14.647 32.8966C14.647 35.0766 12.8795 36.844 10.6995 36.844C8.51935 36.844 6.75195 35.0765 6.75195 32.8965C6.75195 30.7164 8.51943 28.949 10.6995 28.949C12.8796 28.949 14.647 30.7165 14.647 32.8965V32.8966Z" fill="#0EAE60"/>
<path d="M17.1467 31.5806H26.5784V23.6855H0.0859375V31.5806H4.25415C4.86561 28.5813 7.52333 26.3172 10.7004 26.3172C13.8776 26.3172 16.5352 28.5813 17.1467 31.5806Z" fill="#0EAE60"/>
</svg>
