<svg width="45" height="45" viewBox="0 0 45 45" fill="none" xmlns="http://www.w3.org/2000/svg">
<path d="M43.1589 6.47724C43.7044 6.13633 44.1135 5.52269 44.2498 4.84087C44.3862 4.15905 44.2498 3.47724 43.9089 2.93178C43.1589 1.77269 41.5226 1.43178 40.3635 2.18178L20.1816 15.3409H15.7498C15.4089 15.3409 15.068 15.6136 15.068 16.0227V22.1591H7.56801C5.52255 22.1591 3.88619 23.7954 3.88619 25.8409V28.1591C3.88619 30.2045 5.52255 31.8409 7.56801 31.8409H7.63619V33.3409H5.45437C2.79528 33.3409 0.681641 35.4545 0.681641 38.1136V38.5227C0.681641 41.1818 2.79528 43.2954 5.45437 43.2954H26.6589C29.2498 43.2954 31.4316 41.1818 31.4316 38.5227V38.1136C31.4316 35.4545 29.318 33.3409 26.6589 33.3409H24.6816V31.8409H27.5453C27.7498 31.8409 27.8862 31.7727 28.0226 31.6363C28.1589 31.5 28.2271 31.2954 28.2271 31.0909L26.6589 17.5227C26.6589 17.3863 26.5907 17.3181 26.5907 17.1818L41.0453 7.84087V19.6363C40.0907 19.9091 39.4089 20.7954 39.4089 21.8181C39.4089 22.3636 39.6135 22.8409 39.8862 23.25C34.7726 24.5454 33.4771 23.7954 33.1362 23.1818C32.9998 22.9091 32.6589 22.7045 32.3862 22.8409C32.0453 22.9091 31.8407 23.1818 31.8407 23.5227C31.8407 26.4545 34.2271 28.7727 37.0907 28.7727C39.818 28.7727 41.9998 26.7272 42.3407 24.0681C43.2953 23.7954 43.9771 22.9091 43.9771 21.8863C43.9771 20.8636 43.2953 19.9772 42.3407 19.7045V6.95451L43.1589 6.47724ZM5.65891 40.3636C4.43164 40.3636 3.4771 39.4091 3.4771 38.1818C3.4771 36.9545 4.43164 36 5.65891 36C6.88619 36 7.84073 36.9545 7.84073 38.1818C7.84073 39.3409 6.88619 40.3636 5.65891 40.3636ZM12.6135 40.5C11.3862 40.5 10.4316 39.5454 10.4316 38.3181C10.4316 37.0909 11.3862 36.1363 12.6135 36.1363C13.8407 36.1363 14.7953 37.0909 14.7953 38.3181C14.7953 39.4772 13.7726 40.5 12.6135 40.5ZM19.4998 40.5681C18.2726 40.5681 17.318 39.6136 17.318 38.3863C17.318 37.1591 18.2726 36.2045 19.4998 36.2045C20.7271 36.2045 21.6816 37.1591 21.6816 38.3863C21.6816 39.6136 20.7271 40.5681 19.4998 40.5681ZM23.318 33.3409H8.99982V31.8409H23.3862V33.3409H23.318ZM17.3862 27C17.3862 26.6591 17.6589 26.3181 18.068 26.3181H20.5907C20.9316 26.3181 21.2726 26.6591 21.2726 27C21.2726 27.3409 20.9316 27.6818 20.5907 27.6818H18.068C17.6589 27.6818 17.3862 27.3409 17.3862 27ZM26.4544 36.1363C27.6816 36.1363 28.6362 37.0909 28.6362 38.3181C28.6362 39.5454 27.6816 40.5 26.4544 40.5C25.2271 40.5 24.2726 39.5454 24.2726 38.3181C24.2726 37.0909 25.2271 36.1363 26.4544 36.1363ZM24.9544 24.8181C24.818 24.9545 24.6135 25.0227 24.4089 25.0227H18.068C17.6589 25.0227 17.3862 24.75 17.3862 24.3409V18.3409C17.3862 18 17.6589 17.6591 18.068 17.6591H23.7271C24.068 17.6591 24.3407 17.9318 24.4089 18.2727L25.0907 24.2727C25.1589 24.4772 25.0907 24.6136 24.9544 24.8181Z" fill="#0EAE60"/>
</svg>
