<svg width="45" height="45" viewBox="0 0 45 45" fill="none" xmlns="http://www.w3.org/2000/svg">
<path d="M36.5625 26.7187H37.9688C38.3417 26.7187 38.6994 26.5706 38.9631 26.3069C39.2268 26.0431 39.375 25.6855 39.375 25.3125C39.375 24.9395 39.2268 24.5818 38.9631 24.3181C38.6994 24.0544 38.3417 23.9062 37.9688 23.9062H34.6191L32.9723 20.6128C32.6241 19.9104 32.0861 19.3197 31.4192 18.9076C30.7523 18.4955 29.9833 18.2785 29.1994 18.2812H15.8006C15.0167 18.2785 14.2477 18.4955 13.5808 18.9076C12.9139 19.3197 12.3759 19.9104 12.0277 20.6128L10.3809 23.9062H7.03125C6.65829 23.9062 6.3006 24.0544 6.03688 24.3181C5.77316 24.5818 5.625 24.9395 5.625 25.3125C5.625 25.6855 5.77316 26.0431 6.03688 26.3069C6.3006 26.5706 6.65829 26.7187 7.03125 26.7187H8.4375L6.46875 29.3428C5.92287 30.074 5.62701 30.9616 5.625 31.8741V35.1562C5.62648 35.6477 5.75719 36.1302 6.00402 36.5552C6.25084 36.9803 6.6051 37.3329 7.03125 37.5778V39.375C7.03125 40.1209 7.32757 40.8363 7.85501 41.3637C8.38246 41.8912 9.09783 42.1875 9.84375 42.1875H12.6562C13.4022 42.1875 14.1175 41.8912 14.645 41.3637C15.1724 40.8363 15.4688 40.1209 15.4688 39.375V37.9687H29.5312V39.375C29.5312 40.1209 29.8276 40.8363 30.355 41.3637C30.8825 41.8912 31.5978 42.1875 32.3438 42.1875H35.1562C35.9022 42.1875 36.6175 41.8912 37.145 41.3637C37.6724 40.8363 37.9688 40.1209 37.9688 39.375V37.5778C38.3949 37.3329 38.7492 36.9803 38.996 36.5552C39.2428 36.1302 39.3735 35.6477 39.375 35.1562V31.8755C39.3735 30.9629 39.0776 30.0752 38.5312 29.3442L36.5625 26.7187ZM33.75 30.9375C34.1672 30.9375 34.575 31.0612 34.9219 31.293C35.2688 31.5248 35.5392 31.8542 35.6988 32.2396C35.8585 32.6251 35.9002 33.0492 35.8188 33.4584C35.7375 33.8676 35.5366 34.2434 35.2416 34.5384C34.9466 34.8334 34.5707 35.0343 34.1615 35.1157C33.7523 35.1971 33.3282 35.1553 32.9428 34.9957C32.5573 34.836 32.2279 34.5657 31.9961 34.2188C31.7643 33.8719 31.6406 33.4641 31.6406 33.0469C31.6406 32.4874 31.8629 31.9509 32.2584 31.5553C32.654 31.1597 33.1906 30.9375 33.75 30.9375ZM12.375 26.1562C12.4254 26.0883 12.4701 26.0164 12.5086 25.9411L14.5434 21.8714C14.6601 21.6378 14.8396 21.4414 15.0616 21.3041C15.2836 21.1667 15.5395 21.0939 15.8006 21.0937H29.1994C29.4605 21.0939 29.7164 21.1667 29.9384 21.3041C30.1604 21.4414 30.3399 21.6378 30.4566 21.8714L32.4914 25.9411C32.5299 26.0164 32.5746 26.0883 32.625 26.1562L32.6714 26.2167L32.272 26.4825C32.0435 26.6355 31.775 26.7176 31.5 26.7187H13.507C13.2297 26.719 12.9585 26.6368 12.728 26.4825L12.3286 26.2167L12.375 26.1562ZM11.25 30.9375C11.6672 30.9375 12.075 31.0612 12.4219 31.293C12.7688 31.5248 13.0392 31.8542 13.1988 32.2396C13.3585 32.6251 13.4002 33.0492 13.3188 33.4584C13.2375 33.8676 13.0366 34.2434 12.7416 34.5384C12.4466 34.8334 12.0707 35.0343 11.6615 35.1157C11.2523 35.1971 10.8282 35.1553 10.4428 34.9957C10.0573 34.836 9.7279 34.5657 9.49612 34.2188C9.26434 33.8719 9.14062 33.4641 9.14062 33.0469C9.14062 32.4874 9.36286 31.9509 9.75845 31.5553C10.154 31.1597 10.6906 30.9375 11.25 30.9375ZM19.6594 14.0625C18.8278 15.1709 17.6873 16.0089 16.381 16.4713C15.0748 16.9337 13.661 16.9997 12.3173 16.6612C11.3356 16.415 10.4194 15.9573 9.63293 15.3202C8.84643 14.6831 8.20856 13.8819 7.76391 12.9727C7.70941 12.8645 7.68375 12.7442 7.68941 12.6233C7.69507 12.5023 7.73186 12.3849 7.79621 12.2824C7.86056 12.1798 7.9503 12.0956 8.05674 12.038C8.16318 11.9803 8.2827 11.9511 8.40375 11.9531H11.6564C11.9032 11.9531 12.1457 11.8881 12.3595 11.7647C12.5733 11.6413 12.7508 11.4638 12.8742 11.25L13.2792 10.5469C13.4026 10.3331 13.4676 10.0906 13.4676 9.84374C13.4676 9.5969 13.4026 9.3544 13.2792 9.14062L12.8742 8.43749C12.7508 8.22372 12.5733 8.0462 12.3595 7.92278C12.1457 7.79936 11.9032 7.73438 11.6564 7.73437H8.40375C8.28328 7.73606 8.1644 7.70676 8.05851 7.6493C7.95262 7.59183 7.86327 7.50812 7.79904 7.40619C7.7348 7.30426 7.69783 7.18754 7.69168 7.06721C7.68553 6.94689 7.7104 6.827 7.76391 6.71906C8.20761 5.80866 8.84511 5.00637 9.63171 4.36844C10.4183 3.73051 11.335 3.2724 12.3173 3.02624C13.661 2.68775 15.0748 2.75384 16.381 3.21619C17.6873 3.67855 18.8278 4.51657 19.6594 5.62499H33.5812C34.5772 5.60718 35.5488 5.93307 36.3326 6.54779C37.1163 7.16251 37.6644 8.02852 37.8844 8.99999C38.0082 9.61286 37.9944 10.2456 37.8441 10.8525C37.6939 11.4594 37.4108 12.0254 37.0153 12.5097C36.6198 12.9939 36.1217 13.3844 35.5571 13.6529C34.9924 13.9215 34.3752 14.0613 33.75 14.0625H19.6594Z" fill="#0EAE60"/>
</svg>
