<svg width="45" height="45" viewBox="0 0 45 45" fill="none" xmlns="http://www.w3.org/2000/svg">
<path d="M35.1562 28.125C31.2792 28.125 28.125 31.2792 28.125 35.1562C28.125 39.0333 31.2792 42.1875 35.1562 42.1875C39.0333 42.1875 42.1875 39.0333 42.1875 35.1562C42.1875 31.2792 39.0333 28.125 35.1562 28.125ZM21.0938 28.125C19.5919 24.802 16.3828 22.5 12.6562 22.5C8.92969 22.5 5.72062 24.802 4.21875 28.125H21.0938ZM4.21875 36.5625C5.72062 39.8855 8.92969 42.1875 12.6562 42.1875C16.3828 42.1875 19.5919 39.8855 21.0938 36.5625H4.21875Z" fill="#0EAE60"/>
<path d="M35.1562 14.0625V7.03125C35.1562 4.70531 33.2634 2.8125 30.9375 2.8125H26.1816C25.1072 2.8125 24.1425 3.40875 23.6658 4.36641L18.8184 14.0625H12.6562C11.5374 14.0625 10.4643 14.507 9.67314 15.2981C8.88197 16.0893 8.4375 17.1624 8.4375 18.2812V19.6875C8.4375 20.0605 8.58566 20.4181 8.84938 20.6819C9.1131 20.9456 9.47079 21.0938 9.84375 21.0938H12.6562C16.6669 21.0938 20.6663 23.4914 22.5 27.2137C22.5394 27.2812 22.5 29.5312 22.5 29.5312H4.21875C3.84579 29.5312 3.4881 29.6794 3.22438 29.9431C2.96066 30.2069 2.8125 30.5645 2.8125 30.9375V33.75C2.8125 34.123 2.96066 34.4806 3.22438 34.7444C3.4881 35.0081 3.84579 35.1562 4.21875 35.1562H26.7328C26.7328 30.5044 30.5044 26.7188 35.1562 26.7188H40.7812C41.1542 26.7188 41.5119 26.5706 41.7756 26.3069C42.0393 26.0431 42.1875 25.6855 42.1875 25.3125V21.0938C42.1875 19.2289 41.4467 17.4405 40.1281 16.1219C38.8095 14.8033 37.0211 14.0625 35.1562 14.0625ZM30.2344 18.2812H28.8281C28.6416 18.2812 28.4628 18.2072 28.3309 18.0753C28.1991 17.9434 28.125 17.7646 28.125 17.5781C28.125 17.3916 28.1991 17.2128 28.3309 17.0809C28.4628 16.9491 28.6416 16.875 28.8281 16.875H30.2344C30.4209 16.875 30.5997 16.9491 30.7316 17.0809C30.8634 17.2128 30.9375 17.3916 30.9375 17.5781C30.9375 17.7646 30.8634 17.9434 30.7316 18.0753C30.5997 18.2072 30.4209 18.2812 30.2344 18.2812ZM32.3438 14.0625H28.2909L29.0503 12.5437C29.2092 12.6 29.3681 12.6562 29.5298 12.6562C29.847 12.6569 30.1551 12.5502 30.404 12.3537C30.6529 12.1571 30.8281 11.8822 30.9011 11.5735C30.9741 11.2649 30.9405 10.9406 30.806 10.6534C30.6714 10.3662 30.4437 10.1329 30.1598 9.99141L27.3473 8.58516C27.0154 8.4333 26.6375 8.41632 26.2933 8.5378C25.9491 8.65927 25.6655 8.9097 25.5024 9.23625C25.3393 9.56281 25.3094 9.93994 25.4191 10.2881C25.5288 10.6363 25.7694 10.9282 26.0902 11.1023L26.5191 11.3161L25.1466 14.0625H21.9628L26.1816 5.625H30.9375C31.3105 5.625 31.6681 5.77316 31.9319 6.03688C32.1956 6.3006 32.3438 6.65829 32.3438 7.03125V14.0625Z" fill="#0EAE60"/>
</svg>
