<svg width="35" height="35" viewBox="0 0 35 35" fill="none" xmlns="http://www.w3.org/2000/svg">
<path fill-rule="evenodd" clip-rule="evenodd" d="M17.0217 7.64524C17.0217 7.51833 17.0721 7.39661 17.1619 7.30688C17.2516 7.21714 17.3733 7.16672 17.5002 7.16672C17.6271 7.16672 17.7489 7.21714 17.8386 7.30688C17.9283 7.39661 17.9788 7.51833 17.9788 7.64524V9.46777L19.1048 8.51279C19.2017 8.4327 19.3263 8.39404 19.4515 8.4052C19.5767 8.41635 19.6924 8.47642 19.7736 8.57238C19.8548 8.66833 19.8949 8.79243 19.8851 8.91775C19.8754 9.04306 19.8167 9.15949 19.7216 9.24177L17.9788 10.7196V14.0957C17.6613 14.0515 17.3392 14.0515 17.0217 14.0957V10.7196L15.2786 9.24156C15.1835 9.15929 15.1248 9.04286 15.1151 8.91754C15.1053 8.79222 15.1454 8.66813 15.2266 8.57217C15.3078 8.47622 15.4235 8.41615 15.5487 8.40499C15.6739 8.39383 15.7985 8.43249 15.8954 8.51258L17.0217 9.46777V7.64524ZM17.5002 15.0193C17.9909 15.0193 18.4705 15.1648 18.8784 15.4374C19.2864 15.71 19.6043 16.0974 19.7921 16.5507C19.9799 17.004 20.029 17.5027 19.9333 17.984C19.8375 18.4652 19.6013 18.9072 19.2544 19.2541C18.9074 19.601 18.4654 19.8373 17.9842 19.933C17.503 20.0287 17.0042 19.9796 16.5509 19.7919C16.0976 19.6041 15.7102 19.2861 15.4376 18.8782C15.165 18.4702 15.0195 17.9906 15.0195 17.5C15.0195 16.8421 15.2809 16.2111 15.7461 15.7459C16.2113 15.2807 16.8423 15.0193 17.5002 15.0193ZM31.7005 18.0613C34.2298 24.1795 30.1739 29.7675 24.4909 32.366L25.0172 33.2776C25.0497 33.3338 25.0654 33.398 25.0627 33.4628C25.06 33.5275 25.0389 33.5902 25.0019 33.6435C24.9649 33.6967 24.9136 33.7383 24.8538 33.7635C24.7941 33.7887 24.7284 33.7963 24.6644 33.7855L20.9274 33.1552C20.8777 33.1471 20.8304 33.128 20.7889 33.0993C20.7475 33.0706 20.7129 33.0331 20.6877 32.9894C20.6625 32.9458 20.6473 32.8971 20.6432 32.8469C20.6391 32.7966 20.6463 32.7461 20.664 32.6989L21.9867 29.1475C22.0093 29.0867 22.0488 29.0337 22.1004 28.9945C22.1521 28.9553 22.2138 28.9316 22.2784 28.9262C22.343 28.9208 22.4079 28.9339 22.4653 28.9639C22.5228 28.994 22.5705 29.0397 22.6029 29.0959L23.248 30.2131C25.5988 29.1498 27.6087 27.4554 29.0544 25.3184C30.5001 23.1813 31.325 20.6853 31.4374 18.1076C31.4387 18.0765 31.4506 18.0468 31.4712 18.0234C31.4917 17.9999 31.5196 17.9842 31.5503 17.9788C31.581 17.9734 31.6126 17.9786 31.6399 17.9936C31.6672 18.0086 31.6885 18.0325 31.7004 18.0613H31.7005ZM18.0615 3.2997C18.0327 3.31158 18.0089 3.33295 17.9939 3.36025C17.9789 3.38756 17.9736 3.41916 17.9791 3.44984C17.9845 3.48052 18.0002 3.50843 18.0236 3.52895C18.0471 3.54947 18.0768 3.56137 18.108 3.56268C20.6856 3.67508 23.1816 4.49997 25.3187 5.94569C27.4557 7.39141 29.15 9.40134 30.2134 11.7521L29.0961 12.3972C29.04 12.4296 28.9942 12.4773 28.9642 12.5348C28.9341 12.5922 28.921 12.6571 28.9265 12.7217C28.9319 12.7863 28.9555 12.848 28.9947 12.8997C29.0339 12.9513 29.087 12.9908 29.1477 13.0134L32.6992 14.336C32.7463 14.3538 32.7969 14.3609 32.8471 14.3569C32.8973 14.3528 32.946 14.3376 32.9897 14.3124C33.0333 14.2872 33.0709 14.2526 33.0995 14.2111C33.1282 14.1697 33.1473 14.1224 33.1555 14.0727L33.7858 10.3357C33.7965 10.2717 33.7889 10.206 33.7637 10.1463C33.7386 10.0865 33.697 10.0351 33.6437 9.99816C33.5905 9.96117 33.5278 9.94009 33.463 9.93738C33.3982 9.93467 33.334 9.95044 33.2779 9.98285L32.3663 10.5092C29.7677 4.82616 24.1794 0.770403 18.0615 3.2997ZM3.29994 16.9387C0.770647 10.8209 4.82641 5.23249 10.5096 2.63395L9.98324 1.72238C9.95082 1.66622 9.93505 1.60201 9.93776 1.53723C9.94047 1.47245 9.96155 1.40977 9.99854 1.35652C10.0355 1.30327 10.0869 1.26164 10.1467 1.23649C10.2064 1.21133 10.2721 1.2037 10.336 1.21447L14.073 1.84474C14.1228 1.85291 14.1701 1.87203 14.2115 1.9007C14.253 1.92937 14.2876 1.96689 14.3127 2.01054C14.3379 2.05419 14.3531 2.10289 14.3572 2.15313C14.3613 2.20336 14.3542 2.25388 14.3364 2.30104L13.0139 5.85251C12.9912 5.91327 12.9518 5.96633 12.9001 6.00551C12.8485 6.04469 12.7867 6.06837 12.7221 6.07378C12.6575 6.07919 12.5927 6.06611 12.5352 6.03607C12.4778 6.00603 12.43 5.96027 12.3976 5.90412L11.7526 4.78686C9.40178 5.85023 7.39184 7.54457 5.94612 9.6816C4.5004 11.8186 3.67551 14.3147 3.56313 16.8923C3.56181 16.9235 3.5499 16.9532 3.52937 16.9766C3.50885 17.0001 3.48094 17.0158 3.45026 17.0212C3.41959 17.0266 3.38798 17.0214 3.36069 17.0064C3.33339 16.9914 3.31203 16.9675 3.30015 16.9387H3.29994ZM16.939 31.7003C10.8208 34.2296 5.23274 30.1737 2.63419 24.4906L1.72262 25.017C1.66647 25.0494 1.60225 25.0652 1.53747 25.0625C1.47269 25.0598 1.41002 25.0387 1.35677 25.0017C1.30352 24.9647 1.26188 24.9133 1.23673 24.8536C1.21158 24.7938 1.20394 24.7281 1.21471 24.6642L1.84498 20.9272C1.85316 20.8774 1.87227 20.8301 1.90095 20.7887C1.92962 20.7472 1.96715 20.7126 2.01081 20.6874C2.05447 20.6622 2.10318 20.6471 2.15342 20.643C2.20366 20.6389 2.25419 20.646 2.30135 20.6638L5.85276 21.9864C5.91351 22.0091 5.96658 22.0485 6.00575 22.1002C6.04493 22.1518 6.06861 22.2136 6.07402 22.2782C6.07943 22.3428 6.06635 22.4076 6.03631 22.4651C6.00627 22.5225 5.96051 22.5702 5.90437 22.6027L4.7871 23.2476C5.85047 25.5985 7.54481 27.6084 9.68185 29.0541C11.8189 30.4998 14.3149 31.3247 16.8926 31.4371C16.9237 31.4384 16.9535 31.4503 16.9769 31.4708C17.0003 31.4913 17.0161 31.5193 17.0215 31.5499C17.0269 31.5806 17.0217 31.6122 17.0067 31.6395C16.9917 31.6668 16.9678 31.6882 16.939 31.7001V31.7003ZM19.5692 14.7545C19.8251 14.9476 20.0529 15.1753 20.246 15.4312L22.6326 13.0447L24.9131 13.2321C24.9758 13.2373 25.039 13.2301 25.0989 13.2108C25.1589 13.1916 25.2145 13.1607 25.2624 13.1199C25.3104 13.0791 25.3498 13.0292 25.3785 12.9731C25.4071 12.917 25.4244 12.8558 25.4293 12.793C25.4342 12.7303 25.4267 12.6671 25.4072 12.6073C25.3876 12.5474 25.3565 12.492 25.3154 12.4442C25.2744 12.3964 25.2244 12.3572 25.1681 12.3288C25.1119 12.3005 25.0506 12.2835 24.9878 12.2788L23.5191 12.1581L24.8072 10.8701C24.8969 10.7803 24.9473 10.6586 24.9473 10.5317C24.9473 10.4048 24.8969 10.2831 24.8072 10.1933C24.7174 10.1036 24.5957 10.0532 24.4688 10.0532C24.3419 10.0532 24.2202 10.1036 24.1304 10.1933L22.8424 11.4814L22.7215 10.0126C22.7116 9.88617 22.6519 9.76887 22.5555 9.68649C22.4591 9.6041 22.3339 9.5634 22.2075 9.57331C22.081 9.58323 21.9637 9.64296 21.8814 9.73937C21.799 9.83577 21.7583 9.96095 21.7682 10.0874L21.9558 12.3679L19.5692 14.7545ZM20.9045 17.0215C20.9488 17.339 20.9488 17.661 20.9045 17.9785H24.2805L25.7585 19.7217C25.8408 19.8167 25.9572 19.8754 26.0826 19.8852C26.2079 19.8949 26.332 19.8548 26.4279 19.7736C26.5239 19.6924 26.5839 19.5767 26.5951 19.4515C26.6063 19.3263 26.5676 19.2017 26.4875 19.1049L25.5325 17.9785H27.3548C27.4817 17.9785 27.6034 17.9281 27.6931 17.8384C27.7829 17.7486 27.8333 17.6269 27.8333 17.5C27.8333 17.3731 27.7829 17.2514 27.6931 17.1616C27.6034 17.0719 27.4817 17.0215 27.3548 17.0215H25.5325L26.4874 15.8954C26.5675 15.7985 26.6062 15.674 26.595 15.5488C26.5839 15.4236 26.5238 15.3078 26.4279 15.2266C26.3319 15.1455 26.2078 15.1054 26.0825 15.1151C25.9572 15.1248 25.8407 15.1836 25.7585 15.2786L24.2806 17.0215H20.9045ZM20.2456 19.5689C20.0525 19.8248 19.8247 20.0525 19.5689 20.2456L21.9555 22.6323L21.768 24.9127C21.7628 24.9755 21.77 25.0387 21.7893 25.0986C21.8085 25.1586 21.8394 25.2141 21.8802 25.2621C21.921 25.3101 21.9709 25.3495 22.027 25.3782C22.0831 25.4068 22.1443 25.4241 22.2071 25.429C22.2698 25.4339 22.333 25.4264 22.3928 25.4069C22.4527 25.3873 22.5081 25.3561 22.5559 25.3151C22.6037 25.2741 22.6429 25.224 22.6712 25.1678C22.6996 25.1116 22.7166 25.0503 22.7213 24.9875L22.842 23.5188L24.13 24.8069C24.2197 24.8966 24.3415 24.947 24.4684 24.947C24.5953 24.947 24.717 24.8966 24.8068 24.8069C24.8965 24.7171 24.9469 24.5954 24.9469 24.4685C24.9469 24.3416 24.8965 24.2198 24.8068 24.1301L23.5187 22.842L24.9874 22.7213C25.05 22.7164 25.111 22.6992 25.167 22.6707C25.223 22.6422 25.2727 22.603 25.3135 22.5552C25.3543 22.5075 25.3853 22.4522 25.4047 22.3925C25.4242 22.3328 25.4316 22.2698 25.4267 22.2072C25.4218 22.1446 25.4046 22.0836 25.3761 22.0277C25.3476 21.9717 25.3084 21.9219 25.2607 21.8811C25.2129 21.8403 25.1576 21.8093 25.0979 21.7899C25.0382 21.7705 24.9752 21.763 24.9126 21.7679L22.6322 21.9555L20.2456 19.5689H20.2456ZM17.9788 20.9043C17.6613 20.9484 17.3392 20.9484 17.0217 20.9043V24.2802L15.2786 25.7583C15.1828 25.8404 15.1234 25.957 15.1133 26.0827C15.1032 26.2084 15.1433 26.333 15.2247 26.4293C15.3062 26.5256 15.4225 26.5857 15.5481 26.5966C15.6738 26.6074 15.7986 26.5681 15.8954 26.4873L17.0217 25.5322V27.3545C17.0217 27.4815 17.0721 27.6032 17.1619 27.6929C17.2516 27.7826 17.3733 27.8331 17.5002 27.8331C17.6271 27.8331 17.7489 27.7826 17.8386 27.6929C17.9283 27.6032 17.9788 27.4815 17.9788 27.3545V25.5322L19.1048 26.4872C19.2016 26.5681 19.3265 26.6074 19.4521 26.5965C19.5778 26.5857 19.694 26.5255 19.7755 26.4292C19.857 26.333 19.8971 26.2084 19.887 26.0826C19.8769 25.9569 19.8175 25.8403 19.7217 25.7582L17.9788 24.2804V20.9043ZM15.4313 20.2454C15.1755 20.0523 14.9477 19.8245 14.7546 19.5687L12.368 21.9552L10.0875 21.7677C10.0249 21.7628 9.96194 21.7703 9.90223 21.7897C9.84252 21.8091 9.78722 21.8401 9.73948 21.8809C9.69175 21.9217 9.65252 21.9715 9.62404 22.0275C9.59555 22.0834 9.57836 22.1445 9.57345 22.2071C9.56855 22.2696 9.57602 22.3326 9.59544 22.3923C9.61487 22.452 9.64586 22.5073 9.68665 22.555C9.72745 22.6028 9.77724 22.642 9.8332 22.6705C9.88915 22.699 9.95017 22.7162 10.0128 22.7211L11.4815 22.8418L10.1934 24.1299C10.1037 24.2196 10.0533 24.3414 10.0533 24.4683C10.0533 24.5952 10.1037 24.7169 10.1934 24.8067C10.2832 24.8964 10.4049 24.9468 10.5318 24.9468C10.6587 24.9468 10.7805 24.8964 10.8702 24.8067L12.1582 23.5186L12.279 24.9873C12.2836 25.0501 12.3006 25.1114 12.329 25.1676C12.3574 25.2238 12.3966 25.2739 12.4444 25.3149C12.4922 25.3559 12.5476 25.3871 12.6074 25.4067C12.6673 25.4262 12.7304 25.4337 12.7932 25.4288C12.856 25.4239 12.9172 25.4066 12.9733 25.378C13.0294 25.3493 13.0792 25.3099 13.12 25.2619C13.1608 25.2139 13.1917 25.1584 13.211 25.0984C13.2303 25.0385 13.2375 24.9753 13.2323 24.9125L13.0448 22.632L15.4313 20.2455V20.2454ZM14.0959 17.9785C14.0518 17.661 14.0518 17.339 14.0959 17.0215H10.7199L9.24188 15.2783C9.1596 15.1833 9.04317 15.1245 8.91785 15.1148C8.79254 15.1051 8.66844 15.1452 8.57249 15.2264C8.47653 15.3076 8.41646 15.4233 8.4053 15.5485C8.39415 15.6737 8.43281 15.7982 8.51289 15.8951L9.46801 17.0215H7.64548C7.51857 17.0215 7.39686 17.0719 7.30712 17.1616C7.21738 17.2514 7.16697 17.3731 7.16697 17.5C7.16697 17.6269 7.21738 17.7486 7.30712 17.8384C7.39686 17.9281 7.51857 17.9785 7.64548 17.9785H9.46801L8.51303 19.1046C8.47168 19.1523 8.44022 19.2078 8.42046 19.2678C8.40071 19.3278 8.39305 19.3911 8.39794 19.4541C8.40283 19.5171 8.42016 19.5785 8.44894 19.6347C8.47771 19.6909 8.51736 19.7409 8.56558 19.7817C8.61379 19.8225 8.66963 19.8533 8.72985 19.8724C8.79006 19.8914 8.85346 19.8984 8.91638 19.8928C8.97929 19.8872 9.04047 19.8691 9.09637 19.8397C9.15226 19.8103 9.20177 19.7701 9.24201 19.7214L10.7199 17.9785H14.0959ZM14.7549 15.4311C14.948 15.1752 15.1757 14.9474 15.4316 14.7543L13.0451 12.3678L13.2326 10.0872C13.2419 9.96117 13.2008 9.83654 13.1185 9.74063C13.0362 9.64472 12.9192 9.58532 12.7931 9.57544C12.6671 9.56555 12.5423 9.60598 12.446 9.68787C12.3497 9.76977 12.2898 9.88647 12.2793 10.0125L12.1585 11.4812L10.8705 10.1932C10.7807 10.1035 10.659 10.053 10.5321 10.053C10.4052 10.053 10.2835 10.1035 10.1937 10.1932C10.104 10.2829 10.0536 10.4047 10.0536 10.5316C10.0536 10.6585 10.104 10.7802 10.1937 10.87L11.4817 12.158L10.0128 12.2787C9.88641 12.2886 9.76911 12.3484 9.68673 12.4448C9.60435 12.5412 9.56364 12.6663 9.57356 12.7928C9.58348 12.9192 9.64321 13.0365 9.73961 13.1189C9.83602 13.2013 9.9612 13.242 10.0876 13.232L12.3682 13.0445L14.7549 15.4311Z" fill="#0EAE60"/>
</svg>
