<svg width="622" height="634" viewBox="0 0 622 634" fill="none" xmlns="http://www.w3.org/2000/svg">
<path d="M143.032 108.185C143.032 108.185 139.641 100.235 138.924 97.6501C136.906 90.7368 136.298 83.4941 137.136 76.3453C137.973 69.1965 140.24 62.2849 143.804 56.0142C147.367 49.7436 152.155 44.2397 157.889 39.8242C163.623 35.4087 170.187 32.17 177.198 30.2975C184.208 28.4249 191.525 27.9561 198.721 28.9182C205.917 29.8804 212.847 32.2544 219.107 35.9014C225.366 39.5484 230.83 44.3953 235.178 50.1589C239.526 55.9226 242.672 62.4874 244.432 69.4697C245.149 72.1197 246.453 80.5868 246.453 80.5868L246.453 287.415L143.032 108.185Z" fill="#0EAE60" fill-opacity="0.1"/>
<path d="M70.3281 227.441C70.3281 227.441 63.3508 222.206 61.4597 220.331C51.2218 210.091 45.4779 196.258 45.4779 181.842C45.4779 167.426 51.2218 153.592 61.4597 143.352C66.5295 138.316 72.5517 134.321 79.1814 131.595C85.8111 128.869 92.9183 127.465 100.096 127.465C107.274 127.465 114.381 128.869 121.01 131.595C127.64 134.321 133.662 138.316 138.732 143.352C140.688 145.356 146.035 152.013 146.035 152.013L249.848 331.178L70.3281 227.441Z" fill="#0EAE60" fill-opacity="0.1"/>
<path d="M64.4585 367.628C64.4585 367.628 55.7858 366.594 53.2426 365.883C39.1823 362.163 27.1886 353.059 19.9001 340.574C12.6117 328.09 10.6254 313.246 14.3783 299.31C18.1312 285.373 27.3158 273.486 39.9117 266.261C52.5075 259.037 67.4829 257.068 81.5432 260.788C84.1516 261.499 92.2375 264.602 92.2375 264.602L272.083 368.209L64.4585 367.628Z" fill="#0EAE60" fill-opacity="0.1"/>
<path d="M99.0063 492.456C99.0063 492.456 90.9837 495.881 88.4149 496.582C74.4279 500.328 59.5762 498.386 47.0912 491.178C34.6063 483.97 25.4984 472.079 21.7494 458.092C19.9228 451.184 19.4737 443.971 20.4276 436.866C21.3816 429.761 23.7199 422.905 27.3087 416.689C30.8975 410.473 35.6663 405.02 41.3421 400.641C47.0179 396.263 53.4892 393.045 60.3855 391.173C63.0988 390.48 71.5378 389.178 71.5378 389.178L278.605 388.856L99.0063 492.456Z" fill="#0EAE60" fill-opacity="0.1"/>
<path d="M217.477 567.634C217.477 567.634 212.245 574.628 210.358 576.475C200.106 586.791 186.225 592.626 171.769 592.696C157.312 592.766 143.464 587.064 133.272 576.846C123.079 566.628 117.376 552.73 117.417 538.209C117.459 523.689 123.242 509.735 133.493 499.418C135.413 497.515 142.143 492.064 142.143 492.064L321.793 388.117L217.477 567.634Z" fill="#0EAE60" fill-opacity="0.1"/>
<path d="M347.212 581.624C347.212 581.624 346.177 590.297 345.466 592.84C341.747 606.901 332.643 618.894 320.158 626.183C307.673 633.471 292.83 635.458 278.894 631.705C264.957 627.952 253.069 618.767 245.845 606.171C238.621 593.575 236.652 578.6 240.372 564.54C241.083 561.931 244.185 553.846 244.185 553.846L347.793 374L347.212 581.624Z" fill="#0EAE60" fill-opacity="0.1"/>
<path d="M369.568 78.8753C369.568 78.8753 372.959 70.8607 373.741 68.2754C377.511 54.399 375.566 39.6064 368.332 27.1519C361.099 14.6974 349.17 5.60113 335.17 1.86418C321.171 -1.87276 306.246 0.0557299 293.681 7.22541C281.116 14.3951 271.939 26.2186 268.168 40.095C267.451 42.745 266.147 51.2767 266.147 51.2767L266.147 258.299L369.568 78.8753Z" fill="#0EAE60" fill-opacity="0.1"/>
<path d="M479.445 149.067C479.445 149.067 486.422 143.832 488.248 141.957C498.518 131.734 504.283 117.895 504.283 103.468C504.283 89.0412 498.518 75.2019 488.248 64.9785C483.193 59.9288 477.179 55.9209 470.553 53.1859C463.928 50.4508 456.822 49.0427 449.644 49.0427C442.467 49.0427 435.361 50.4508 428.736 53.1859C422.11 55.9209 416.096 59.9288 411.041 64.9785C409.085 66.9175 403.672 73.6394 403.672 73.6394L299.795 252.74L479.445 149.067Z" fill="#0EAE60" fill-opacity="0.1"/>
<path d="M547 256.438C547 256.438 555.673 255.404 558.216 254.693C572.276 250.973 584.27 241.87 591.559 229.385C598.847 216.9 600.833 202.057 597.08 188.121C593.328 174.184 584.143 162.296 571.547 155.072C558.951 147.848 543.976 145.879 529.915 149.599C527.307 150.245 519.286 153.412 519.286 153.412L339.376 256.826L547 256.438Z" fill="#0EAE60" fill-opacity="0.1"/>
<path d="M542.111 381.112C542.111 381.112 550.197 384.537 552.74 385.184C566.809 388.903 581.793 386.931 594.395 379.701C606.997 372.471 616.185 360.574 619.938 346.63C623.691 332.685 621.701 317.833 614.407 305.342C607.112 292.851 595.11 283.744 581.041 280.024C578.367 279.313 569.89 278.021 569.89 278.021L362.135 278.021L542.111 381.112Z" fill="#0EAE60" fill-opacity="0.1"/>
<path d="M473.252 487.734C473.252 487.734 478.534 494.714 480.425 496.589C485.486 501.64 491.506 505.65 498.137 508.386C504.768 511.121 511.879 512.53 519.062 512.53C526.244 512.53 533.356 511.121 539.987 508.386C546.617 505.65 552.637 501.64 557.698 496.589C567.857 486.36 573.551 472.582 573.551 458.229C573.551 443.875 567.857 430.097 557.698 419.869C555.741 417.929 549.025 412.565 549.025 412.565L369.179 309.151L473.252 487.734Z" fill="#0EAE60" fill-opacity="0.1"/>
<path d="M368.784 556.723C368.784 556.723 369.892 565.319 370.545 567.904C372.411 574.775 375.625 581.214 380.003 586.854C384.38 592.494 389.835 597.224 396.057 600.774C402.279 604.324 409.145 606.625 416.264 607.545C423.383 608.465 430.614 607.986 437.546 606.135C444.478 604.285 450.975 601.099 456.665 596.76C462.355 592.422 467.127 587.014 470.708 580.848C474.29 574.681 476.611 567.875 477.539 560.819C478.467 553.763 477.984 546.595 476.117 539.724C475.4 537.074 472.205 529.124 472.205 529.124L368.458 349.895L368.784 556.723Z" fill="#0EAE60" fill-opacity="0.1"/>
</svg>
