<svg width="634" height="622" viewBox="0 0 634 622" fill="none" xmlns="http://www.w3.org/2000/svg">
<path d="M108.185 478.761C108.185 478.761 100.235 482.152 97.6497 482.869C90.7364 484.888 83.4938 485.496 76.345 484.658C69.1961 483.82 62.2845 481.553 56.0139 477.99C49.7432 474.426 44.2394 469.638 39.8238 463.904C35.4083 458.171 32.1697 451.607 30.2971 444.596C28.4246 437.585 27.9557 430.268 28.9179 423.072C29.8801 415.876 32.254 408.946 35.901 402.687C39.548 396.427 44.3949 390.964 50.1586 386.615C55.9222 382.267 62.487 379.121 69.4694 377.362C72.1194 376.644 80.5864 375.34 80.5864 375.34H287.414L108.185 478.761Z" fill="#0EAE60" fill-opacity="0.1"/>
<path d="M227.441 551.464C227.441 551.464 222.205 558.442 220.331 560.333C210.091 570.571 196.258 576.315 181.841 576.315C167.425 576.315 153.592 570.571 143.352 560.333C138.316 555.263 134.32 549.241 131.594 542.611C128.868 535.981 127.465 528.874 127.465 521.697C127.465 514.519 128.868 507.412 131.594 500.782C134.32 494.152 138.316 488.13 143.352 483.06C145.356 481.104 152.013 475.757 152.013 475.757L331.178 371.945L227.441 551.464Z" fill="#0EAE60" fill-opacity="0.1"/>
<path d="M367.628 557.334C367.628 557.334 366.593 566.007 365.882 568.55C362.163 582.611 353.059 594.604 340.574 601.893C328.089 609.181 313.246 611.167 299.31 607.415C285.373 603.662 273.485 594.477 266.261 581.881C259.037 569.285 257.068 554.31 260.788 540.25C261.499 537.641 264.601 529.555 264.601 529.555L368.209 349.71L367.628 557.334Z" fill="#0EAE60" fill-opacity="0.1"/>
<path d="M492.456 522.786C492.456 522.786 495.881 530.809 496.582 533.378C500.328 547.365 498.386 562.217 491.178 574.702C483.97 587.187 472.079 596.294 458.092 600.043C451.184 601.87 443.971 602.319 436.866 601.365C429.761 600.411 422.905 598.073 416.689 594.484C410.473 590.895 405.02 586.127 400.641 580.451C396.263 574.775 393.045 568.304 391.173 561.407C390.48 558.694 389.178 550.255 389.178 550.255L388.856 343.188L492.456 522.786Z" fill="#0EAE60" fill-opacity="0.1"/>
<path d="M567.634 404.316C567.634 404.316 574.628 409.548 576.475 411.435C586.791 421.687 592.626 435.568 592.696 450.024C592.766 464.48 587.064 478.328 576.846 488.521C566.628 498.714 552.73 504.417 538.209 504.375C523.689 504.334 509.735 498.551 499.418 488.299C497.515 486.38 492.064 479.65 492.064 479.65L388.117 300L567.634 404.316Z" fill="#0EAE60" fill-opacity="0.1"/>
<path d="M581.624 274.582C581.624 274.582 590.297 275.616 592.84 276.327C606.901 280.047 618.894 289.15 626.183 301.635C633.471 314.12 635.458 328.963 631.705 342.9C627.952 356.836 618.767 368.724 606.171 375.948C593.575 383.172 578.6 385.141 564.54 381.421C561.931 380.71 553.846 377.608 553.846 377.608L374 274L581.624 274.582Z" fill="#0EAE60" fill-opacity="0.1"/>
<path d="M78.8753 252.225C78.8753 252.225 70.8607 248.834 68.2754 248.052C54.399 244.281 39.6064 246.227 27.1519 253.461C14.6974 260.694 5.60113 272.623 1.86418 286.623C-1.87276 300.622 0.0557329 315.547 7.22541 328.112C14.3951 340.677 26.2186 349.854 40.095 353.625C42.745 354.342 51.2767 355.646 51.2767 355.646H258.299L78.8753 252.225Z" fill="#0EAE60" fill-opacity="0.1"/>
<path d="M149.067 142.349C149.067 142.349 143.832 135.371 141.958 133.545C131.734 123.276 117.895 117.51 103.468 117.51C89.0414 117.51 75.2021 123.276 64.9787 133.545C59.9291 138.601 55.9212 144.615 53.1861 151.24C50.4511 157.866 49.043 164.972 49.043 172.149C49.043 179.326 50.4511 186.432 53.1861 193.058C55.9212 199.683 59.9291 205.697 64.9787 210.753C66.9177 212.709 73.6397 218.121 73.6397 218.121L252.74 321.999L149.067 142.349Z" fill="#0EAE60" fill-opacity="0.1"/>
<path d="M256.438 74.7924C256.438 74.7924 255.404 66.1196 254.693 63.5765C250.973 49.5161 241.87 37.5224 229.385 30.234C216.9 22.9455 202.057 20.9592 188.12 24.7121C174.184 28.465 162.296 37.6496 155.072 50.2455C147.847 62.8414 145.879 77.8167 149.599 91.877C150.245 94.4854 153.412 102.506 153.412 102.506L256.826 282.417L256.438 74.7924Z" fill="#0EAE60" fill-opacity="0.1"/>
<path d="M381.111 79.6817C381.111 79.6817 384.537 71.5958 385.183 69.0527C388.903 54.9837 386.931 40.0001 379.701 27.3981C372.47 14.7961 360.574 5.60802 346.629 1.85513C332.684 -1.89775 317.833 0.0919569 305.342 7.38656C292.851 14.6812 283.744 26.6831 280.024 40.7521C279.313 43.4257 278.021 51.9028 278.021 51.9028V259.658L381.111 79.6817Z" fill="#0EAE60" fill-opacity="0.1"/>
<path d="M487.734 148.54C487.734 148.54 494.715 143.258 496.589 141.367C501.641 136.306 505.65 130.287 508.386 123.656C511.122 117.025 512.53 109.914 512.53 102.731C512.53 95.5487 511.122 88.4372 508.386 81.8062C505.65 75.1753 501.641 69.156 496.589 64.095C486.361 53.936 472.583 48.242 458.229 48.242C443.876 48.242 430.098 53.936 419.869 64.095C417.93 66.0513 412.565 72.7678 412.565 72.7678L309.151 252.613L487.734 148.54Z" fill="#0EAE60" fill-opacity="0.1"/>
<path d="M556.723 253.009C556.723 253.009 565.319 251.9 567.904 251.248C574.775 249.381 581.214 246.167 586.854 241.79C592.494 237.412 597.224 231.957 600.774 225.735C604.324 219.514 606.625 212.648 607.544 205.529C608.464 198.41 607.985 191.178 606.135 184.246C604.285 177.314 601.099 170.818 596.76 165.128C592.421 159.438 587.014 154.666 580.847 151.084C574.68 147.503 567.875 145.181 560.819 144.253C553.763 143.325 546.595 143.808 539.724 145.675C537.074 146.393 529.124 149.588 529.124 149.588L349.895 253.335L556.723 253.009Z" fill="#0EAE60" fill-opacity="0.1"/>
</svg>
