<svg width="35" height="35" viewBox="0 0 35 35" fill="none" xmlns="http://www.w3.org/2000/svg">
<path d="M24.7606 28.0775C24.6464 28.0302 24.5489 27.9501 24.4802 27.8473C24.4116 27.7445 24.375 27.6236 24.375 27.5V20.625C24.0616 20.6371 23.7517 20.555 23.4855 20.3892C23.2192 20.2234 23.0087 19.9816 22.8813 19.695C22.8463 19.62 22.7839 19.5614 22.7068 19.5311C22.6298 19.5009 22.5441 19.5014 22.4675 19.5325C22.2775 19.5999 22.0764 19.6303 21.875 19.6219V30.7344C21.875 30.858 21.9117 30.9788 21.9804 31.0816C22.0491 31.1843 22.1467 31.2644 22.2608 31.3117C22.375 31.359 22.5007 31.3714 22.6219 31.3473C22.7431 31.3232 22.8545 31.2637 22.9419 31.1763L23.3081 30.81C23.4253 30.6929 23.5843 30.627 23.75 30.627C23.9157 30.627 24.0747 30.6929 24.1919 30.81L24.5581 31.1763C24.6456 31.2638 24.7572 31.3233 24.8786 31.3474C25 31.3714 25.1258 31.3589 25.24 31.3113C25.3543 31.2638 25.4519 31.1834 25.5204 31.0804C25.5889 30.9774 25.6253 30.8563 25.625 30.7325V27.7588L25.4419 27.9419C25.3545 28.0294 25.2431 28.0889 25.1218 28.1131C25.0006 28.1372 24.8749 28.1248 24.7606 28.0775ZM27.9419 24.5582L29.375 25.9913V19.62C29.1734 19.6284 28.9721 19.598 28.7819 19.5307C28.7033 19.5017 28.6166 19.5033 28.5391 19.5353C28.4617 19.5672 28.3991 19.6272 28.3638 19.7032C28.2611 19.9308 28.1054 20.1305 27.9096 20.2856C27.7139 20.4407 27.4838 20.5466 27.2388 20.5944C26.9934 20.645 26.7396 20.6358 26.4985 20.5677C26.2575 20.4996 26.0363 20.3746 25.8538 20.2032C25.7916 20.1456 25.7097 20.114 25.625 20.115V25.99L25.8075 25.8075L27.0575 24.5575C27.1156 24.4995 27.1846 24.4534 27.2604 24.422C27.3363 24.3906 27.4177 24.3745 27.4998 24.3745C27.582 24.3746 27.6633 24.3908 27.7391 24.4223C27.815 24.4539 27.8839 24.5 27.9419 24.5582Z" fill="white"/>
<path d="M25.625 16.25C27.6961 16.25 29.375 14.5711 29.375 12.5C29.375 10.4289 27.6961 8.75 25.625 8.75C23.5539 8.75 21.875 10.4289 21.875 12.5C21.875 14.5711 23.5539 16.25 25.625 16.25Z" fill="white"/>
<path d="M22.035 18.358C22.409 18.2214 22.8207 18.2302 23.1886 18.3825C23.5565 18.5348 23.8538 18.8196 24.0219 19.1805C24.065 19.278 24.1531 19.3487 24.2581 19.368C24.3097 19.3788 24.3631 19.3769 24.4137 19.3627C24.4644 19.3484 24.511 19.3222 24.5494 19.2862C24.8427 19.0165 25.2266 18.8669 25.625 18.8669C26.0234 18.8669 26.4073 19.0165 26.7006 19.2862C26.739 19.3222 26.7855 19.3485 26.8362 19.3627C26.8869 19.377 26.9403 19.3788 26.9919 19.368C27.0435 19.3584 27.0919 19.3363 27.133 19.3036C27.1741 19.2709 27.2065 19.2287 27.2275 19.1805C27.3959 18.8197 27.6934 18.535 28.0613 18.3827C28.4292 18.2303 28.8408 18.2213 29.215 18.3574C29.2643 18.3757 29.3172 18.3821 29.3694 18.376C29.4216 18.3699 29.4716 18.3516 29.5153 18.3224C29.559 18.2933 29.5952 18.2542 29.6209 18.2083C29.6466 18.1625 29.6611 18.1112 29.6631 18.0587C29.6801 17.6602 29.8462 17.2826 30.1286 17.0009C30.411 16.7192 30.789 16.554 31.1875 16.538C31.2399 16.536 31.2911 16.5215 31.3369 16.4958C31.3827 16.4702 31.4218 16.4341 31.4509 16.3904C31.48 16.3468 31.4984 16.2968 31.5046 16.2447C31.5107 16.1926 31.5044 16.1398 31.4862 16.0905C31.3495 15.7164 31.3581 15.3046 31.5104 14.9366C31.6627 14.5686 31.9476 14.2711 32.3088 14.103C32.3565 14.0812 32.3985 14.0483 32.4311 14.007C32.4637 13.9658 32.4861 13.9175 32.4964 13.8659C32.5067 13.8144 32.5046 13.7611 32.4904 13.7106C32.4761 13.66 32.4501 13.6135 32.4144 13.5749C32.1447 13.2818 31.9949 12.898 31.9949 12.4996C31.9949 12.1012 32.1447 11.7174 32.4144 11.4243C32.45 11.3857 32.4759 11.3393 32.4901 11.2889C32.5044 11.2384 32.5064 11.1852 32.4962 11.1338C32.486 11.0824 32.4637 11.0341 32.4312 10.9929C32.3988 10.9517 32.357 10.9188 32.3094 10.8968C31.948 10.729 31.6629 10.4315 31.5105 10.0635C31.358 9.69536 31.3494 9.28344 31.4862 8.90928C31.5045 8.86009 31.5108 8.80729 31.5046 8.75519C31.4985 8.7031 31.4801 8.6532 31.4509 8.6096C31.4218 8.56599 31.3827 8.52992 31.3369 8.50433C31.2911 8.47875 31.2399 8.46438 31.1875 8.46241C30.7894 8.44538 30.4122 8.27956 30.1305 7.99774C29.8488 7.71593 29.6831 7.33864 29.6663 6.94053C29.6642 6.88801 29.6498 6.83673 29.6241 6.79088C29.5984 6.74504 29.5622 6.70593 29.5184 6.67678C29.4747 6.64763 29.4247 6.62926 29.3725 6.62317C29.3203 6.61709 29.2674 6.62347 29.2181 6.64178C28.8441 6.77822 28.4325 6.76942 28.0646 6.61714C27.6968 6.46486 27.3994 6.18016 27.2312 5.81928C27.2094 5.77151 27.1766 5.72959 27.1355 5.69697C27.0943 5.66435 27.046 5.64197 26.9945 5.63166C26.943 5.62135 26.8898 5.62341 26.8393 5.63766C26.7887 5.65191 26.7423 5.67796 26.7038 5.71366C26.4105 5.98342 26.0266 6.13315 25.6281 6.13315C25.2297 6.13315 24.8458 5.98342 24.5525 5.71366C24.5141 5.67794 24.4677 5.65185 24.4173 5.63755C24.3668 5.62325 24.3136 5.62114 24.2622 5.63139C24.2108 5.64164 24.1625 5.66396 24.1214 5.69652C24.0802 5.72908 24.0474 5.77094 24.0256 5.81866C23.8571 6.1794 23.5596 6.46398 23.1918 6.61633C22.8239 6.76868 22.4123 6.77776 22.0381 6.64178C21.9889 6.62347 21.936 6.61709 21.8838 6.62317C21.8316 6.62926 21.7815 6.64763 21.7378 6.67678C21.6941 6.70593 21.6579 6.74504 21.6322 6.79088C21.6065 6.83673 21.592 6.88801 21.59 6.94053C21.5732 7.33966 21.4066 7.71782 21.1236 7.99972C20.8405 8.28162 20.4617 8.44658 20.0625 8.46178C20.0101 8.46385 19.9589 8.47831 19.9131 8.50397C19.8673 8.52963 19.8282 8.56576 19.7991 8.60941C19.77 8.65305 19.7516 8.70298 19.7454 8.7551C19.7393 8.80722 19.7456 8.86005 19.7637 8.90928C19.9005 9.28338 19.8919 9.69518 19.7396 10.0632C19.5873 10.4313 19.3024 10.7287 18.9412 10.8968C18.8935 10.9187 18.8515 10.9516 18.8189 10.9928C18.7863 11.034 18.7639 11.0823 18.7536 11.1339C18.7433 11.1854 18.7454 11.2387 18.7596 11.2893C18.7739 11.3398 18.7999 11.3863 18.8356 11.4249C19.1053 11.7181 19.2551 12.1019 19.2551 12.5002C19.2551 12.8986 19.1053 13.2824 18.8356 13.5755C18.8 13.6141 18.7741 13.6605 18.7599 13.711C18.7456 13.7614 18.7436 13.8146 18.7538 13.866C18.764 13.9175 18.7863 13.9657 18.8188 14.0069C18.8512 14.0481 18.893 14.0811 18.9406 14.103C19.302 14.2709 19.5871 14.5683 19.7395 14.9364C19.892 15.3045 19.9006 15.7164 19.7637 16.0905C19.7455 16.1397 19.7392 16.1925 19.7454 16.2446C19.7515 16.2967 19.7699 16.3466 19.7991 16.3902C19.8282 16.4338 19.8673 16.4699 19.9131 16.4955C19.9589 16.5211 20.0101 16.5354 20.0625 16.5374C20.4617 16.5537 20.8401 16.7196 21.1225 17.0022C21.405 17.2847 21.5707 17.6632 21.5869 18.0624C21.5889 18.1149 21.6034 18.1662 21.6291 18.2121C21.6548 18.2579 21.691 18.297 21.7347 18.3262C21.7784 18.3553 21.8284 18.3737 21.8806 18.3798C21.9328 18.3859 21.9857 18.3795 22.035 18.3612V18.358ZM20.625 12.4999C20.625 11.511 20.9182 10.5443 21.4677 9.72205C22.0171 8.89981 22.798 8.25895 23.7116 7.88051C24.6252 7.50207 25.6305 7.40305 26.6005 7.59598C27.5704 7.78891 28.4613 8.26511 29.1605 8.96437C29.8598 9.66363 30.336 10.5545 30.5289 11.5245C30.7219 12.4944 30.6228 13.4997 30.2444 14.4133C29.866 15.327 29.2251 16.1078 28.4029 16.6573C27.5806 17.2067 26.6139 17.4999 25.625 17.4999C24.2994 17.4984 23.0285 16.9712 22.0911 16.0338C21.1537 15.0964 20.6265 13.8255 20.625 12.4999Z" fill="white"/>
<path d="M33.125 3.125H1.875C1.37772 3.125 0.900805 3.32254 0.549175 3.67417C0.197544 4.02581 0 4.50272 0 5L0 27.5C0 27.9973 0.197544 28.4742 0.549175 28.8258C0.900805 29.1775 1.37772 29.375 1.875 29.375H20.625V18.9419C20.4506 18.6969 20.3509 18.4067 20.3381 18.1063C20.3344 18.0226 20.2995 17.9434 20.2403 17.8843C20.181 17.8252 20.1018 17.7904 20.0181 17.7869C19.7683 17.7772 19.5244 17.7086 19.3062 17.5865C19.0881 17.4644 18.902 17.2924 18.7632 17.0845C18.6243 16.8767 18.5367 16.6389 18.5075 16.3906C18.4782 16.1423 18.5082 15.8907 18.595 15.6563C18.6239 15.5777 18.6221 15.4912 18.59 15.4139C18.5579 15.3367 18.4979 15.2743 18.4219 15.2394C18.1946 15.1351 17.9954 14.9783 17.8404 14.7821C17.6854 14.5859 17.5792 14.3557 17.5304 14.1104C17.4816 13.8652 17.4917 13.6119 17.5597 13.3713C17.6278 13.1307 17.7519 12.9096 17.9219 12.7263C17.9785 12.6647 18.01 12.584 18.01 12.5003C18.01 12.4166 17.9785 12.336 17.9219 12.2744C17.7519 12.091 17.6278 11.8699 17.5597 11.6292C17.4917 11.3885 17.4816 11.1352 17.5304 10.8899C17.5792 10.6446 17.6854 10.4144 17.8404 10.2181C17.9953 10.0218 18.1946 9.86503 18.4219 9.76063C18.4977 9.72544 18.5575 9.66305 18.5894 9.58584C18.6214 9.50862 18.6232 9.42221 18.5944 9.34375C18.5076 9.10932 18.4776 8.85767 18.5068 8.60941C18.5361 8.36115 18.6237 8.12335 18.7625 7.91548C18.9014 7.70761 19.0875 7.53559 19.3056 7.41351C19.5238 7.29143 19.7677 7.22276 20.0175 7.21313C20.1011 7.20961 20.1804 7.17485 20.2397 7.11572C20.2989 7.05658 20.3338 6.97738 20.3375 6.89375C20.3468 6.64388 20.4153 6.39978 20.5372 6.18148C20.6591 5.96318 20.8311 5.77689 21.0389 5.63789C21.2468 5.4989 21.4846 5.41115 21.733 5.38186C21.9813 5.35257 22.233 5.38256 22.4675 5.46938C22.5461 5.49882 22.6329 5.49739 22.7105 5.46539C22.7881 5.43338 22.8507 5.37317 22.8856 5.29688C22.99 5.06963 23.1467 4.87036 23.3429 4.7154C23.5391 4.56043 23.7693 4.4542 24.0146 4.40541C24.2598 4.35662 24.5131 4.36666 24.7537 4.4347C24.9943 4.50275 25.2154 4.62687 25.3988 4.79688C25.4602 4.85349 25.5408 4.88492 25.6244 4.88492C25.708 4.88492 25.7885 4.85349 25.85 4.79688C26.0334 4.62687 26.2545 4.50276 26.4952 4.43472C26.7358 4.36667 26.9892 4.35663 27.2345 4.40542C27.4797 4.45421 27.71 4.56043 27.9063 4.71539C28.1026 4.87035 28.2593 5.06962 28.3638 5.29688C28.3986 5.37311 28.4611 5.43326 28.5386 5.46517C28.6161 5.49708 28.7028 5.49836 28.7812 5.46875C29.0157 5.38193 29.2675 5.35194 29.5158 5.38124C29.7641 5.41053 30.002 5.49827 30.2098 5.63727C30.4177 5.77626 30.5896 5.96255 30.7115 6.18085C30.8335 6.39916 30.9019 6.64325 30.9113 6.89313C30.9188 7.06625 31.0581 7.20563 31.2313 7.2125C31.481 7.22213 31.725 7.2908 31.9431 7.41288C32.1613 7.53497 32.3474 7.70699 32.4862 7.91485C32.6251 8.12272 32.7127 8.36053 32.7419 8.60878C32.7711 8.85704 32.7411 9.1087 32.6544 9.34313C32.6255 9.42165 32.6273 9.50817 32.6594 9.58544C32.6914 9.66271 32.7515 9.72504 32.8275 9.76C33.0547 9.86433 33.254 10.021 33.409 10.2173C33.5639 10.4135 33.6702 10.6437 33.719 10.8889C33.7678 11.1342 33.7577 11.3875 33.6897 11.6281C33.6216 11.8687 33.4975 12.0898 33.3275 12.2731C33.2708 12.3347 33.2394 12.4154 33.2394 12.4991C33.2394 12.5828 33.2708 12.6634 33.3275 12.725C33.4975 12.9084 33.6216 13.1295 33.6897 13.3702C33.7577 13.6108 33.7677 13.8642 33.719 14.1095C33.6702 14.3548 33.5639 14.585 33.409 14.7813C33.254 14.9776 33.0548 15.1343 32.8275 15.2388C32.7517 15.2739 32.6919 15.3363 32.6599 15.4135C32.628 15.4908 32.6262 15.5772 32.655 15.6556C32.7418 15.8901 32.7718 16.1417 32.7425 16.39C32.7133 16.6382 32.6257 16.876 32.4868 17.0839C32.348 17.2918 32.1619 17.4638 31.9438 17.5859C31.7256 17.708 31.4817 17.7766 31.2319 17.7863C31.1482 17.7898 31.069 17.8245 31.0097 17.8837C30.9505 17.9428 30.9156 18.022 30.9119 18.1056C30.8994 18.4063 30.7994 18.6969 30.625 18.9419V27.5C30.625 27.6236 30.5883 27.7444 30.5196 27.8472C30.4509 27.9499 30.3533 28.03 30.2392 28.0773C30.125 28.1246 29.9993 28.137 29.8781 28.1129C29.7569 28.0888 29.6455 28.0293 29.5581 27.9419L27.5 25.8838L26.875 26.5088V29.375H33.125C33.6223 29.375 34.0992 29.1775 34.4508 28.8258C34.8025 28.4742 35 27.9973 35 27.5V5C35 4.50272 34.8025 4.02581 34.4508 3.67417C34.0992 3.32254 33.6223 3.125 33.125 3.125ZM18.125 25C18.125 25.1658 18.0592 25.3247 17.9419 25.4419C17.8247 25.5592 17.6658 25.625 17.5 25.625H5.625C4.7965 25.624 4.00222 25.2945 3.41639 24.7086C2.83055 24.1228 2.50099 23.3285 2.5 22.5V10C2.50099 9.1715 2.83055 8.37722 3.41639 7.79139C4.00222 7.20555 4.7965 6.87599 5.625 6.875H16.875C17.0408 6.875 17.1997 6.94085 17.3169 7.05806C17.4342 7.17527 17.5 7.33424 17.5 7.5C17.5 7.66576 17.4342 7.82473 17.3169 7.94194C17.1997 8.05915 17.0408 8.125 16.875 8.125H5.625C5.12772 8.125 4.65081 8.32255 4.29917 8.67418C3.94754 9.02581 3.75 9.50272 3.75 10V22.5C3.75 22.9973 3.94754 23.4742 4.29917 23.8258C4.65081 24.1775 5.12772 24.375 5.625 24.375H17.5C17.6658 24.375 17.8247 24.4409 17.9419 24.5581C18.0592 24.6753 18.125 24.8342 18.125 25ZM6.25 13.125H15C15.1658 13.125 15.3247 13.1908 15.4419 13.3081C15.5592 13.4253 15.625 13.5842 15.625 13.75C15.625 13.9158 15.5592 14.0747 15.4419 14.1919C15.3247 14.3092 15.1658 14.375 15 14.375H6.25C6.08424 14.375 5.92527 14.3092 5.80806 14.1919C5.69085 14.0747 5.625 13.9158 5.625 13.75C5.625 13.5842 5.69085 13.4253 5.80806 13.3081C5.92527 13.1908 6.08424 13.125 6.25 13.125ZM5.625 11.25C5.625 11.0842 5.69085 10.9253 5.80806 10.8081C5.92527 10.6908 6.08424 10.625 6.25 10.625H15C15.1658 10.625 15.3247 10.6908 15.4419 10.8081C15.5592 10.9253 15.625 11.0842 15.625 11.25C15.625 11.4158 15.5592 11.5747 15.4419 11.6919C15.3247 11.8092 15.1658 11.875 15 11.875H6.25C6.08424 11.875 5.92527 11.8092 5.80806 11.6919C5.69085 11.5747 5.625 11.4158 5.625 11.25ZM6.25 15.625H15C15.1658 15.625 15.3247 15.6909 15.4419 15.8081C15.5592 15.9253 15.625 16.0842 15.625 16.25C15.625 16.4158 15.5592 16.5747 15.4419 16.6919C15.3247 16.8092 15.1658 16.875 15 16.875H6.25C6.08424 16.875 5.92527 16.8092 5.80806 16.6919C5.69085 16.5747 5.625 16.4158 5.625 16.25C5.625 16.0842 5.69085 15.9253 5.80806 15.8081C5.92527 15.6909 6.08424 15.625 6.25 15.625ZM6 21.9269C6.43582 21.7709 6.83859 21.5348 7.1875 21.2306C7.50625 20.9175 7.68125 20.4856 7.67125 20.0388C7.66211 19.8891 7.70706 19.7411 7.79792 19.6219C7.88878 19.5026 8.01949 19.42 8.1662 19.3891C8.31291 19.3581 8.46585 19.381 8.59711 19.4535C8.72838 19.5259 8.82922 19.6431 8.88125 19.7838C9.07016 20.3473 9.44907 20.8276 9.95312 21.1425C10.0719 21.2294 10.2194 21.2675 10.3656 21.2488C10.4113 21.2184 10.4483 21.1767 10.473 21.1277C10.4976 21.0787 10.5091 21.0242 10.5062 20.9694C10.4957 20.8195 10.5395 20.6709 10.6295 20.5507C10.7196 20.4305 10.85 20.3467 10.9968 20.3148C11.1435 20.2828 11.2969 20.3048 11.4288 20.3767C11.5607 20.4486 11.6623 20.5656 11.715 20.7063C11.7775 20.8719 11.9269 21.1069 12.51 21.2413L12.9931 21.3556C13.8331 21.6075 14.7063 21.7294 15.5831 21.7181C15.7485 21.7062 15.9118 21.7604 16.0371 21.8689C16.1625 21.9774 16.2396 22.1312 16.2516 22.2966C16.2635 22.4619 16.2093 22.6252 16.1008 22.7506C15.9923 22.8759 15.8385 22.9531 15.6731 22.965C14.6684 22.9865 13.6663 22.8537 12.7019 22.5713L12.2294 22.4594C11.9031 22.3901 11.5916 22.2642 11.3088 22.0875C11.1678 22.2326 10.9973 22.3456 10.8088 22.4188C10.566 22.5005 10.3078 22.5261 10.0538 22.4936C9.79967 22.4611 9.55627 22.3714 9.34188 22.2313C9.03042 22.0525 8.74992 21.8246 8.51125 21.5563C8.38878 21.7608 8.24187 21.9497 8.07375 22.1188C7.61557 22.5353 7.08119 22.8594 6.5 23.0731C6.348 23.1394 6.17588 23.1426 6.02152 23.082C5.86715 23.0214 5.74318 22.902 5.67688 22.75C5.61057 22.598 5.60737 22.4259 5.66796 22.2715C5.72856 22.1172 5.848 21.9932 6 21.9269Z" fill="white"/>
</svg>
