<svg width="35" height="35" viewBox="0 0 35 35" fill="none" xmlns="http://www.w3.org/2000/svg">
<g clip-path="url(#clip0_366_1580)">
<path d="M17.5 34.9999C19.012 34.9999 20.3175 34.1022 20.9139 32.8124H14.0861C14.6826 34.1022 15.9881 34.9999 17.5 34.9999ZM16.4746 25.9765V17.684C14.1373 17.2712 12.3731 15.4759 12.3731 13.3301C12.3731 12.7638 12.8322 12.3047 13.3985 12.3047C13.9648 12.3047 14.4239 12.7638 14.4239 13.3301C14.4239 14.3697 15.2812 15.2562 16.4746 15.5854V0.700885C15.7606 0.243081 14.9302 -0.000155509 14.0821 6.85136e-05C11.9257 6.85136e-05 10.0863 1.55708 9.71162 3.6585C7.24229 4.38065 5.53721 6.63916 5.53721 9.22853C5.53721 10.6131 6.02735 11.9362 6.92381 12.9883C6.02742 14.0403 5.53721 15.3635 5.53721 16.748C5.53721 19.3375 7.24229 21.5959 9.71162 22.318C10.0862 24.4194 11.9257 25.9765 14.0821 25.9765H16.4746ZM12.3731 29.0526C12.3731 29.9965 13.1383 30.7616 14.0821 30.7616H20.918C21.8618 30.7616 22.627 29.9965 22.627 29.0526V28.0272H12.3731V29.0526ZM25.2884 3.65844C24.9138 1.55708 23.0744 1.54605e-07 20.9179 1.54605e-07C20.0698 -0.000223868 19.2393 0.243013 18.5253 0.700816V8.29256C20.8627 8.70538 22.6269 10.5007 22.6269 12.6465C22.6269 13.2128 22.1678 13.6719 21.6015 13.6719C21.0352 13.6719 20.5761 13.2128 20.5761 12.6465C20.5761 11.6068 19.7188 10.7203 18.5253 10.3911V25.9765H20.9179C23.0743 25.9765 24.9138 24.4195 25.2884 22.318C27.7577 21.5959 29.4628 19.3374 29.4628 16.748C29.4628 15.3635 28.9727 14.0403 28.0763 12.9883C28.9727 11.9362 29.4628 10.6131 29.4628 9.22853C29.4629 6.63909 27.7577 4.38065 25.2884 3.65844ZM31.9247 5.81072C31.5933 5.81072 31.2681 5.65035 31.0705 5.35394C30.7564 4.88274 30.8838 4.24612 31.355 3.93201L33.4057 2.56483C33.8769 2.25058 34.5136 2.378 34.8277 2.8492C35.1418 3.3204 35.0144 3.95703 34.5432 4.27114L32.4925 5.63832C32.3245 5.75077 32.1268 5.81077 31.9247 5.81072ZM33.9736 22.9005C33.7714 22.9005 33.5738 22.8405 33.4057 22.7281L31.355 21.3609C30.8838 21.0468 30.7564 20.4102 31.0705 19.939C31.3847 19.4677 32.0214 19.3405 32.4925 19.6546L34.5432 21.0218C35.0144 21.3359 35.1418 21.9726 34.8277 22.4438C34.6301 22.7401 34.3049 22.9005 33.9736 22.9005ZM3.07533 5.81072C2.87316 5.81079 2.67551 5.75081 2.50748 5.63838L0.456706 4.27121C-0.0144923 3.9571 -0.141845 3.32047 0.172264 2.84927C0.486442 2.378 1.12314 2.25072 1.5942 2.5649L3.64497 3.93208C4.11617 4.24619 4.24352 4.88281 3.92941 5.35401C3.73185 5.65035 3.40667 5.81072 3.07533 5.81072ZM1.02641 22.9005C0.695074 22.9005 0.36989 22.7401 0.172264 22.4437C-0.141845 21.9725 -0.0144923 21.3359 0.456706 21.0218L2.50748 19.6546C2.97861 19.3403 3.6153 19.4677 3.92941 19.9389C4.24352 20.4101 4.11617 21.0468 3.64497 21.3609L1.5942 22.7281C1.4262 22.8405 1.22857 22.9005 1.02641 22.9005ZM3.07629 13.6719H1.02552C0.459235 13.6719 0.000136477 13.2128 0.000136477 12.6465C0.000136477 12.0802 0.459235 11.6211 1.02552 11.6211H3.07629C3.64258 11.6211 4.10168 12.0802 4.10168 12.6465C4.10168 13.2128 3.64258 13.6719 3.07629 13.6719ZM33.9745 13.6719H31.9238C31.3575 13.6719 30.8984 13.2128 30.8984 12.6465C30.8984 12.0802 31.3575 11.6211 31.9238 11.6211H33.9745C34.5408 11.6211 34.9999 12.0802 34.9999 12.6465C34.9999 13.2128 34.5408 13.6719 33.9745 13.6719Z" fill="white"/>
</g>
<defs>
<clipPath id="clip0_366_1580">
<rect width="35" height="35" fill="white"/>
</clipPath>
</defs>
</svg>
