<svg width="35" height="35" viewBox="0 0 35 35" fill="none" xmlns="http://www.w3.org/2000/svg">
<path d="M5.97652 26.4484C5.97652 26.4484 5.53734 26.6357 5.39451 26.6753C5.0126 26.7868 4.61249 26.8204 4.21757 26.7741C3.82264 26.7278 3.44082 26.6026 3.09441 26.4057C2.748 26.2089 2.44395 25.9444 2.20002 25.6276C1.95609 25.3109 1.77718 24.9483 1.67373 24.561C1.57029 24.1736 1.54439 23.7694 1.59754 23.3719C1.65069 22.9744 1.78184 22.5916 1.98331 22.2458C2.18478 21.9 2.45254 21.5981 2.77095 21.3579C3.08935 21.1177 3.45201 20.9439 3.83774 20.8467C3.98413 20.8071 4.45188 20.735 4.45188 20.735H15.8777L5.97652 26.4484Z" fill="white"/>
<path d="M12.5646 30.4647C12.5646 30.4647 12.2754 30.8502 12.1718 30.9547C11.6061 31.5202 10.842 31.8375 10.0456 31.8375C9.24914 31.8375 8.48496 31.5202 7.91927 30.9547C7.64106 30.6746 7.42033 30.3419 7.26973 29.9757C7.11913 29.6094 7.04161 29.2168 7.04161 28.8203C7.04161 28.4238 7.11913 28.0311 7.26973 27.6649C7.42033 27.2986 7.64106 26.966 7.91927 26.6859C8.02996 26.5778 8.39773 26.2824 8.39773 26.2824L18.2954 20.5475L12.5646 30.4647Z" fill="white"/>
<path d="M20.309 30.789C20.309 30.789 20.2518 31.2681 20.2126 31.4086C20.0071 32.1854 19.5042 32.8479 18.8145 33.2506C18.1248 33.6532 17.3048 33.7629 16.5349 33.5556C15.765 33.3483 15.1083 32.8409 14.7092 32.1451C14.3101 31.4492 14.2013 30.6219 14.4068 29.8452C14.4461 29.7011 14.6175 29.2544 14.6175 29.2544L20.3411 19.3192L20.309 30.789Z" fill="white"/>
<path d="M27.2049 28.8805C27.2049 28.8805 27.3941 29.3237 27.4328 29.4656C27.6398 30.2383 27.5325 31.0587 27.1343 31.7484C26.7361 32.4381 26.0792 32.9413 25.3065 33.1484C24.9249 33.2493 24.5264 33.2741 24.1339 33.2214C23.7414 33.1687 23.3627 33.0395 23.0193 32.8413C22.6759 32.643 22.3746 32.3796 22.1327 32.066C21.8909 31.7525 21.7131 31.395 21.6097 31.014C21.5714 30.8641 21.4995 30.3979 21.4995 30.3979L21.4817 18.9588L27.2049 28.8805Z" fill="white"/>
<path d="M31.358 22.3358C31.358 22.3358 31.7443 22.6248 31.8464 22.7291C32.4163 23.2954 32.7386 24.0622 32.7425 24.8608C32.7463 25.6595 32.4314 26.4245 31.8669 26.9875C31.3024 27.5506 30.5346 27.8657 29.7325 27.8634C28.9303 27.8611 28.1595 27.5416 27.5895 26.9753C27.4844 26.8692 27.1832 26.4975 27.1832 26.4975L21.4409 16.573L31.358 22.3358Z" fill="white"/>
<path d="M32.1309 15.1688C32.1309 15.1688 32.61 15.2259 32.7505 15.2652C33.5272 15.4707 34.1898 15.9736 34.5924 16.6633C34.9951 17.353 35.1048 18.173 34.8975 18.9429C34.6901 19.7128 34.1828 20.3695 33.4869 20.7686C32.7911 21.1677 31.9638 21.2765 31.187 21.071C31.043 21.0317 30.5963 20.8603 30.5963 20.8603L20.661 15.1367L32.1309 15.1688Z" fill="white"/>
<path d="M4.35733 13.9338C4.35733 13.9338 3.91458 13.7464 3.77176 13.7032C3.00518 13.4949 2.18799 13.6024 1.49996 14.002C0.811933 14.4016 0.309425 15.0606 0.102984 15.834C-0.103457 16.6074 0.00307887 17.4318 0.399156 18.126C0.795232 18.8201 1.44841 19.3271 2.21498 19.5354C2.36138 19.575 2.83269 19.6471 2.83269 19.6471H14.2693L4.35733 13.9338Z" fill="white"/>
<path d="M8.23495 7.8638C8.23495 7.8638 7.94574 7.47834 7.84219 7.37748C7.27742 6.81015 6.51289 6.49164 5.71591 6.49164C4.91893 6.49164 4.1544 6.81015 3.58963 7.37748C3.31067 7.65675 3.08926 7.98898 2.93816 8.35499C2.78707 8.72101 2.70928 9.11358 2.70928 9.51007C2.70928 9.90656 2.78707 10.2991 2.93816 10.6651C3.08926 11.0312 3.31067 11.3634 3.58963 11.6427C3.69674 11.7507 4.06808 12.0497 4.06808 12.0497L13.9622 17.7883L8.23495 7.8638Z" fill="white"/>
<path d="M14.1665 4.13177C14.1665 4.13177 14.1094 3.65266 14.0701 3.51217C13.8646 2.73543 13.3617 2.07286 12.672 1.67022C11.9823 1.26758 11.1623 1.15785 10.3924 1.36517C9.62251 1.57249 8.96578 2.07988 8.56669 2.77572C8.1676 3.47156 8.05884 4.29884 8.26433 5.07559C8.30004 5.21968 8.475 5.66277 8.475 5.66277L14.1879 15.6016L14.1665 4.13177Z" fill="white"/>
<path d="M21.0539 4.40187C21.0539 4.40187 21.2431 3.95518 21.2788 3.81469C21.4843 3.03747 21.3754 2.20973 20.9759 1.51355C20.5765 0.817378 19.9193 0.309798 19.149 0.102476C18.3786 -0.104846 17.5581 0.00507242 16.8681 0.40805C16.1781 0.811028 15.675 1.47406 15.4695 2.25127C15.4302 2.39897 15.3588 2.86727 15.3588 2.86727V14.3443L21.0539 4.40187Z" fill="white"/>
<path d="M26.944 8.20585C26.944 8.20585 27.3297 7.91406 27.4332 7.80959C27.7123 7.53001 27.9338 7.19748 28.0849 6.83117C28.236 6.46485 28.3139 6.07199 28.3139 5.6752C28.3139 5.27842 28.236 4.88555 28.0849 4.51924C27.9338 4.15292 27.7123 3.8204 27.4332 3.54081C26.8681 2.97959 26.107 2.66504 25.3141 2.66504C24.5211 2.66504 23.76 2.97959 23.1949 3.54081C23.0878 3.64888 22.7915 4.01992 22.7915 4.01992L17.0785 13.9552L26.944 8.20585Z" fill="white"/>
<path d="M30.7552 13.977C30.7552 13.977 31.2301 13.9158 31.3729 13.8798C31.7525 13.7766 32.1082 13.5991 32.4198 13.3573C32.7313 13.1154 32.9926 12.8141 33.1887 12.4703C33.3849 12.1266 33.512 11.7473 33.5628 11.3541C33.6136 10.9608 33.5871 10.5613 33.4849 10.1783C33.3827 9.7954 33.2067 9.43651 32.967 9.12218C32.7273 8.80785 32.4286 8.54423 32.0879 8.34636C31.7473 8.1485 31.3713 8.02028 30.9815 7.96901C30.5917 7.91774 30.1957 7.94443 29.8161 8.04756C29.6698 8.08718 29.2306 8.2637 29.2306 8.2637L19.3293 13.995L30.7552 13.977Z" fill="white"/>
</svg>
