<svg width="35" height="35" viewBox="0 0 35 35" fill="none" xmlns="http://www.w3.org/2000/svg">
<g clip-path="url(#clip0_366_1450)">
<path d="M18.1255 34.9792C20.8019 34.599 23.1483 31.8055 24.6247 27.6803C22.4904 27.2022 20.3125 26.9458 18.1256 26.9151L18.1255 34.9792ZM22.4015 34.3232C22.5597 34.2774 22.7173 34.2313 22.8737 34.1806C23.0056 34.1381 23.1358 34.0923 23.2659 34.0468C23.4201 33.9939 23.5734 33.9386 23.7258 33.881C23.8559 33.8315 23.9849 33.7789 24.114 33.7264C24.2631 33.6638 24.4118 33.6015 24.5591 33.5389C24.8337 33.4171 25.1055 33.2888 25.374 33.1541C25.4991 33.0903 25.6241 33.0252 25.7493 32.9583C25.8895 32.8832 26.0288 32.8065 26.1671 32.7276C26.2907 32.6575 26.4132 32.5857 26.5348 32.5124C26.6705 32.429 26.8055 32.3456 26.9396 32.2621C27.06 32.1859 27.1793 32.1079 27.2975 32.0283C27.4293 31.9388 27.5598 31.8474 27.6891 31.7543C27.8049 31.6717 27.9201 31.5883 28.0348 31.5041C28.162 31.4063 28.2883 31.3075 28.4138 31.2075C28.5253 31.1187 28.6365 31.0304 28.7461 30.9391C28.8711 30.8353 28.9908 30.7278 29.112 30.6203C29.2184 30.5259 29.3253 30.4324 29.4291 30.3356C29.5485 30.2241 29.6648 30.1087 29.7813 29.9941C29.882 29.8946 29.984 29.7965 30.0827 29.6945C30.1011 29.6756 30.1184 29.6551 30.1374 29.6355C28.7732 28.9309 27.336 28.3778 25.8513 27.9862C25.0791 30.4488 23.7051 32.6799 21.8536 34.4778C21.9043 34.4647 21.955 34.4539 22.0057 34.4408C22.1394 34.4033 22.2708 34.362 22.4015 34.3232ZM35.0001 18.1399H27.4999C27.4715 21.0684 27.0467 23.9795 26.237 26.7939C27.8881 27.2349 29.4815 27.869 30.9842 28.683C33.4516 25.7092 34.8638 22.0016 35 18.1399H35.0001ZM18.1255 16.8889H26.249C26.2171 14.064 25.8029 11.2565 25.0175 8.54274C22.7555 9.05861 20.4454 9.33411 18.1255 9.36467V16.8889ZM18.1255 0.0494385V8.11364C20.3125 8.08286 22.4904 7.82647 24.6247 7.34856C23.1483 3.22314 20.8021 0.429751 18.1256 0.0494385H18.1255ZM18.1255 25.6641C20.4454 25.6949 22.7555 25.9705 25.0175 26.4863C25.8029 23.7725 26.2171 20.9649 26.249 18.1399H18.1255V25.6641ZM30.9843 6.34586C29.4816 7.15982 27.8882 7.79388 26.2371 8.23491C27.0468 11.0493 27.4716 13.9605 27.5 16.8889H35.0001C34.8635 13.0273 33.4513 9.31981 30.9843 6.34586ZM30.1392 5.39688C30.1208 5.37827 30.1035 5.3581 30.0854 5.33886C29.9865 5.23682 29.8838 5.13846 29.7831 5.03924C29.667 4.92469 29.5512 4.80897 29.4315 4.69779C29.328 4.60122 29.2208 4.5099 29.1145 4.41373C28.9933 4.30622 28.872 4.19777 28.7474 4.09393C28.6392 4.00261 28.5284 3.91527 28.4184 3.82762C28.2928 3.72563 28.1653 3.62592 28.0361 3.52855C27.9229 3.44377 27.8086 3.36039 27.6934 3.27842C27.5631 3.18387 27.4313 3.09141 27.2981 3.00108C27.181 2.92242 27.0628 2.84534 26.9435 2.76988C26.8089 2.6828 26.6729 2.5979 26.5355 2.51521C26.4148 2.44267 26.2932 2.37159 26.1708 2.30199C26.0314 2.22226 25.8909 2.14448 25.7494 2.06868C25.6241 2.00605 25.4991 1.93794 25.374 1.87531C25.2301 1.8026 25.085 1.7327 24.9363 1.66397C24.8101 1.60397 24.683 1.54592 24.5551 1.48984C24.4069 1.42416 24.2573 1.36497 24.1079 1.30234C23.9795 1.2495 23.8504 1.19818 23.7207 1.14839C23.5683 1.09071 23.4151 1.03553 23.261 0.982862C23.1308 0.936517 23.0001 0.891815 22.8688 0.848767C22.7124 0.7981 22.556 0.751969 22.3954 0.705524C22.2653 0.667368 22.1346 0.628586 22.0029 0.593714C21.9526 0.580031 21.9013 0.569319 21.8505 0.556183C23.702 2.35406 25.076 4.58518 25.8483 7.04769C27.3347 6.65617 28.7736 6.10259 30.1392 5.39688ZM0 16.8889H7.50007C7.52852 13.9605 7.95324 11.0494 8.76267 8.23491C7.1116 7.79409 5.51829 7.16003 4.0158 6.34586C1.54849 9.31963 0.136278 13.0272 0 16.8889ZM16.8745 34.9792V26.9152C14.6876 26.946 12.5097 27.2024 10.3754 27.6803C11.8515 31.8057 14.1981 34.5991 16.8745 34.9794V34.9792ZM16.8745 18.1399H8.75109C8.78281 20.9649 9.19707 23.7726 9.98258 26.4863C12.2445 25.9702 14.5546 25.6946 16.8745 25.6641V18.1399ZM16.8745 0.0494385C14.1981 0.429751 11.8515 3.22314 10.3754 7.34856C12.5096 7.82677 14.6876 8.08316 16.8745 8.11364V0.0494385ZM16.8745 9.36467C14.5547 9.33411 12.2445 9.0586 9.98258 8.54274C9.19707 11.2564 8.78281 14.064 8.75109 16.8889H16.8745V9.36467ZM13.1446 0.555636C13.094 0.568693 13.0432 0.579405 12.9925 0.592541C12.86 0.627961 12.7293 0.667368 12.5973 0.705524C12.4403 0.751343 12.2845 0.797475 12.127 0.847516C11.9941 0.890598 11.8634 0.936417 11.7327 0.982001C11.5797 1.03595 11.4263 1.08975 11.2748 1.14714C11.1441 1.19726 11.0152 1.24917 10.8857 1.30234C10.7369 1.36489 10.5879 1.42752 10.441 1.48984C10.3121 1.54637 10.1848 1.60556 10.0571 1.66514C9.91248 1.73302 9.76881 1.80288 9.62611 1.87469C9.35837 2.01024 9.09408 2.15251 8.83351 2.30137C8.70924 2.37078 8.58625 2.44247 8.46461 2.51639C8.32872 2.59825 8.19431 2.68293 8.06053 2.76659C7.94012 2.84353 7.82072 2.92109 7.70258 3.00116C7.5708 3.09065 7.44026 3.18196 7.31101 3.27506C7.19509 3.35776 7.07973 3.44124 6.96494 3.5255C6.83695 3.62167 6.71474 3.72191 6.58588 3.82183C6.47477 3.91066 6.36265 3.99893 6.25389 4.09081C6.12871 4.19409 6.00994 4.30098 5.88921 4.40794C5.78233 4.50317 5.67451 4.59575 5.57004 4.69443C5.4512 4.8053 5.33548 4.92039 5.21944 5.03463C5.11858 5.13424 5.016 5.23252 4.91709 5.33487C4.8991 5.3538 4.88167 5.37459 4.86267 5.39383C6.22676 6.09875 7.66405 6.65193 9.14877 7.04347C9.92076 4.58232 11.2941 2.35253 13.1446 0.555636ZM5.21671 29.9895C5.33305 30.104 5.44885 30.2198 5.56825 30.3313C5.67208 30.4274 5.77897 30.5188 5.88554 30.6151C6.00681 30.7228 6.12808 30.831 6.25271 30.9349C6.36085 31.0256 6.4711 31.1132 6.58166 31.2011C6.70684 31.3025 6.83178 31.4033 6.96431 31.5008C7.07706 31.5854 7.19161 31.6672 7.30608 31.7513C7.43681 31.845 7.5688 31.9388 7.70195 32.0288C7.81917 32.1075 7.93738 32.1847 8.05654 32.2604C8.19181 32.3471 8.32684 32.4324 8.46461 32.5148C8.58526 32.5875 8.70707 32.6586 8.82928 32.7282C8.96861 32.808 9.1091 32.8857 9.25072 32.9613C9.37567 33.0239 9.50093 33.092 9.62611 33.1547C9.76998 33.2274 9.9151 33.2973 10.0638 33.3663C10.189 33.4253 10.3161 33.4833 10.445 33.5402C10.5931 33.6058 10.7425 33.665 10.8921 33.7276C11.021 33.7802 11.1493 33.8321 11.2794 33.8816C11.4312 33.9399 11.5851 33.9943 11.7391 34.0474C11.8692 34.0929 11.9993 34.1388 12.1312 34.1812C12.2876 34.2319 12.444 34.2783 12.6047 34.3245C12.7348 34.3626 12.8655 34.4014 12.9968 34.4365C13.0475 34.4503 13.0988 34.461 13.1496 34.474C11.2981 32.676 9.92407 30.4448 9.15174 27.9822C7.66703 28.374 6.22977 28.9274 4.86572 29.6325C4.88409 29.6511 4.90153 29.6713 4.91982 29.6905C5.01365 29.7919 5.11467 29.8903 5.21671 29.9895ZM4.0158 28.6829C5.51841 27.869 7.11168 27.2349 8.76267 26.7938C7.95324 23.9794 7.52852 21.0683 7.50007 18.1398H0C0.136471 22.0015 1.54866 25.709 4.0158 28.6829Z" fill="white"/>
</g>
<defs>
<clipPath id="clip0_366_1450">
<rect width="35" height="35" fill="white"/>
</clipPath>
</defs>
</svg>
