<svg width="35" height="35" viewBox="0 0 35 35" fill="none" xmlns="http://www.w3.org/2000/svg">
<path d="M18.5294 26.7461V34.8468C21.2652 34.2264 23.6801 30.0163 24.486 26.7461H18.5294ZM10.0495 24.6873H16.4706V16.452H9.30883C9.40464 19.9074 9.65561 22.5544 10.0495 24.6873ZM11.8461 30.2403C13.147 32.7929 14.7602 34.3879 16.4706 34.8468V26.7461H10.514C10.8821 28.0996 11.3278 29.2235 11.8461 30.2403ZM27.7941 17.9437C27.7941 20.2818 27.5768 22.5586 27.1616 24.6873H33.4566C34.4672 22.4521 34.9999 20.0079 34.9999 17.4814V16.452H27.7941V17.9437ZM8.31456 26.7461H2.64703C4.71704 30.0838 8.0548 32.7571 11.7347 34.0129C10.1101 31.9437 9.04778 29.4349 8.31456 26.7461ZM24.9483 31.3543C24.434 32.3635 23.8696 33.2512 23.2652 34.0128C26.945 32.7573 30.2832 30.0836 32.353 26.746H26.6854C26.2346 28.42 25.6524 29.9729 24.9483 31.3543ZM18.5294 24.6873H24.9505C25.3444 22.5544 25.5954 19.9075 25.6912 16.452H18.5294V24.6873ZM7.20588 17.9437V16.452H0V17.4814C0 20.0078 0.532755 22.4521 1.54329 24.6873H7.83842C7.42316 22.5586 7.20588 20.2818 7.20588 17.9437ZM8.23529 12.8684C8.23529 11.4831 8.53863 10.1476 9.10645 8.93711C6.90125 9.77327 4.19945 8.96127 2.8081 7.1644C1.1014 8.48335 0 10.5496 0 12.8685V14.3245H8.23529V12.8684ZM7.27451 7.18725C9.26114 7.18725 10.8775 5.57101 10.8775 3.58431C10.6795 -1.19546 3.8688 -1.19408 3.67157 3.58431C3.67157 5.57101 5.28788 7.18725 7.27451 7.18725ZM32.1918 7.1644C30.8008 8.96127 28.0982 9.77327 25.8936 8.93711C26.4614 10.1476 26.7647 11.4831 26.7647 12.8684V14.3245H35V12.8685C35 10.5496 33.8986 8.48335 32.1918 7.1644ZM27.8627 7.18725C29.8494 7.18725 31.4657 5.57101 31.4657 3.58431C31.2678 -1.19546 24.457 -1.19408 24.2598 3.58431C24.2598 5.57101 25.8761 7.18725 27.8627 7.18725ZM10.2941 14.3245H24.7059V12.8685C24.7059 10.5496 23.6045 8.48335 21.8977 7.1644C19.7039 9.94978 15.295 9.94861 13.1022 7.1644C11.3955 8.48335 10.2941 10.5496 10.2941 12.8685V14.3245Z" fill="white"/>
<path d="M17.5686 7.18725C19.5553 7.18725 21.1716 5.57101 21.1716 3.58431C20.9736 -1.19546 14.1629 -1.19408 13.9657 3.58431C13.9657 5.57101 15.582 7.18725 17.5686 7.18725Z" fill="white"/>
</svg>
