<svg width="35" height="35" viewBox="0 0 35 35" fill="none" xmlns="http://www.w3.org/2000/svg">
<g clip-path="url(#clip0_336_1350)">
<path d="M8.61834 22.9991L16.4746 27.5819V17.762L8.61834 13.1874V22.9991ZM9.63628 11.407L17.5 15.986L25.3637 11.407L17.5 6.81982L9.63628 11.407ZM26.3817 22.9991V13.1874L18.5254 17.762V27.5819L26.3817 22.9991Z" fill="white"/>
<path d="M29.8744 5.12559C26.569 1.82034 22.1744 0 17.5 0C12.3793 0 7.60628 2.20452 4.30568 5.9997L4.13731 4.8017L2.10649 5.08717L2.76104 9.74436L7.41966 9.08968L7.13426 7.05879L5.9606 7.22374C8.87038 3.94912 13.0356 2.05078 17.5 2.05078C26.0187 2.05078 32.9492 8.98126 32.9492 17.5C32.9492 18.7175 32.8073 19.9292 32.5274 21.1016L34.5222 21.5778C34.8392 20.2496 35 18.8777 35 17.5001C35 12.8256 33.1797 8.43097 29.8744 5.12559ZM27.7871 25.5136L28.037 27.5492L29.3794 27.3843C26.4648 30.9041 22.167 32.9492 17.5 32.9492C8.98126 32.9492 2.05078 26.0187 2.05078 17.5C2.05078 16.1562 2.22332 14.8228 2.56354 13.5368L0.581055 13.0123C0.195508 14.4693 0 15.9792 0 17.5C0 22.1744 1.82027 26.569 5.12559 29.8744C8.43097 33.1797 12.8256 35 17.5 35C20.5583 35 23.5687 34.1992 26.2058 32.6841C27.9954 31.6559 29.5917 30.3145 30.9144 28.738L31.0759 30.053L33.1114 29.803L32.5134 24.9334L27.7871 25.5136Z" fill="white"/>
</g>
<defs>
<clipPath id="clip0_336_1350">
<rect width="35" height="35" fill="white"/>
</clipPath>
</defs>
</svg>
