<svg width="35" height="35" viewBox="0 0 35 35" fill="none" xmlns="http://www.w3.org/2000/svg">
<path d="M32.7995 15.4127C32.2731 15.1505 31.717 14.5662 32.0863 12.3576C32.4327 10.2857 31.7911 9.86183 30.9164 9.52297C30.8653 9.50321 30.8139 9.48325 30.7621 9.46227C30.701 9.43745 30.6892 9.34031 30.7074 9.01055C30.7332 8.53976 30.7813 7.66332 29.5909 7.50343C29.0081 7.42522 28.6163 7.51279 28.3933 7.7716C28.0938 8.11935 28.2306 8.59116 28.3305 8.93569C28.3551 9.01273 28.3749 9.09119 28.39 9.17065C28.4033 9.27667 28.372 9.34968 28.3 9.50472C28.1609 9.77393 28.0882 10.0726 28.0881 10.3756C28.0881 10.8405 28.0021 11.0006 27.0905 11.642C26.8351 11.811 26.5648 11.9564 26.2832 12.0765C25.6285 12.3787 24.8864 12.7212 24.7706 13.7831C24.6758 14.6522 24.1495 15.2587 23.9763 15.289C23.9563 15.2641 23.9403 15.2362 23.9289 15.2064C23.8059 14.9138 23.6145 14.7176 23.3605 14.6231C22.8342 14.4273 22.2217 14.7316 21.6292 15.0257C21.5513 15.0644 21.4739 15.1028 21.3979 15.1394C20.911 15.3737 20.3725 15.4788 20.0976 15.4812C20.1549 15.389 20.2312 15.2908 20.3057 15.1946C20.5381 14.8953 20.8891 14.4427 20.5723 14.0009C20.2465 13.5466 19.87 13.7144 19.5947 13.8368C19.3621 13.9471 19.1171 14.0295 18.865 14.082C18.2498 14.2083 17.9874 14.5358 17.7957 14.775C17.6485 14.9588 17.5824 15.0341 17.4226 15.0541C16.7618 15.1364 16.7891 15.7987 16.8038 16.1546C16.8114 16.3397 16.8229 16.6195 16.7455 16.6758C16.4566 16.8866 16.1539 17.3081 16.172 17.7354C16.1736 17.7763 16.1652 17.8169 16.1476 17.8539C16.13 17.8908 16.1036 17.9229 16.0708 17.9473C16.0426 17.9693 16.0094 17.984 15.9741 17.9899C15.9388 17.9959 15.9026 17.993 15.8687 17.9815C15.7564 17.9432 15.7384 17.8986 15.7384 17.8068C15.734 17.6904 15.7392 17.5738 15.754 17.4582C15.7635 17.4492 15.778 17.4362 15.7903 17.4252C15.96 17.2755 16.1069 17.1018 16.2265 16.9097C16.8191 16.0062 16.2345 15.2653 16.2092 15.2342C16.1646 15.179 16.1038 15.1391 16.0355 15.12C15.5467 14.9833 15.2646 15.4036 15.0379 15.741C14.7655 16.1465 14.4568 16.6062 13.7809 16.679C12.841 16.7802 12.7546 16.6895 12.624 16.552C12.4288 16.3344 12.1807 16.1711 11.9038 16.0778C11.2899 15.8484 10.2441 16.0304 9.23282 16.2064C8.70482 16.2983 7.90665 16.4372 7.73063 16.3668C7.72796 16.3658 7.72625 16.3649 7.72557 16.3647C7.71873 16.3519 7.65625 16.206 7.82612 15.7452C7.82904 15.7371 7.83374 15.7298 7.83988 15.7237C7.84602 15.7176 7.85344 15.713 7.8616 15.7102C7.87124 15.7065 7.88158 15.705 7.89188 15.7057C7.90218 15.7065 7.91219 15.7095 7.92121 15.7145C8.33451 15.9383 8.75369 15.9512 9.13322 15.7517C9.48548 15.5665 9.66937 15.1898 9.62479 14.7438C9.56642 14.1577 9.09111 13.4425 8.29589 13.2093C7.62296 13.0121 7.21465 13.5306 6.82028 14.0322C6.36043 14.6172 5.83926 15.2801 4.74982 15.4562C4.39193 15.5083 4.04918 15.6358 3.74425 15.8302C3.43931 16.0247 3.17914 16.2816 2.98095 16.5842C2.22824 17.6949 2.16952 19.4403 2.44542 20.6773C2.6116 21.4228 2.4891 21.7034 2.42874 21.7894C2.4057 21.8264 2.37036 21.854 2.32894 21.8675C2.12728 21.8553 1.3382 21.8447 0.957989 22.3683C0.710186 22.7096 0.705606 23.1667 0.944317 23.7269C1.93915 26.0605 2.61803 27.1364 3.21385 27.3242C3.30227 27.3542 3.39626 27.3641 3.48899 27.3533C3.58172 27.3424 3.67086 27.3109 3.74992 27.2613C4.0062 27.1017 4.13492 26.7363 4.37924 25.9909C4.67318 25.0928 5.1182 23.7356 5.88314 23.5095C6.26596 23.3966 6.74858 23.5667 7.31705 24.0158C7.67895 24.5814 8.33759 25.4531 8.9088 25.3447C9.32367 25.2659 9.46367 24.8842 9.56587 24.6055C9.63655 24.4126 9.70341 24.2304 9.81989 24.1748C9.97959 24.0956 10.1288 23.9969 10.2642 23.8809C10.3142 23.8354 10.3697 23.7963 10.4294 23.7647C10.4756 23.7729 10.5193 23.7918 10.5569 23.8199C10.6116 23.8529 10.6612 23.8838 10.7079 23.9127C11.1317 24.1753 11.349 24.2947 12.0539 24.3751C12.2017 24.3919 12.2551 24.4664 12.3746 24.7329C12.4913 24.9931 12.7088 25.4776 13.3406 25.3665C13.7627 25.2922 13.8785 25.4615 14.2156 26.0599L14.279 26.172C14.7878 27.0669 15.6268 27.5179 16.7787 27.5179C17.0246 27.5169 17.2701 27.4985 17.5134 27.4629C18.5638 27.3131 18.9541 27.052 19.1874 26.896C19.3368 26.7961 19.3369 26.7961 19.4933 26.84C19.908 26.9563 20.2418 26.781 20.5101 26.6404C20.8324 26.4712 21.0456 26.3597 21.4236 26.5909C22.0679 26.985 22.5159 26.8109 22.8761 26.6711C23.1593 26.561 23.4041 26.466 23.8116 26.5675C24.5744 26.7575 24.8917 26.5119 25.171 26.2951C25.4153 26.0822 25.7198 25.9506 26.0422 25.9186C26.9377 25.7956 26.9577 25.0051 26.9709 24.482C26.9872 23.8453 27.0431 23.7282 27.3451 23.6985C27.8838 23.6458 27.9813 23.7816 28.1291 23.9874C28.271 24.1848 28.4855 24.4831 29.0097 24.4831C29.2484 24.4831 29.9748 24.4831 30.2397 24.786C30.345 24.9065 30.3803 25.082 30.3479 25.3226C30.2853 25.7861 30.3394 26.178 30.5087 26.4873C30.5912 26.6362 30.716 26.7573 30.8673 26.8353C31.0185 26.9133 31.1895 26.9448 31.3587 26.9258C31.5279 26.9068 31.6876 26.8382 31.8178 26.7285C31.948 26.6188 32.0428 26.473 32.0902 26.3096C32.8003 23.8536 32.4101 22.9009 32.0327 21.9795C31.9045 21.6877 31.7997 21.3862 31.7194 21.0778C31.6338 20.7214 31.5842 20.5292 31.477 20.3962C31.2884 20.1622 31.0292 20.2157 30.8744 20.2476C30.6691 20.2944 30.4576 20.3081 30.2479 20.2881C30.2105 20.2875 30.1738 20.2779 30.1409 20.26C30.108 20.2422 30.08 20.2166 30.0591 20.1855C29.8472 19.8904 29.9216 19.0781 30.0418 18.5959C30.0584 18.5431 30.0588 18.4866 30.0429 18.4336C30.0361 18.3858 29.9959 17.9843 30.3964 17.2911C30.6815 16.7973 30.7122 16.2136 30.7346 15.7876C30.7376 15.7296 30.7414 15.6635 30.7455 15.6007C30.9085 15.7565 31.0395 15.9967 31.2054 16.3007C31.3876 16.6513 31.5964 16.9875 31.8298 17.3064C32.4005 18.0652 33.1481 18.6019 33.6482 18.6124C33.7402 18.6173 33.832 18.6009 33.9166 18.5645C34.0012 18.5281 34.0763 18.4727 34.1359 18.4026C34.2727 18.2358 34.3006 17.9739 34.2211 17.602C34.0737 16.9143 33.5354 15.7795 32.7995 15.4127Z" fill="white"/>
</svg>
