<svg width="35" height="35" viewBox="0 0 35 35" fill="none" xmlns="http://www.w3.org/2000/svg">
<g clip-path="url(#clip0_336_1177)">
<path d="M26.53 3.35995C26.53 1.88995 27.72 0.699951 29.19 0.699951C30.66 0.699951 31.85 1.88995 31.85 3.35995C31.85 4.82995 30.66 6.01995 29.19 6.01995C27.72 6.01995 26.53 4.82995 26.53 3.35995Z" fill="white"/>
<path d="M31.08 5.94995C31.01 5.94995 30.87 5.94995 30.8 6.01995L29.19 7.41995L27.58 6.01995C27.51 5.94995 27.37 5.94995 27.3 5.94995C25.9 6.15995 24.08 6.64995 24.08 9.23995C24.08 9.58995 24.15 9.93995 24.15 10.36C24.36 11.62 25.48 12.46 26.74 12.46H31.57C32.83 12.46 33.95 11.55 34.16 10.36C34.23 9.93995 34.23 9.58995 34.23 9.23995C34.3 6.64995 32.48 6.15995 31.08 5.94995ZM32.69 10.08C32.62 10.57 32.13 10.99 31.57 10.99H26.74C26.18 10.99 25.76 10.64 25.62 10.08C25.55 9.79995 25.55 9.51995 25.55 9.23995C25.55 9.02995 25.69 8.88995 25.9 8.88995C26.11 8.88995 26.25 9.02995 26.25 9.23995C26.25 9.44995 26.25 9.65995 26.32 9.93995C26.32 10.08 26.53 10.22 26.74 10.22H31.57C31.78 10.22 31.92 10.08 31.99 9.93995C32.06 9.65995 32.06 9.44995 32.06 9.23995C32.06 9.02995 32.2 8.88995 32.41 8.88995C32.62 8.88995 32.76 9.02995 32.76 9.23995C32.76 9.51995 32.76 9.79995 32.69 10.08ZM3.22 3.35995C3.22 1.88995 4.34 0.699951 5.81 0.699951C7.28 0.699951 8.47 1.88995 8.47 3.35995C8.47 4.82995 7.28 6.01995 5.81 6.01995C4.34 6.01995 3.22 4.82995 3.22 3.35995Z" fill="white"/>
<path d="M7.7 5.94995C7.63 5.94995 7.49 5.94995 7.42 6.01995L5.81 7.41995L4.2 6.01995C4.13 5.94995 4.06 5.94995 3.92 5.94995C2.52 6.15995 0.700001 6.64995 0.700001 9.23995C0.700001 9.58995 0.700001 9.93995 0.770001 10.36C0.980001 11.62 2.1 12.46 3.36 12.46H8.26C9.52 12.46 10.64 11.55 10.85 10.36C10.92 9.93995 10.92 9.58995 10.92 9.23995C10.99 6.64995 9.1 6.15995 7.7 5.94995ZM9.38 10.08C9.31 10.57 8.82 10.99 8.26 10.99H3.36C2.8 10.99 2.38 10.64 2.24 10.08C2.17 9.79995 2.17 9.51995 2.17 9.23995C2.17 9.02995 2.31 8.88995 2.52 8.88995C2.73 8.88995 2.87 9.02995 2.87 9.23995C2.87 9.44995 2.87 9.65995 2.94 9.93995C3.01 10.08 3.15 10.22 3.36 10.22H8.26C8.47 10.22 8.61 10.08 8.68 9.93995C8.75 9.65995 8.75 9.44995 8.75 9.23995C8.75 9.02995 8.89 8.88995 9.1 8.88995C9.31 8.88995 9.45 9.02995 9.45 9.23995C9.45 9.51995 9.38 9.79995 9.38 10.08ZM31.08 27.79C31.01 27.79 30.87 27.7899 30.8 27.86L29.19 29.26L27.58 27.86C27.51 27.7899 27.37 27.79 27.3 27.79C25.9 28 24.08 28.49 24.08 31.08C24.08 31.43 24.15 31.78 24.15 32.2C24.36 33.46 25.48 34.3 26.74 34.3H31.57C32.83 34.3 33.95 33.39 34.16 32.13C34.23 31.71 34.23 31.36 34.23 31.01C34.3 28.49 32.48 27.93 31.08 27.79ZM32.69 31.85C32.62 32.34 32.13 32.76 31.57 32.76H26.74C26.18 32.76 25.76 32.41 25.62 31.85C25.55 31.57 25.55 31.2899 25.55 31.01C25.55 30.7999 25.69 30.66 25.9 30.66C26.11 30.66 26.25 30.7999 26.25 31.01C26.25 31.2199 26.25 31.5 26.32 31.7099C26.32 31.85 26.53 31.99 26.74 31.99H31.57C31.78 31.99 31.92 31.85 31.99 31.7099C32.06 31.43 32.06 31.2199 32.06 31.01C32.06 30.7999 32.2 30.66 32.41 30.66C32.62 30.66 32.76 30.7999 32.76 31.01C32.76 31.2899 32.76 31.57 32.69 31.85Z" fill="white"/>
<path d="M26.53 25.1999C26.53 23.7299 27.72 22.5399 29.19 22.5399C30.66 22.5399 31.85 23.7299 31.85 25.1999C31.85 26.6699 30.66 27.8599 29.19 27.8599C27.72 27.8599 26.53 26.6699 26.53 25.1999ZM3.22 25.1999C3.22 23.7299 4.41 22.5399 5.88 22.5399C7.35 22.5399 8.54 23.7299 8.54 25.1999C8.54 26.6699 7.35 27.8599 5.88 27.8599C4.34 27.8599 3.22 26.6699 3.22 25.1999Z" fill="white"/>
<path d="M7.7 27.7899C7.63 27.7899 7.49 27.7899 7.42 27.8599L5.81 29.2599L4.2 27.8599C4.13 27.7899 3.99 27.7899 3.92 27.7899C2.52 28 0.700001 28.49 0.700001 31.08C0.700001 31.43 0.700001 31.7799 0.770001 32.1999C0.980001 33.4599 2.1 34.2999 3.36 34.2999H8.26C9.52 34.2999 10.64 33.3899 10.85 32.1299C10.92 31.7099 10.92 31.3599 10.92 31.0099C10.99 28.4899 9.1 27.93 7.7 27.7899ZM9.38 31.8499C9.31 32.3399 8.82 32.7599 8.26 32.7599H3.36C2.8 32.7599 2.38 32.4099 2.24 31.8499C2.17 31.5699 2.17 31.2899 2.17 31.0099C2.17 30.7999 2.31 30.6599 2.52 30.6599C2.73 30.6599 2.87 30.7999 2.87 31.0099C2.87 31.2199 2.87 31.4999 2.94 31.7099C3.01 31.8499 3.15 31.99 3.36 31.99H8.26C8.47 31.99 8.61 31.8499 8.68 31.7099C8.75 31.4299 8.75 31.2199 8.75 31.0099C8.75 30.7999 8.89 30.6599 9.1 30.6599C9.31 30.6599 9.45 30.7999 9.45 31.0099C9.45 31.2899 9.38 31.5699 9.38 31.8499ZM17.71 11.2C12.88 11.2 8.96 15.12 8.96 19.95C8.96 24.78 12.88 28.6999 17.71 28.6999C22.54 28.6999 26.46 24.78 26.46 19.95C26.46 15.12 22.54 11.2 17.71 11.2ZM17.71 25.9699C14.42 25.9699 11.76 23.3099 11.76 20.02C11.76 16.73 14.42 14.07 17.71 14.07C21 14.07 23.66 16.73 23.66 20.02C23.66 23.24 21 25.9699 17.71 25.9699Z" fill="white"/>
<path d="M17.71 15.3999C15.19 15.3999 13.16 17.4299 13.16 19.9499C13.16 22.4699 15.19 24.4999 17.71 24.4999C20.23 24.4999 22.26 22.4699 22.26 19.9499C22.26 17.4999 20.23 15.3999 17.71 15.3999ZM17.71 21.7699C16.73 21.7699 15.96 20.9999 15.96 20.0199C15.96 19.0399 16.73 18.2699 17.71 18.2699C18.69 18.2699 19.46 19.0399 19.46 20.0199C19.46 20.9299 18.62 21.7699 17.71 21.7699Z" fill="white"/>
</g>
<defs>
<clipPath id="clip0_336_1177">
<rect width="35" height="35" fill="white"/>
</clipPath>
</defs>
</svg>
