<svg width="35" height="35" viewBox="0 0 35 35" fill="none" xmlns="http://www.w3.org/2000/svg">
<g clip-path="url(#clip0_2001_3)">
<path d="M25.3745 15.3119C22.0578 15.3119 19.359 18.0106 19.359 21.3273C19.359 24.644 22.0578 27.3427 25.3745 27.3427C28.6912 27.3427 31.39 24.644 31.39 21.3273C31.39 18.0106 28.6912 15.3119 25.3745 15.3119ZM27.9249 20.3621C26.1763 22.9855 26.6721 22.2417 25.7375 23.6432C25.4018 24.1468 24.7221 24.2803 24.2206 23.9461L22.58 22.8524C22.0776 22.5174 21.9423 21.8386 22.2772 21.3355C22.6122 20.8331 23.291 20.6978 23.7941 21.0327L24.5241 21.5194C26.2685 18.9033 26.1747 18.9757 26.4682 18.8084C27.4644 18.2321 28.5651 19.4006 27.9249 20.3621ZM20.4527 27.8855V33.905C20.4527 34.743 21.3604 35.2711 22.0892 34.8544L25.3745 32.9774L28.6598 34.8544C29.3857 35.2705 30.2963 34.7453 30.2963 33.905V27.8855C27.3823 30.0778 23.3709 30.081 20.4527 27.8855ZM27.562 13.4212V2.3754C27.562 1.06568 26.4963 0 25.1865 0H5.87544C4.5657 0 3.5 1.06568 3.5 2.3754V27.7016C3.5 29.0113 4.5657 30.077 5.87544 30.077H18.2653C18.2653 25.3704 18.258 25.6618 18.2824 25.4451C14.621 19.1681 20.4512 11.4465 27.562 13.4212ZM10.0624 5.46854H19.359C19.9633 5.46854 20.4527 5.95798 20.4527 6.56225C20.4527 7.16653 19.9633 7.65596 19.359 7.65596H10.0624C9.45807 7.65596 8.96863 7.16653 8.96863 6.56225C8.96863 5.95798 9.45807 5.46854 10.0624 5.46854ZM15.531 16.4056H10.0624C9.45807 16.4056 8.96863 15.9162 8.96863 15.3119C8.96863 14.7076 9.45807 14.2182 10.0624 14.2182H15.531C16.1353 14.2182 16.6247 14.7076 16.6247 15.3119C16.6247 15.9162 16.1353 16.4056 15.531 16.4056ZM10.0624 12.0308C9.45807 12.0308 8.96863 11.5414 8.96863 10.9371C8.96863 10.3328 9.45807 9.84338 10.0624 9.84338H19.359C19.9633 9.84338 20.4527 10.3328 20.4527 10.9371C20.4527 11.5414 19.9633 12.0308 19.359 12.0308H10.0624Z" fill="white"/>
</g>
<defs>
<clipPath id="clip0_2001_3">
<rect width="35" height="35" fill="white"/>
</clipPath>
</defs>
</svg>
