<svg width="35" height="35" viewBox="0 0 35 35" fill="none" xmlns="http://www.w3.org/2000/svg">
<path d="M29.5312 26.25C28.8548 26.252 28.1956 26.4634 27.6442 26.855C27.0927 27.2467 26.676 27.7995 26.4513 28.4375H10.7362C10.5731 27.9799 10.3103 27.5643 9.96675 27.2208C9.62322 26.8772 9.20761 26.6144 8.75 26.4513V12.0312C8.75 9.01578 6.29672 6.5625 3.28125 6.5625C2.99117 6.5625 2.71297 6.67773 2.50785 6.88285C2.30273 7.08797 2.1875 7.36617 2.1875 7.65625C2.1875 7.94633 2.30273 8.22453 2.50785 8.42965C2.71297 8.63477 2.99117 8.75 3.28125 8.75C5.09031 8.75 6.5625 10.2222 6.5625 12.0312V26.4513C5.9245 26.676 5.37171 27.0927 4.98004 27.6442C4.58836 28.1956 4.37701 28.8548 4.375 29.5312C4.375 31.3403 5.84719 32.8125 7.65625 32.8125C8.33266 32.8105 8.99187 32.5991 9.54335 32.2075C10.0948 31.8158 10.5115 31.263 10.7362 30.625H26.4513C26.676 31.263 27.0927 31.8158 27.6442 32.2075C28.1956 32.5991 28.8548 32.8105 29.5312 32.8125C31.3403 32.8125 32.8125 31.3403 32.8125 29.5312C32.8125 27.7222 31.3403 26.25 29.5312 26.25Z" fill="white"/>
<path d="M18.2908 17.5919C18.3805 17.532 18.4859 17.5001 18.5938 17.5001C18.7016 17.5001 18.807 17.532 18.8967 17.5919L19.6875 18.1191V14.2188H17.5V18.1191L18.2908 17.5919Z" fill="white"/>
<path d="M25.1562 14.2188H20.7812V19.1406C20.7812 19.2395 20.7543 19.3366 20.7035 19.4215C20.6526 19.5063 20.5797 19.5758 20.4925 19.6225C20.4053 19.6692 20.3071 19.6913 20.2082 19.6866C20.1094 19.6819 20.0138 19.6504 19.9314 19.5956L18.5938 18.7031L17.2561 19.5945C17.174 19.6501 17.0783 19.6821 16.9793 19.6873C16.8803 19.6925 16.7818 19.6705 16.6943 19.6238C16.6069 19.5771 16.5338 19.5074 16.4831 19.4223C16.4323 19.3371 16.4058 19.2398 16.4062 19.1406V14.2188H12.0312C11.7412 14.2188 11.463 14.334 11.2579 14.5391C11.0527 14.7442 10.9375 15.0224 10.9375 15.3125V26.25C10.9375 26.5401 11.0527 26.8183 11.2579 27.0234C11.463 27.2285 11.7412 27.3438 12.0312 27.3438H25.1562C25.4463 27.3438 25.7245 27.2285 25.9296 27.0234C26.1348 26.8183 26.25 26.5401 26.25 26.25V15.3125C26.25 15.0224 26.1348 14.7442 25.9296 14.5391C25.7245 14.334 25.4463 14.2188 25.1562 14.2188ZM18.2908 4.46688C18.3805 4.40701 18.4859 4.37506 18.5938 4.37506C18.7016 4.37506 18.807 4.40701 18.8967 4.46688L19.6875 4.99406V2.1875H17.5V4.99406L18.2908 4.46688Z" fill="white"/>
<path d="M24.0625 2.1875H20.7812V6.01562C20.7812 6.11455 20.7543 6.2116 20.7035 6.29645C20.6526 6.3813 20.5797 6.45078 20.4925 6.49747C20.4053 6.54416 20.3071 6.56632 20.2082 6.56159C20.1094 6.55687 20.0138 6.52543 19.9314 6.47062L18.5938 5.57812L17.2561 6.46953C17.174 6.52507 17.0783 6.55715 16.9793 6.5623C16.8803 6.56746 16.7818 6.54551 16.6943 6.49881C16.6069 6.45211 16.5338 6.38243 16.4831 6.29728C16.4323 6.21214 16.4058 6.11475 16.4062 6.01562V2.1875H13.125C12.8349 2.1875 12.5567 2.30273 12.3516 2.50785C12.1465 2.71297 12.0312 2.99117 12.0312 3.28125V12.0312C12.0312 12.3213 12.1465 12.5995 12.3516 12.8046C12.5567 13.0098 12.8349 13.125 13.125 13.125H24.0625C24.3526 13.125 24.6308 13.0098 24.8359 12.8046C25.041 12.5995 25.1562 12.3213 25.1562 12.0312V3.28125C25.1562 2.99117 25.041 2.71297 24.8359 2.50785C24.6308 2.30273 24.3526 2.1875 24.0625 2.1875Z" fill="white"/>
</svg>
