<svg width="35" height="35" viewBox="0 0 35 35" fill="none" xmlns="http://www.w3.org/2000/svg">
<path d="M19.7127 4.83606C12.4884 4.83606 6.63305 6.41926 6.63305 8.37051C6.63305 8.44161 6.64289 8.51161 6.6582 8.58161L6.96062 11.1071C2.72016 14.4321 1.01227 19.1232 3.09148 21.9844C3.75539 22.8972 4.72336 23.5184 5.93086 23.8181C6.08289 23.8372 6.23109 23.8509 6.37219 23.8597C8.85281 24.0029 11.9213 22.9447 14.578 21.0137C16.6086 19.5382 18.2186 17.6882 19.1505 15.8107C18.8911 15.5155 18.7476 15.1362 18.7463 14.7432C18.7463 14.3081 18.9192 13.8908 19.2269 13.5831C19.5345 13.2755 19.9518 13.1026 20.387 13.1026C20.8221 13.1026 21.2394 13.2755 21.5471 13.5831C21.8547 13.8908 22.0276 14.3081 22.0276 14.7432C22.0269 15.1401 21.8818 15.5232 21.6195 15.8211C21.3572 16.1189 20.9955 16.3112 20.6019 16.362C19.5672 18.509 17.7598 20.6118 15.4864 22.2639C13.2973 23.8553 10.9085 24.8845 8.65594 25.2558L8.82055 26.6307C8.82055 28.5819 12.4884 30.164 19.7127 30.164C26.9363 30.164 30.6048 28.5819 30.6048 26.6307L32.7671 8.58215C32.7824 8.51215 32.7923 8.44215 32.7923 8.37106C32.7923 6.41926 26.9363 4.83606 19.7127 4.83606ZM7.34727 21.8253C6.5532 21.7782 5.47695 21.5447 4.86062 20.6976C3.68266 19.0767 4.7857 16.129 7.27508 13.7272L8.2425 21.8039C7.93625 21.8291 7.63547 21.8406 7.34727 21.8253ZM19.7127 10.3086C14.2472 10.3086 9.81695 9.44075 9.81695 8.37051C9.81695 7.30028 14.2472 6.43129 19.7127 6.43129C25.1776 6.43129 29.6084 7.30028 29.6084 8.37051C29.6084 9.44075 25.1781 10.3086 19.7127 10.3086Z" fill="white"/>
</svg>
