<svg width="35" height="35" viewBox="0 0 35 35" fill="none" xmlns="http://www.w3.org/2000/svg">
<g clip-path="url(#clip0_336_1291)">
<path d="M23.8147 3.92352C25.2184 4.64881 26.5014 5.58686 27.6183 6.70438C30.3813 9.46747 32.0903 13.2847 32.0903 17.4997C32.0903 21.7161 30.3813 25.5333 27.6183 28.2971C24.9249 30.9884 21.2294 32.6803 17.1408 32.7657C16.9644 32.7678 16.8229 32.9127 16.8229 33.0891V34.6743C16.8229 34.8083 16.7457 34.9245 16.6213 34.9744C16.4975 35.027 16.3615 34.9997 16.2665 34.9047L13.3325 31.9693C13.3021 31.9393 13.278 31.9035 13.2616 31.8641C13.2451 31.8247 13.2366 31.7824 13.2366 31.7396C13.2366 31.6969 13.2451 31.6546 13.2616 31.6152C13.278 31.5758 13.3021 31.54 13.3325 31.51L16.2665 28.5746C16.3615 28.4796 16.4969 28.4522 16.6213 28.5049C16.745 28.5555 16.8229 28.6717 16.8229 28.805V30.382C16.8229 30.4729 16.8558 30.5509 16.92 30.6144C16.9856 30.6787 17.0656 30.7095 17.1565 30.7074C20.6716 30.6199 23.8455 29.1591 26.1629 26.8417C28.5541 24.4505 30.0327 21.1487 30.0327 17.4997C30.0327 13.8527 28.5541 10.5489 26.1629 8.15976C25.206 7.2011 24.1074 6.3953 22.9056 5.7706C22.8372 5.73501 22.7854 5.6742 22.7612 5.60108C22.737 5.52795 22.7421 5.44826 22.7757 5.3789L23.4114 4.05956C23.4483 3.98368 23.5064 3.93378 23.5837 3.90643C23.6637 3.88114 23.7416 3.88729 23.8147 3.92352ZM9.83046 31.0759C9.90429 31.1148 9.98153 31.1203 10.0608 31.0936C10.1401 31.0683 10.1982 31.0164 10.2331 30.9426L10.8709 29.6212C10.9386 29.4776 10.8825 29.3033 10.739 29.2295C9.53173 28.6033 8.43524 27.7953 7.48163 26.8424C5.09042 24.4512 3.61181 21.1494 3.61181 17.5004C3.61181 13.8534 5.09042 10.5496 7.48163 8.16044C9.79901 5.84306 12.9729 4.38153 16.49 4.29472C16.5809 4.29267 16.6589 4.32411 16.7245 4.38768C16.7901 4.44989 16.8236 4.52919 16.8236 4.62011V6.19716C16.8236 6.33114 16.8995 6.4453 17.0232 6.49726C17.147 6.54784 17.283 6.5205 17.378 6.42548L20.3134 3.49149C20.3738 3.42992 20.4077 3.34708 20.4077 3.26078C20.4077 3.17449 20.3738 3.09164 20.3134 3.03007L17.378 0.096767C17.283 0.00174748 17.1476 -0.0255963 17.0232 0.0249897C16.8995 0.0776264 16.8236 0.191787 16.8236 0.325771V1.91102C16.8236 2.08739 16.6821 2.233 16.5037 2.23642C12.4151 2.31981 8.71962 4.01171 6.02626 6.70507C3.26522 9.46815 1.55556 13.2853 1.55556 17.5004C1.55556 21.7168 3.26454 25.534 6.02626 28.2977C7.13847 29.4072 8.42157 30.3492 9.83046 31.0759ZM12.6359 9.68895C10.324 9.68895 8.45028 11.5627 8.45028 13.8746C8.45028 14.9349 8.84335 15.9015 9.49071 16.6377V16.3683C9.49071 15.7176 9.758 15.1242 10.1866 14.6942C10.5657 14.3146 11.0624 14.0748 11.5955 14.0141C11.5025 13.9498 11.415 13.8787 11.3357 13.7987C11.0021 13.4651 10.7971 13.0064 10.7971 12.4985C10.7971 11.9886 11.0021 11.5299 11.3357 11.1963C11.6693 10.8647 12.128 10.6576 12.6359 10.6576C13.1438 10.6576 13.6046 10.8647 13.9361 11.1963C14.1074 11.367 14.2432 11.57 14.3357 11.7935C14.4281 12.017 14.4754 12.2566 14.4748 12.4985C14.4748 13.0064 14.2697 13.4651 13.9361 13.7987C13.8569 13.8781 13.7706 13.9502 13.6784 14.0141C14.2246 14.0763 14.7154 14.3244 15.0852 14.6942C15.5152 15.1242 15.7811 15.7176 15.7811 16.3683V16.6377C16.4306 15.9015 16.8236 14.9342 16.8236 13.8746C16.8236 11.5627 14.9478 9.68895 12.6359 9.68895ZM14.7503 17.4881C14.6881 17.3992 14.6532 17.2885 14.6532 17.1723V16.3683C14.6532 16.0293 14.5117 15.7189 14.2868 15.4927C14.0619 15.2678 13.7522 15.1283 13.4111 15.1283H11.8607C11.5217 15.1283 11.2113 15.2678 10.985 15.4927C10.7601 15.7196 10.6207 16.0293 10.6207 16.3683V17.1723C10.6204 17.2848 10.5866 17.3948 10.5236 17.4881C11.1436 17.8524 11.8648 18.0616 12.6359 18.0616C13.4077 18.0616 14.1303 17.8524 14.7503 17.4881ZM13.1384 11.9947C13.2683 12.1246 13.3475 12.301 13.3475 12.4985C13.3475 12.694 13.2683 12.8704 13.1384 13.0003C13.0726 13.0662 12.9943 13.1185 12.9082 13.154C12.8221 13.1896 12.7298 13.2077 12.6366 13.2074C12.4411 13.2074 12.2627 13.1281 12.1349 13.0003C12.007 12.8704 11.9277 12.694 11.9277 12.4985C11.9277 12.301 12.007 12.1246 12.1349 11.9947C12.2008 11.9289 12.279 11.8768 12.3651 11.8412C12.4512 11.8057 12.5435 11.7875 12.6366 11.7876C12.8335 11.7869 13.0099 11.8669 13.1384 11.9947ZM21.0093 11.7869C21.2048 11.7869 21.3832 11.8662 21.511 11.994C21.6409 12.1239 21.7202 12.3003 21.7202 12.4978C21.7202 12.6933 21.6409 12.8697 21.511 12.9996C21.3832 13.1274 21.2048 13.2067 21.0093 13.2067C20.8138 13.2067 20.6353 13.1274 20.5075 12.9996C20.3797 12.8697 20.3004 12.6933 20.3004 12.4978C20.3004 12.3003 20.3797 12.1239 20.5075 11.994C20.6353 11.8669 20.8138 11.7869 21.0093 11.7869ZM21.0093 9.68895C23.3212 9.68895 25.1949 11.5627 25.1949 13.8746C25.1949 14.9349 24.8032 15.9015 24.1545 16.6377V16.3683C24.1545 15.7176 23.8892 15.1242 23.4586 14.6942C23.0794 14.3146 22.5828 14.0748 22.0497 14.0141C22.1427 13.9498 22.2302 13.8787 22.3095 13.7987C22.6431 13.4651 22.8481 13.0064 22.8481 12.4985C22.8481 11.9886 22.6431 11.5299 22.3095 11.1963C21.9759 10.8647 21.5172 10.6576 21.0093 10.6576C20.5014 10.6576 20.042 10.8647 19.7091 11.1963C19.5378 11.367 19.402 11.57 19.3095 11.7935C19.2171 12.017 19.1698 12.2566 19.1704 12.4985C19.1704 13.0064 19.3755 13.4651 19.7091 13.7987C19.7884 13.878 19.8759 13.9498 19.9688 14.0141C19.4226 14.0763 18.9305 14.3244 18.5599 14.6942C18.132 15.1242 17.8641 15.7176 17.8641 16.3683V16.6377C17.2167 15.9008 16.8236 14.9342 16.8236 13.8739C16.8236 11.5627 18.6974 9.68895 21.0093 9.68895ZM18.8949 17.4881C18.9571 17.3992 18.994 17.2885 18.994 17.1723V16.3683C18.994 16.0293 19.1335 15.7189 19.3584 15.4927C19.5833 15.2678 19.893 15.1283 20.2341 15.1283H21.7845C22.1256 15.1283 22.4352 15.2678 22.6601 15.4927C22.885 15.7196 23.0245 16.0293 23.0245 16.3683V17.1723C23.0245 17.2885 23.0614 17.3992 23.1236 17.4881C22.5036 17.8524 21.781 18.0616 21.0093 18.0616C20.2375 18.0616 19.517 17.8524 18.8949 17.4881ZM16.8236 19.0385C17.0191 19.0385 17.1975 19.1178 17.3254 19.2456C17.4532 19.3755 17.5325 19.5518 17.5325 19.7474C17.5325 19.9449 17.4532 20.1213 17.3254 20.2512C17.2595 20.317 17.1812 20.3691 17.0951 20.4047C17.009 20.4402 16.9168 20.4584 16.8236 20.4583C16.6261 20.4583 16.4497 20.379 16.3219 20.2512C16.192 20.1213 16.1127 19.9449 16.1127 19.7474C16.1127 19.5518 16.192 19.3755 16.3219 19.2456C16.4497 19.1178 16.6261 19.0385 16.8236 19.0385ZM16.8236 16.9398C19.1355 16.9398 21.0093 18.8136 21.0093 21.1255C21.0093 22.1857 20.6162 23.1523 19.9688 23.8886V23.6192C19.9688 22.9684 19.7016 22.3751 19.2729 21.9451C18.8938 21.5655 18.3971 21.3257 17.8641 21.2649C17.957 21.2007 18.0445 21.1296 18.1238 21.0482C18.4574 20.7167 18.6625 20.2559 18.6625 19.748C18.6625 19.2401 18.4574 18.7814 18.1238 18.4478C17.7902 18.1163 17.3315 17.9092 16.8236 17.9092C16.3157 17.9092 15.855 18.1163 15.5234 18.4478C15.1898 18.7814 14.9848 19.2401 14.9848 19.748C14.9848 20.2559 15.1898 20.7167 15.5234 21.0482C15.6019 21.1289 15.6882 21.2015 15.7811 21.2649C15.235 21.3271 14.7441 21.5753 14.3743 21.9451C13.9443 22.3751 13.6784 22.9684 13.6784 23.6192V23.8886C13.029 23.1523 12.6359 22.185 12.6359 21.1255C12.6359 18.8136 14.5117 16.9398 16.8236 16.9398ZM14.7093 24.739C14.7715 24.6501 14.8063 24.5393 14.8063 24.4211V23.6185C14.8063 23.2774 14.9478 22.9678 15.1727 22.7429C15.3976 22.518 15.7073 22.3785 16.0484 22.3785H17.5988C17.9379 22.3785 18.2482 22.518 18.4745 22.7429C18.6994 22.9678 18.8389 23.2774 18.8389 23.6185V24.4211C18.8389 24.5393 18.8758 24.6494 18.9359 24.739C18.3159 25.1033 17.5947 25.3125 16.8236 25.3125C16.0525 25.3125 15.33 25.1033 14.7093 24.739Z" fill="white"/>
</g>
<defs>
<clipPath id="clip0_336_1291">
<rect width="35" height="35" fill="white"/>
</clipPath>
</defs>
</svg>
