<svg width="35" height="35" viewBox="0 0 35 35" fill="none" xmlns="http://www.w3.org/2000/svg">
<g clip-path="url(#clip0_366_1573)">
<path fill-rule="evenodd" clip-rule="evenodd" d="M28.2099 21.3229H25.0531C24.7705 21.3229 24.5363 21.0968 24.5363 20.8062V18.7312L23.0588 20.2087C22.865 20.4106 22.5502 20.4106 22.3483 20.2087L20.128 17.9965C20.0473 17.9077 19.9908 17.7704 19.9908 17.6493C19.9908 17.5363 20.0473 17.399 20.128 17.3102L21.6136 15.8327H19.5306C19.248 15.8327 19.0219 15.6066 19.0219 15.3241V12.1349C19.0219 11.8523 19.248 11.6263 19.5306 11.6263H21.6136L20.128 10.1487C19.9343 9.9469 19.9343 9.63202 20.128 9.43825L22.3806 7.21795C22.5744 7.0161 22.8893 7.0161 23.0911 7.21795L24.5686 8.69546V6.62048C24.5686 6.3379 24.7947 6.10376 25.0773 6.10376H28.2341C28.5167 6.10376 28.7509 6.3379 28.7509 6.62048V8.69546L30.1961 7.21795C30.3979 7.0161 30.7128 7.0161 30.9066 7.21795L33.1269 9.43825C33.3287 9.63202 33.3287 9.9469 33.1269 10.1487L31.6494 11.6263H33.7243C34.0069 11.6263 34.233 11.8523 34.233 12.1349V15.2918C34.233 15.5743 34.0069 15.8004 33.7243 15.8004H31.6494L33.1269 17.286C33.2157 17.3667 33.2722 17.5121 33.2722 17.6251C33.2722 17.7381 33.2157 17.8835 33.1269 17.9642L30.9066 20.1845C30.8258 20.2652 30.6805 20.3298 30.5675 20.3298C30.4221 20.3298 30.3091 20.2652 30.2284 20.1845L28.7509 18.707V20.782C28.6943 21.0968 28.4925 21.3229 28.2099 21.3229ZM26.6436 17.1972C24.7059 17.1972 23.1476 15.6309 23.1476 13.7012C23.1476 11.7635 24.7059 10.2295 26.6436 10.2295C28.5813 10.2295 30.1153 11.7958 30.1153 13.7012C30.1153 15.6066 28.549 17.1972 26.6436 17.1972ZM26.6436 11.2226C25.2791 11.2226 24.1407 12.3367 24.1407 13.7254C24.1407 15.0899 25.2468 16.2283 26.6436 16.2283C28.0404 16.2283 29.1465 15.1222 29.1465 13.7254C29.1142 12.3367 28.0081 11.2226 26.6436 11.2226Z" fill="white"/>
<path fill-rule="evenodd" clip-rule="evenodd" d="M28.8881 34.9677H25.9331V26.3852C25.9331 26.1026 25.707 25.8685 25.4245 25.8685H18.7636C18.481 25.8685 18.2549 26.1026 18.2549 26.3852V34.9677H11.917V26.3852C11.917 26.1026 11.6828 25.8685 11.4002 25.8685H4.7474C4.46482 25.8685 4.23875 26.1026 4.23875 26.3852V34.9677H1.27566C0.993079 34.9677 0.767012 34.7416 0.767012 34.459V22.9135C0.767012 22.7439 0.84775 22.5744 0.993079 22.4856L8.13033 18.1096C8.24337 18.0208 8.3887 17.9965 8.50173 18.053C8.63898 18.0773 8.7278 18.1661 8.81661 18.2791L11.1419 22.2272L17.8835 18.1096C17.9965 18.053 18.1419 18.0208 18.2549 18.053C18.4002 18.0773 18.481 18.1661 18.5698 18.2791L21.0161 22.4048H28.8881C29.1707 22.4048 29.4048 22.6309 29.4048 22.9135V34.4913C29.3725 34.7416 29.1465 34.9677 28.8881 34.9677ZM24.9077 34.9677H19.2803V26.8939H24.9077V34.9677ZM10.8593 34.9677H5.23183V26.8939H10.8593V34.9677ZM0.896193 21.4279L1.98616 9.29295C2.01845 9.03459 2.21223 8.84082 2.47059 8.84082H4.80392C5.06228 8.84082 5.28835 9.03459 5.28835 9.29295L6.11188 18.2226L0.896193 21.4279Z" fill="white"/>
<path fill-rule="evenodd" clip-rule="evenodd" d="M7.54902 17.3426L8.27566 9.29303C8.29988 9.06696 8.52595 8.86512 8.78431 8.86512H11.1176C11.376 8.86512 11.6021 9.06696 11.6021 9.31725L12.5952 20.2169L11.4729 20.9113L9.64014 17.7948C9.44637 17.4637 9.15571 17.2377 8.80046 17.1408C8.40484 16.9955 7.98501 17.0762 7.62976 17.2942L7.54902 17.3426ZM10.0115 8.04159C9.95502 8.04159 9.92272 8.04159 9.8662 8.00929C9.64014 7.95278 9.47059 7.72671 9.5271 7.46835C9.5271 7.41183 9.75317 6.07965 10.3749 4.7394C10.4879 4.48911 10.8028 4.4003 11.0288 4.51333L12.3126 3.0116C12.1995 2.75324 12.3126 2.47065 12.5709 2.35762C13.3379 2.01045 14.1857 2.09926 15.0657 2.21229C16.7209 2.38184 18.2549 2.58369 19.6517 0.250354C19.7889 0.024287 20.0473 -0.064525 20.2734 0.0485085C20.4994 0.161542 20.6125 0.419904 20.5317 0.645971C20.4429 0.872038 18.8766 5.65174 15.6955 5.65174C15.3806 5.65174 15.0657 5.59522 14.7589 5.50641C11.8524 4.68288 10.5202 7.61368 10.4637 7.759C10.3749 7.92856 10.2053 8.04159 10.0115 8.04159Z" fill="white"/>
<path fill-rule="evenodd" clip-rule="evenodd" d="M3.64129 8.32418C3.58477 8.32418 3.55248 8.32418 3.49596 8.29996C3.2699 8.24344 3.10035 7.98508 3.15686 7.72672C3.18108 7.58946 3.75432 4.17424 5.74048 2.83398C6.5075 2.32533 7.36332 2.2123 8.33218 2.43837C11.5456 3.29419 13.2491 0.508723 13.2814 0.476428C13.4187 0.250361 13.677 0.161549 13.9031 0.274583C14.1292 0.387616 14.2422 0.645978 14.1615 0.872045C14.0727 1.1627 12.1995 6.84667 8.3887 5.76478C5.4902 4.94125 4.14994 7.89627 4.09343 8.0093C4.00461 8.21114 3.83506 8.32418 3.64129 8.32418Z" fill="white"/>
</g>
<defs>
<clipPath id="clip0_366_1573">
<rect width="35" height="35" fill="white"/>
</clipPath>
</defs>
</svg>
