<svg width="35" height="35" viewBox="0 0 35 35" fill="none" xmlns="http://www.w3.org/2000/svg">
<path d="M23.5156 3.82812C23.8782 3.82813 24.226 3.97217 24.4824 4.22856C24.7388 4.48496 24.8828 4.83271 24.8828 5.19531V6.5625H18.3203V5.19531C18.3203 4.83271 18.4644 4.48496 18.7208 4.22856C18.9771 3.97217 19.3249 3.82812 19.6875 3.82812H23.5156Z" fill="#0EAE60"/>
<path fill-rule="evenodd" clip-rule="evenodd" d="M26.25 9.02344C26.25 8.8439 26.2146 8.66611 26.1459 8.50024C26.0772 8.33436 25.9765 8.18365 25.8496 8.05669C25.7226 7.92973 25.5719 7.82903 25.406 7.76032C25.2401 7.69161 25.0624 7.65625 24.8828 7.65625H15.3461C14.624 7.65625 13.9312 7.94191 13.4189 8.45086L6.27594 15.5474C6.02014 15.8015 5.81713 16.1037 5.6786 16.4366C5.54007 16.7696 5.46875 17.1266 5.46875 17.4871V28.4375C5.46875 29.9477 6.69293 31.1719 8.20312 31.1719H18.9476C16.6086 29.7929 15.0391 27.2478 15.0391 24.3359C15.0391 19.9566 18.5894 16.4062 22.9688 16.4062C24.1391 16.4062 25.25 16.6597 26.25 17.1147V9.02344ZM18.0723 11.0923C18.4759 11.4959 18.7026 12.0433 18.7026 12.6141C18.7026 13.1849 18.4759 13.7323 18.0723 14.1359L12.2218 19.9864C12.022 20.1862 11.7847 20.3447 11.5235 20.4529C11.2624 20.561 10.9825 20.6167 10.6998 20.6166C10.129 20.6166 9.58154 20.3898 9.17793 19.9861C8.77432 19.5824 8.5476 19.0349 8.54765 18.4641C8.54768 18.1814 8.60338 17.9016 8.71157 17.6404C8.81976 17.3793 8.97832 17.142 9.1782 16.9422L15.0281 11.0923C15.228 10.8924 15.4653 10.7338 15.7264 10.6256C15.9875 10.5175 16.2674 10.4618 16.5501 10.4618C16.8327 10.4618 17.1126 10.5175 17.3738 10.6256C17.6349 10.7338 17.8724 10.8924 18.0723 11.0923Z" fill="#0EAE60"/>
<path fill-rule="evenodd" clip-rule="evenodd" d="M22.9688 31.1719C26.7441 31.1719 29.8047 28.1113 29.8047 24.3359C29.8047 20.5606 26.7441 17.5 22.9688 17.5C19.1934 17.5 16.1328 20.5606 16.1328 24.3359C16.1328 28.1113 19.1934 31.1719 22.9688 31.1719ZM25.7031 25.1379C25.7031 26.6582 24.4789 27.8906 22.9688 27.8906C21.4586 27.8906 20.2344 26.6582 20.2344 25.1379C20.2344 23.9627 21.8679 21.8518 22.6097 20.9535C22.6528 20.8997 22.7075 20.8563 22.7696 20.8265C22.8318 20.7967 22.8998 20.7812 22.9688 20.7812C23.0377 20.7812 23.1057 20.7967 23.1679 20.8265C23.23 20.8563 23.2847 20.8997 23.3278 20.9535C24.0696 21.8518 25.7031 23.9627 25.7031 25.1379Z" fill="#0EAE60"/>
</svg>
