<svg width="35" height="35" viewBox="0 0 35 35" fill="none" xmlns="http://www.w3.org/2000/svg">
<path d="M27.8906 24.6094C30.9109 24.6094 33.3594 22.1609 33.3594 19.1406C33.3594 16.1203 30.9109 13.6719 27.8906 13.6719C24.8703 13.6719 22.4219 16.1203 22.4219 19.1406C22.4219 22.1609 24.8703 24.6094 27.8906 24.6094Z" fill="#0EAE60"/>
<path d="M27.8906 25.7031C26.5161 25.7005 25.177 25.2662 24.0625 24.4617V30.0781C24.0628 30.1771 24.0899 30.2741 24.1409 30.3588C24.1919 30.4436 24.265 30.5129 24.3523 30.5594C24.4379 30.6033 24.5334 30.6239 24.6294 30.6191C24.7255 30.6143 24.8185 30.5843 24.8992 30.532L27.8906 28.5469L30.8711 30.532C30.9533 30.5862 31.0487 30.6172 31.1471 30.6216C31.2455 30.6261 31.3432 30.6039 31.43 30.5574C31.5169 30.5109 31.5895 30.4419 31.6403 30.3575C31.6912 30.2731 31.7182 30.1766 31.7188 30.0781V24.4617C30.6042 25.2662 29.2652 25.7005 27.8906 25.7031ZM5.46875 8.75V21.875H21.9352C21.5346 21.0192 21.3273 20.0856 21.3281 19.1406C21.3301 17.8858 21.6917 16.6579 22.3702 15.6024C23.0487 14.5469 24.0156 13.708 25.1562 13.1852V8.75H5.46875ZM10.9375 10.3906H19.6875C19.8325 10.3906 19.9716 10.4482 20.0742 10.5508C20.1768 10.6534 20.2344 10.7925 20.2344 10.9375C20.2344 11.0825 20.1768 11.2216 20.0742 11.3242C19.9716 11.4268 19.8325 11.4844 19.6875 11.4844H10.9375C10.7925 11.4844 10.6534 11.4268 10.5508 11.3242C10.4482 11.2216 10.3906 11.0825 10.3906 10.9375C10.3906 10.7925 10.4482 10.6534 10.5508 10.5508C10.6534 10.4482 10.7925 10.3906 10.9375 10.3906ZM17.5 20.2344H13.125C12.98 20.2344 12.8409 20.1768 12.7383 20.0742C12.6357 19.9716 12.5781 19.8325 12.5781 19.6875C12.5781 19.5425 12.6357 19.4034 12.7383 19.3008C12.8409 19.1982 12.98 19.1406 13.125 19.1406H17.5C17.645 19.1406 17.7841 19.1982 17.8867 19.3008C17.9893 19.4034 18.0469 19.5425 18.0469 19.6875C18.0469 19.8325 17.9893 19.9716 17.8867 20.0742C17.7841 20.1768 17.645 20.2344 17.5 20.2344ZM20.2344 15.8594H9.84375C9.69871 15.8594 9.55961 15.8018 9.45705 15.6992C9.35449 15.5966 9.29688 15.4575 9.29688 15.3125C9.29688 15.1675 9.35449 15.0284 9.45705 14.9258C9.55961 14.8232 9.69871 14.7656 9.84375 14.7656H20.2344C20.3794 14.7656 20.5185 14.8232 20.6211 14.9258C20.7236 15.0284 20.7812 15.1675 20.7812 15.3125C20.7812 15.4575 20.7236 15.5966 20.6211 15.6992C20.5185 15.8018 20.3794 15.8594 20.2344 15.8594Z" fill="#0EAE60"/>
<path d="M28.4375 4.92188H2.1875C2.04246 4.92188 1.90336 4.97949 1.8008 5.08205C1.69824 5.18461 1.64063 5.32371 1.64062 5.46875V25.1562C1.64063 25.3013 1.69824 25.4404 1.8008 25.5429C1.90336 25.6455 2.04246 25.7031 2.1875 25.7031H22.9688V23.4555C22.832 23.3023 22.6953 23.1383 22.5695 22.9688H4.92188C4.77683 22.9688 4.63774 22.9111 4.53518 22.8086C4.43262 22.706 4.375 22.5669 4.375 22.4219V8.20312C4.375 8.05808 4.43262 7.91899 4.53518 7.81643C4.63774 7.71387 4.77683 7.65625 4.92188 7.65625H25.7031C25.8482 7.65625 25.9873 7.71387 26.0898 7.81643C26.1924 7.91899 26.25 8.05808 26.25 8.20312V12.7914C26.786 12.6532 27.3371 12.5816 27.8906 12.5781C28.2573 12.5803 28.6232 12.6132 28.9844 12.6766V5.46875C28.9844 5.32371 28.9268 5.18461 28.8242 5.08205C28.7216 4.97949 28.5825 4.92188 28.4375 4.92188Z" fill="#0EAE60"/>
</svg>
