<svg width="35" height="35" viewBox="0 0 35 35" fill="none" xmlns="http://www.w3.org/2000/svg">
<path d="M29.4321 6.09875C27.4767 5.8915 25.5523 5.45639 23.6979 4.8023C21.9968 4.20124 20.3649 3.41999 18.83 2.47188C18.4296 2.22684 17.9694 2.09717 17.5 2.09717C17.0306 2.09717 16.5704 2.22684 16.17 2.47188C14.6351 3.42001 13.0032 4.20126 11.3021 4.8023C9.44774 5.45639 7.52329 5.8915 5.56792 6.09875C4.94069 6.16336 4.3597 6.45827 3.93732 6.92644C3.51494 7.39462 3.28118 8.00279 3.28125 8.63334V16.2108C3.28247 19.0064 4.03073 21.7509 5.44861 24.1603C6.86648 26.5697 8.90246 28.5564 11.3458 29.9148L16.2604 32.6448C16.6392 32.8568 17.0659 32.9682 17.5 32.9682C17.9341 32.9682 18.3608 32.8568 18.7396 32.6448L23.6542 29.9148C26.0975 28.5564 28.1335 26.5697 29.5514 24.1603C30.9693 21.7509 31.7175 19.0064 31.7188 16.2108V8.63334C31.7188 8.00279 31.4851 7.39462 31.0627 6.92644C30.6403 6.45827 30.0593 6.16336 29.4321 6.09875Z" fill="#0EAE60"/>
<path d="M16.4792 22.2147C16.0505 22.2156 15.6366 22.0583 15.3169 21.7728L11.1606 18.0789C10.9817 17.9283 10.8347 17.7435 10.7284 17.5352C10.6221 17.3269 10.5586 17.0994 10.5417 16.8662C10.5248 16.633 10.5548 16.3987 10.6299 16.1773C10.7051 15.9558 10.8239 15.7517 10.9792 15.5769C11.1346 15.4022 11.3234 15.2603 11.5345 15.1597C11.7456 15.0592 11.9748 15.0019 12.2084 14.9914C12.442 14.9809 12.6753 15.0173 12.8946 15.0985C13.1139 15.1797 13.3147 15.304 13.4852 15.4641L16.3683 18.0249L22.1287 11.8795C22.4463 11.5413 22.8851 11.3429 23.3488 11.3278C23.8125 11.3128 24.2633 11.4823 24.6021 11.7993C24.9409 12.1167 25.1399 12.5557 25.1552 13.0198C25.1705 13.4838 25.0009 13.935 24.6837 14.2741L17.7567 21.662C17.5934 21.8374 17.3956 21.9771 17.1758 22.0725C16.9559 22.1678 16.7188 22.2168 16.4792 22.2162V22.2147Z" fill="white"/>
</svg>
