<svg width="60" height="60" viewBox="0 0 60 60" fill="none" xmlns="http://www.w3.org/2000/svg">
<path fill-rule="evenodd" clip-rule="evenodd" d="M19.3443 20.0675C19.7218 21.2488 19.9374 22.325 19.9374 23.2138C19.9374 29.0175 15.2256 33.7294 9.42182 33.7294C8.03932 33.7294 6.71869 33.4619 5.50869 32.9763C5.44869 34.2688 5.51494 35.5663 5.70744 36.8494L10.6343 37.3038C11.0091 38.9212 11.6488 40.4656 12.5274 41.8744L9.36557 45.6794C10.5393 47.2686 11.944 48.6735 13.5331 49.8475L17.3387 46.6856C18.7475 47.5643 20.2919 48.2039 21.9093 48.5788L22.3637 53.5056C24.3174 53.7994 26.3043 53.7994 28.2581 53.5056L28.7131 48.5788C30.3305 48.2039 31.8749 47.5643 33.2837 46.6856L37.0887 49.8475C38.6781 48.6737 40.083 47.2688 41.2568 45.6794L38.0949 41.8744C38.9736 40.4656 39.6132 38.9212 39.9881 37.3038L44.9143 36.8494C45.2081 34.895 45.2081 32.9088 44.9143 30.9544L39.9881 30.5C39.6132 28.8825 38.9736 27.3382 38.0949 25.9294L41.2568 22.1244C40.083 20.535 38.6781 19.13 37.0887 17.9563L33.2837 21.1181C31.8749 20.2395 30.3305 19.5998 28.7131 19.225L28.2581 14.2981C26.3043 14.0044 24.3175 14.0044 22.3637 14.2981L21.9093 19.225C21.0308 19.4286 20.1724 19.7105 19.3443 20.0675ZM25.3112 27.1619C29.0312 27.1619 32.0512 30.1819 32.0512 33.9019C32.0512 37.6219 29.0312 40.6419 25.3112 40.6419C21.5912 40.6419 18.5712 37.6219 18.5712 33.9019C18.5712 30.1819 21.5912 27.1619 25.3112 27.1619Z" fill="#0EAE60"/>
<path fill-rule="evenodd" clip-rule="evenodd" d="M9.42188 6.27438C9.42188 6.27438 0.78125 18.1319 0.78125 23.2138C0.78125 27.9825 4.65313 31.8544 9.42188 31.8544C14.1906 31.8544 18.0625 27.9825 18.0625 23.2138C18.0625 18.1319 9.42188 6.27438 9.42188 6.27438ZM45.5488 14.52H58.2813C58.5299 14.52 58.7684 14.4212 58.9442 14.2454C59.12 14.0696 59.2188 13.8311 59.2188 13.5825C59.2188 13.3339 59.12 13.0954 58.9442 12.9196C58.7684 12.7438 58.5299 12.645 58.2813 12.645H45.5488C45.306 12.6539 45.0762 12.7565 44.9076 12.9314C44.7391 13.1062 44.6449 13.3396 44.6449 13.5825C44.6449 13.8254 44.7391 14.0588 44.9076 14.2336C45.0762 14.4085 45.306 14.5111 45.5488 14.52ZM45.5488 18.9781H53.7225C53.9711 18.9781 54.2096 18.8794 54.3854 18.7035C54.5612 18.5277 54.66 18.2893 54.66 18.0406C54.66 17.792 54.5612 17.5535 54.3854 17.3777C54.2096 17.2019 53.9711 17.1031 53.7225 17.1031H45.5488C45.306 17.112 45.0762 17.2146 44.9076 17.3895C44.7391 17.5643 44.6449 17.7977 44.6449 18.0406C44.6449 18.2835 44.7391 18.5169 44.9076 18.6918C45.0762 18.8666 45.306 18.9693 45.5488 18.9781ZM45.5488 23.4363H49.6356C49.8783 23.4274 50.1082 23.3247 50.2767 23.1499C50.4453 22.975 50.5395 22.7416 50.5395 22.4988C50.5395 22.2559 50.4453 22.0225 50.2767 21.8476C50.1082 21.6728 49.8783 21.5701 49.6356 21.5613H45.5488C45.306 21.5701 45.0762 21.6728 44.9076 21.8476C44.7391 22.0225 44.6449 22.2559 44.6449 22.4988C44.6449 22.7416 44.7391 22.975 44.9076 23.1499C45.0762 23.3247 45.306 23.4274 45.5488 23.4363Z" fill="#0EAE60"/>
</svg>
