<svg width="60" height="60" viewBox="0 0 60 60" fill="none" xmlns="http://www.w3.org/2000/svg">
<g clip-path="url(#clip0_22_159)">
<path d="M49.5004 38.7996C46.6882 38.7996 44.4004 41.088 44.4004 43.8996C44.4004 46.7118 46.6882 48.9996 49.5004 48.9996C52.312 48.9996 54.6004 46.7118 54.6004 43.8996C54.6004 41.088 52.312 38.7996 49.5004 38.7996ZM49.5004 45.3996C48.673 45.3996 48.0004 44.727 48.0004 43.8996C48.0004 43.0723 48.673 42.3996 49.5004 42.3996C50.3277 42.3996 51.0004 43.0723 51.0004 43.8996C51.0004 44.727 50.3277 45.3996 49.5004 45.3996Z" fill="#0EAE60"/>
<path d="M49.0116 17.5998H40.2C39.537 17.5998 39 18.1374 39 18.7998V42.1998C39 42.8622 39.537 43.3998 40.2 43.3998H41.4726C42.0667 43.3998 42.5928 42.972 42.6696 42.3828C43.1406 38.7744 46.0188 36.5365 49.5006 36.5365C52.9824 36.5365 55.8606 38.7745 56.3316 42.3828C56.4083 42.9721 56.9339 43.3998 57.5285 43.3998H58.7999C59.4623 43.3998 59.9999 42.8622 59.9999 42.1998V30.4998C59.9999 30.2178 59.9009 29.9454 59.7203 29.73L49.9319 18.03C49.8192 17.8954 49.6785 17.7871 49.5195 17.7128C49.3605 17.6384 49.1871 17.5999 49.0116 17.5998ZM41.4 27.1998V21.1998C41.4 20.5374 41.937 19.9998 42.6 19.9998H47.886C48.2418 19.9998 48.5796 20.1582 48.8075 20.4318L53.8074 26.4318C54.4583 27.2135 53.9027 28.3998 52.8852 28.3998H42.6C41.937 28.3998 41.4 27.8628 41.4 27.1998ZM1.2 43.4004H4.27265C4.86667 43.4004 5.39284 42.9725 5.46961 42.3834C5.94059 38.775 8.81882 36.5371 12.3006 36.5371C15.7824 36.5371 18.6606 38.7751 19.1316 42.3834C19.2083 42.9726 19.7339 43.4004 20.3285 43.4004H35.4C36.0625 43.4004 36.6 42.8627 36.6 42.2004V12.2004C36.6 11.538 36.0624 11.0004 35.4 11.0004H1.2C0.536961 11.0004 0 11.538 0 12.2004V42.2004C0 42.8628 0.536961 43.4004 1.2 43.4004Z" fill="#0EAE60"/>
<path d="M12.3002 38.7996C9.48804 38.7996 7.2002 41.088 7.2002 43.8996C7.2002 46.7118 9.48804 48.9996 12.3002 48.9996C15.1118 48.9996 17.4002 46.7118 17.4002 43.8996C17.4002 41.088 15.1118 38.7996 12.3002 38.7996ZM12.3002 45.3996C11.4728 45.3996 10.8002 44.727 10.8002 43.8996C10.8002 43.0723 11.4728 42.3996 12.3002 42.3996C13.1275 42.3996 13.8002 43.0723 13.8002 43.8996C13.8002 44.727 13.1275 45.3996 12.3002 45.3996Z" fill="#0EAE60"/>
</g>
<defs>
<clipPath id="clip0_22_159">
<rect width="60" height="60" fill="white"/>
</clipPath>
</defs>
</svg>
