<svg width="60" height="60" viewBox="0 0 60 60" fill="none" xmlns="http://www.w3.org/2000/svg">
<path fill-rule="evenodd" clip-rule="evenodd" d="M49.375 50V23.45C49.375 22.38 48.9825 21.345 48.27 20.545L39.6475 10.8425C39.2367 10.3811 38.733 10.0119 38.1695 9.75896C37.6059 9.50604 36.9952 9.37519 36.3775 9.375H15C13.8397 9.375 12.7269 9.83594 11.9064 10.6564C11.0859 11.4769 10.625 12.5897 10.625 13.75V50C10.625 51.8234 11.3493 53.572 12.6386 54.8614C13.928 56.1507 15.6766 56.875 17.5 56.875H42.5C44.3234 56.875 46.072 56.1507 47.3614 54.8614C48.6507 53.572 49.375 51.8234 49.375 50ZM31.325 29.925C31.1511 29.7508 30.9445 29.6127 30.7172 29.5184C30.4898 29.4241 30.2461 29.3756 30 29.3756C29.7539 29.3756 29.5102 29.4241 29.2828 29.5184C29.0555 29.6127 28.8489 29.7508 28.675 29.925C28.675 29.925 26.795 31.8 25.295 34.2025C24.18 35.985 23.3175 38.0475 23.3175 39.905C23.3175 42.9375 26.2075 45.625 30 45.625C33.7925 45.625 36.6825 42.9375 36.6825 39.905C36.6825 38.0475 35.82 35.985 34.705 34.2025C33.205 31.8 31.325 29.925 31.325 29.925ZM43.9025 26.255L33.9025 15.005C33.5723 14.633 33.1079 14.4075 32.6114 14.3779C32.1149 14.3484 31.627 14.5173 31.255 14.8475C30.883 15.1777 30.6575 15.6421 30.6279 16.1386C30.5984 16.6351 30.7673 17.123 31.0975 17.495L41.0975 28.745C41.261 28.9292 41.4592 29.0794 41.6807 29.1869C41.9022 29.2945 42.1428 29.3574 42.3886 29.3721C42.6345 29.3867 42.8808 29.3528 43.1135 29.2722C43.3462 29.1916 43.5608 29.066 43.745 28.9025C43.9292 28.739 44.0794 28.5408 44.1869 28.3193C44.2945 28.0978 44.3574 27.8572 44.3721 27.6114C44.3867 27.3655 44.3527 27.1192 44.2722 26.8865C44.1916 26.6538 44.066 26.4392 43.9025 26.255ZM14.375 6.9025C14.58 6.885 14.79 6.875 15 6.875H31.875V5C31.875 4.50272 31.6775 4.02581 31.3258 3.67417C30.9742 3.32254 30.4973 3.125 30 3.125H16.25C15.7527 3.125 15.2758 3.32254 14.9242 3.67417C14.5725 4.02581 14.375 4.50272 14.375 5V6.9025Z" fill="#0EAE60"/>
</svg>
