<svg width="60" height="60" viewBox="0 0 60 60" fill="none" xmlns="http://www.w3.org/2000/svg">
<g clip-path="url(#clip0_20_23)">
<path d="M29.9996 17.6951C29.9996 19.6332 31.5772 21.2108 33.5152 21.2108C35.4533 21.2108 37.0309 19.6332 37.0309 17.6951C37.0309 15.757 35.4533 14.1794 33.5152 14.1794C31.5772 14.1794 29.9996 15.757 29.9996 17.6951ZM12.8297 33.1534C13.8034 31.4627 13.2172 29.3178 11.5439 28.3519C9.82835 27.3669 7.68719 28.0003 6.73901 29.6394C5.77079 31.3166 6.34935 33.4727 8.02821 34.4409C9.70976 35.4149 11.8684 34.8154 12.8297 33.1534ZM52.5421 20.3319C52.3878 20.0646 52.1659 19.8427 51.8987 19.6884C51.6314 19.5341 51.3283 19.4529 51.0197 19.4529H40.2971C39.5111 22.4772 36.7827 24.7265 33.5154 24.7265C32.9811 24.7265 32.4652 24.6546 31.9648 24.5413L26.7879 33.5069L26.8042 33.5167L33.7478 45.535L32.0162 47.9816C31.3771 47.7156 30.6918 47.5786 29.9996 47.5784C27.0871 47.5784 24.726 49.9394 24.726 52.8519C24.726 55.7644 27.0871 58.1254 29.9996 58.1254C32.9121 58.1254 35.2731 55.7644 35.2731 52.8519C35.2731 51.9459 35.0235 51.1065 34.6212 50.3617L36.5908 47.5784H51.0193C51.328 47.5783 51.6312 47.4971 51.8985 47.3428C52.1658 47.1884 52.3878 46.9665 52.5422 46.6992L59.7644 34.3946C59.9187 34.1274 60 33.8242 60 33.5157C60 33.2071 59.9187 32.9039 59.7644 32.6367L52.5421 20.3319ZM13.2949 25.3033C14.9467 26.256 16.1991 27.8125 16.6464 30H24.7526C24.7529 30 24.7529 29.9997 24.7529 29.9997L28.8454 22.9126C27.4075 21.6245 26.4839 19.7737 26.4839 17.6951C26.4839 14.9824 28.0439 12.6512 30.2986 11.4789L25.2605 2.7537C25.1062 2.48636 24.8842 2.26437 24.6169 2.11005C24.3496 1.95572 24.0463 1.87449 23.7377 1.87454H9.15779C8.85223 1.87457 8.55194 1.95421 8.28652 2.10562C8.02111 2.25703 7.79972 2.47498 7.64418 2.73799L0.244961 15.0532C0.0861432 15.3218 0.00160839 15.6278 2.27254e-05 15.9398C-0.00156294 16.2518 0.0798576 16.5587 0.235937 16.8288L5.56629 25.8517C8.0043 24.0056 10.9432 23.9511 13.2949 25.3033Z" fill="#0EAE60"/>
</g>
<defs>
<clipPath id="clip0_20_23">
<rect width="60" height="60" fill="white"/>
</clipPath>
</defs>
</svg>
