<svg width="45" height="45" viewBox="0 0 45 45" fill="none" xmlns="http://www.w3.org/2000/svg">
<g clip-path="url(#clip0_78_6183)">
<path d="M35.9952 22.8431C35.9035 22.7209 35.7776 22.6286 35.6334 22.5779C35.4893 22.5272 35.3333 22.5204 35.1853 22.5583C35.0372 22.5963 34.9038 22.6773 34.8018 22.7911C34.6998 22.9049 34.6339 23.0464 34.6123 23.1977L34.1836 26.203C34.1732 26.2416 34.1597 26.2793 34.1434 26.3158C34.9313 25.2695 35.5672 24.117 36.0323 22.8926L35.9952 22.8431ZM33.418 26.8658C33.3816 26.8658 33.3452 26.8635 33.309 26.8589L28.7201 26.203C28.5172 26.1739 28.3343 26.0655 28.2114 25.9015C28.0886 25.7375 28.0359 25.5315 28.0649 25.3286V25.3284L28.4937 22.3232C28.5151 22.1721 28.4912 22.018 28.4252 21.8805C28.3591 21.7429 28.2538 21.628 28.1224 21.5502C27.9911 21.4724 27.8397 21.4353 27.6873 21.4435C27.5349 21.4517 27.3883 21.5048 27.2661 21.5962L24.8372 23.4171C24.756 23.478 24.6637 23.5223 24.5654 23.5475C24.4671 23.5727 24.3649 23.5782 24.2644 23.5639C24.164 23.5495 24.0674 23.5156 23.9801 23.4639C23.8928 23.4122 23.8165 23.3438 23.7556 23.2626L20.9744 19.5544C20.8515 19.3905 20.7987 19.1844 20.8277 18.9816C20.8567 18.7788 20.965 18.5957 21.129 18.4728L23.5571 16.6519C23.6793 16.5602 23.7717 16.4343 23.8224 16.2901C23.8731 16.146 23.8799 15.99 23.8419 15.842C23.8039 15.6939 23.7229 15.5605 23.6091 15.4585C23.4953 15.3565 23.3538 15.2906 23.2025 15.269L20.1973 14.8395C19.9944 14.8106 19.8113 14.7023 19.6883 14.5385C19.5653 14.3747 19.5124 14.1687 19.5413 13.9658L19.5414 13.9649L20.1973 9.37675C20.2261 9.17391 20.3344 8.99084 20.4982 8.86782C20.6621 8.7448 20.8681 8.6919 21.0709 8.72076L21.0718 8.72085L24.077 9.15039C24.2281 9.17229 24.3824 9.14862 24.52 9.08243C24.6576 9.01624 24.7723 8.91053 24.8496 8.77879C24.9297 8.64802 24.9682 8.49596 24.9599 8.34281C24.9516 8.18966 24.897 8.04264 24.8032 7.92126L22.9839 5.4939C22.923 5.41273 22.8787 5.32038 22.8535 5.2221C22.8283 5.12382 22.8228 5.02154 22.8371 4.92111C22.8515 4.82067 22.8854 4.72405 22.9371 4.63675C22.9888 4.54946 23.0572 4.47319 23.1384 4.41232L23.5764 4.08399C22.8668 4.04966 22.1556 4.06877 21.4488 4.14115C13.8183 5.0124 8.33894 11.9044 9.21019 19.535C9.44455 21.5875 10.1333 23.5621 11.2264 25.3152C12.3195 27.0682 13.7895 28.5557 15.5295 29.6694C16.1625 30.0619 16.6863 30.6077 17.0526 31.2562C17.4188 31.9048 17.6155 32.6352 17.6247 33.38V36.5019C17.6247 37.7819 18.6623 38.8195 19.9423 38.8195H26.1227C27.4028 38.8195 28.4404 37.7819 28.4404 36.5019V33.4441C28.45 32.6818 28.6511 31.9341 29.025 31.2697C29.3989 30.6053 29.9337 30.0455 30.5804 29.6416C31.7983 28.8515 32.8859 27.8767 33.8042 26.7523C33.6878 26.8236 33.5545 26.8628 33.418 26.8658ZM23.8051 36.5019H22.26V34.1842H23.8051V36.5019ZM22.26 32.6391C22.2595 30.5965 20.9999 28.7655 19.0925 28.0347C13.5292 25.8594 10.7828 19.5861 12.9581 14.0229C13.8004 11.8687 15.3112 10.0413 17.2685 8.80892L18.0882 10.1161C13.7546 12.8429 12.4522 18.5664 15.179 22.8999C16.2355 24.5789 17.8027 25.8747 19.6503 26.597C22.1541 27.5547 23.807 29.9584 23.8051 32.6391H22.26ZM19.9423 42.6823V43.4549C19.9423 44.3083 20.634 45 21.4874 45H24.5776C25.431 45 26.1227 44.3083 26.1227 43.4549V42.6823H19.9423Z" fill="#0EAE60"/>
<path d="M15.1129 30.3217C14.6551 30.025 14.2143 29.7028 13.7926 29.3568C12.6263 31.6271 9.84049 32.5221 7.57015 31.356C6.81227 30.9666 6.17677 30.3754 5.73387 29.6475C5.29096 28.9197 5.05789 28.0835 5.06041 27.2315C5.06398 24.8958 6.80348 22.9269 9.12095 22.6356C8.83742 21.7829 8.63261 20.9059 8.50909 20.0159L8.37389 20.6586C8.19833 21.4936 7.37894 22.0283 6.5439 21.8527C6.34391 21.8107 6.15425 21.7294 5.98593 21.6135L4.37902 20.5103L2.97142 21.9148L4.07772 23.5232C4.56192 24.2259 4.38481 25.1881 3.68217 25.6723C3.51369 25.7884 3.32383 25.8698 3.12362 25.912L1.19764 26.3176V28.1532L3.12362 28.5587C3.95865 28.7346 4.49306 29.5541 4.31721 30.3891C4.275 30.5896 4.19332 30.7797 4.07695 30.9483L2.97142 32.5482L4.37902 33.9527L5.98438 32.8464C6.68702 32.3622 7.64924 32.5393 8.13343 33.242C8.24952 33.4104 8.33099 33.6003 8.37312 33.8005L8.77794 35.7296H10.6143L11.0191 33.8036C11.1949 32.9686 12.0143 32.4341 12.8493 32.6098C13.0495 32.652 13.2394 32.7334 13.4079 32.8495L15.0124 33.9527L16.6696 32.2956C16.3917 31.479 15.8423 30.7823 15.1129 30.3217ZM19.9429 39.5924H26.1233V41.1375H19.9429V39.5924ZM42.323 13.3186C41.0559 13.1374 40.1756 11.9632 40.3567 10.6961C40.3998 10.3949 40.5018 10.105 40.6569 9.84314C40.812 9.58128 41.0172 9.35253 41.2607 9.16997L43.0708 7.81182L41.2167 5.33965L39.4066 6.69702C38.3828 7.46533 36.93 7.25809 36.1618 6.23436C35.7933 5.74335 35.6347 5.12624 35.7207 4.51842L36.0406 2.27802L32.982 1.84152L32.6622 4.08193C32.4809 5.34901 31.3069 6.22934 30.0398 6.04818C29.7385 6.0051 29.4486 5.90309 29.1868 5.74799C28.9249 5.59288 28.6962 5.38771 28.5136 5.14419L27.1554 3.33101L24.6833 5.18514L26.0406 6.99523C26.8088 8.01915 26.6014 9.47184 25.5775 10.2401C25.3339 10.4228 25.0567 10.5557 24.7617 10.6313C24.4666 10.7068 24.1596 10.7235 23.8582 10.6803L21.6178 10.3605L21.179 13.4198L23.4194 13.7396C24.6865 13.9209 25.5668 15.095 25.3856 16.3621C25.3425 16.6633 25.2405 16.9532 25.0854 17.2151C24.9303 17.4769 24.7252 17.7057 24.4816 17.8882L22.6723 19.2464L24.5264 21.7186L26.3365 20.3612C27.3605 19.5931 28.8132 19.8004 29.5814 20.8243C29.7641 21.0679 29.897 21.3452 29.9726 21.6402C30.0481 21.9352 30.0648 22.2422 30.0216 22.5436L29.7018 24.7841L32.7673 25.2229L33.0871 22.9825C33.2684 21.7154 34.4425 20.835 35.7095 21.0162C36.0108 21.0593 36.3007 21.1613 36.5625 21.3164C36.8244 21.4715 37.0532 21.6767 37.2357 21.9202L38.5939 23.7295L41.066 21.8754L39.704 20.0622C38.9362 19.0381 39.1439 17.5854 40.168 16.8176C40.659 16.4495 41.2759 16.2911 41.8834 16.3771L44.1238 16.697L44.5603 13.6384L42.323 13.3186ZM32.8723 18.1648C30.3123 18.1648 28.237 16.0895 28.237 13.5295C28.237 10.9694 30.3123 8.89417 32.8723 8.89417C35.4324 8.89417 37.5077 10.9694 37.5077 13.5295C37.5047 16.0883 35.4311 18.1618 32.8723 18.1648ZM37.7116 28.7766H43.1195V30.3217H37.7116V28.7766ZM36.4446 34.005L37.4337 32.8178L42.0693 36.68L41.0803 37.8672L36.4446 34.005ZM33.0763 34.957H34.6214V40.3649H33.0763V34.957ZM0.441406 13.348L6.62145 11.8031L6.99594 13.3013L0.815902 14.8462L0.441406 13.348ZM1.72471 5.4564L2.62223 4.19984L8.02982 8.06213L7.1322 9.31878L1.72471 5.4564ZM8.34405 0.38246L9.84087 -0.000244141L11.421 6.1797L9.92421 6.56241L8.34405 0.38246Z" fill="#0EAE60"/>
</g>
<defs>
<clipPath id="clip0_78_6183">
<rect width="45" height="45" fill="white"/>
</clipPath>
</defs>
</svg>
