<svg width="35" height="35" viewBox="0 0 35 35" fill="none" xmlns="http://www.w3.org/2000/svg">
<g clip-path="url(#clip0_78_6170)">
<path d="M26.0697 30.8985H8.93095C8.36467 30.8985 7.90557 31.3576 7.90557 31.9239V33.9746C7.90557 34.5409 8.36467 35 8.93095 35H26.0697C26.636 35 27.0951 34.5409 27.0951 33.9746V31.9239C27.0951 31.3576 26.636 30.8985 26.0697 30.8985ZM21.5172 25.9176H20.7935C20.5642 25.3039 20.4052 24.3035 20.3908 23.0076C19.4847 23.2448 18.5174 23.365 17.4925 23.365C16.5983 23.365 15.6206 23.2705 14.6221 23.0121C14.619 23.6179 14.584 24.2866 14.4826 24.9048C14.4252 25.2544 14.3377 25.6171 14.2226 25.9175H13.4834C12.1641 25.9175 11.0908 26.9908 11.0908 28.3101V28.8477H23.9097V28.3101C23.9097 26.9909 22.8364 25.9176 21.5172 25.9176ZM33.2848 4.1198H29.6392C29.595 4.61095 29.5564 5.1149 29.5284 5.48308C29.5113 5.70606 29.4937 5.93589 29.4753 6.17056H32.2215C31.9919 8.98161 30.7182 11.4247 28.4252 13.4593C28.204 14.3345 27.9359 15.199 27.6063 16.0295C27.4798 16.3483 27.3432 16.6629 27.1968 16.973L28.427 16.0824C32.3307 13.2563 34.3102 9.60505 34.3102 5.23008V5.14511C34.3102 4.57883 33.8511 4.1198 33.2848 4.1198ZM6.49915 13.3984C4.2522 11.375 3.00403 8.95229 2.77845 6.17049H5.44663C5.42339 5.8732 5.40165 5.58418 5.38067 5.30487C5.35153 4.90966 5.32034 4.51461 5.28708 4.11973H1.71581C1.14953 4.11973 0.69043 4.57883 0.69043 5.14511V5.23753C0.69043 9.6071 2.66634 13.2558 6.56334 16.0824L7.74055 16.9362C7.58428 16.605 7.43894 16.2688 7.30476 15.928C6.98183 15.1086 6.7179 14.2583 6.49915 13.3984ZM6.13391 2.05078H7.09189C7.23941 2.67373 7.34113 4.02731 7.42562 5.1512C7.64075 8.01393 7.93537 11.9346 9.21266 15.1763C10.8174 19.2491 13.6031 21.3142 17.4924 21.3142C21.3483 21.3142 24.1098 19.2817 25.7 15.2732C26.968 12.0772 27.2659 8.17566 27.4834 5.32681C27.5749 4.1282 27.6856 2.67975 27.8522 2.05064H28.8666C29.4329 2.05064 29.892 1.59155 29.892 1.02526C29.892 0.458976 29.4329 -0.00012207 28.8666 -0.00012207H6.13391C5.56763 -0.00012207 5.10853 0.458976 5.10853 1.02526C5.10853 1.59168 5.56763 2.05078 6.13391 2.05078ZM15.8433 7.28994L17.287 6.41495C17.3745 6.36026 17.4839 6.33838 17.6043 6.33838C17.9542 6.33838 18.3589 6.54619 18.3589 6.87432V13.8306C18.3589 14.1806 17.9324 14.3556 17.5058 14.3556C17.0793 14.3556 16.6526 14.1806 16.6526 13.8306V8.26337L16.3354 8.46024C16.237 8.52587 16.1386 8.54774 16.062 8.54774C15.7448 8.54774 15.526 8.20868 15.526 7.86962C15.526 7.63994 15.6245 7.42119 15.8433 7.28994Z" fill="#0EAE60"/>
</g>
<defs>
<clipPath id="clip0_78_6170">
<rect width="35" height="35" fill="white"/>
</clipPath>
</defs>
</svg>
