<svg width="131" height="35" viewBox="0 0 131 35" fill="none" xmlns="http://www.w3.org/2000/svg">
<path d="M6.06748 26.782C6.06748 26.782 5.6225 26.9718 5.47779 27.0119C5.09084 27.1249 4.68546 27.1589 4.28532 27.112C3.88519 27.0651 3.49833 26.9382 3.14735 26.7388C2.79637 26.5393 2.48831 26.2713 2.24116 25.9504C1.99401 25.6295 1.81274 25.2621 1.70793 24.8697C1.60312 24.4772 1.57688 24.0677 1.63073 23.6649C1.68459 23.2622 1.81746 22.8743 2.02159 22.5239C2.22572 22.1736 2.49701 21.8678 2.81962 21.6244C3.14222 21.381 3.50966 21.2049 3.90048 21.1064C4.04881 21.0663 4.52272 20.9933 4.52272 20.9933H16.0993L6.06748 26.782Z" fill="#009E3D"/>
<path d="M12.7433 30.8515C12.7433 30.8515 12.4503 31.2421 12.3454 31.3479C11.7722 31.921 10.9979 32.2425 10.191 32.2425C9.38412 32.2425 8.60985 31.921 8.0367 31.3479C7.75482 31.0642 7.53118 30.7271 7.37859 30.356C7.226 29.9849 7.14746 29.5871 7.14746 29.1854C7.14746 28.7836 7.226 28.3858 7.37859 28.0148C7.53118 27.6437 7.75482 27.3066 8.0367 27.0228C8.14885 26.9133 8.52147 26.6141 8.52147 26.6141L18.5497 20.8035L12.7433 30.8515Z" fill="#009E3D"/>
<path d="M20.5898 31.1803C20.5898 31.1803 20.532 31.6657 20.4922 31.808C20.284 32.595 19.7744 33.2663 19.0756 33.6743C18.3768 34.0822 17.546 34.1934 16.7659 33.9834C15.9859 33.7733 15.3205 33.2592 14.9162 32.5542C14.5118 31.8492 14.4016 31.011 14.6098 30.224C14.6496 30.078 14.8233 29.6254 14.8233 29.6254L20.6224 19.5591L20.5898 31.1803Z" fill="#009E3D"/>
<path d="M4.42751 14.1025C4.42751 14.1025 3.97892 13.9127 3.83421 13.8689C3.05752 13.6579 2.22955 13.7668 1.53244 14.1717C0.835339 14.5766 0.326202 15.2442 0.117038 16.0278C-0.0921268 16.8114 0.0158148 17.6468 0.417117 18.3501C0.818418 19.0534 1.48021 19.567 2.2569 19.7781C2.40522 19.8182 2.88276 19.8912 2.88276 19.8912H14.4702L4.42751 14.1025Z" fill="#009E3D"/>
<path d="M8.35638 7.95264C8.35638 7.95264 8.06335 7.5621 7.95843 7.4599C7.38621 6.88509 6.6116 6.56238 5.8041 6.56238C4.99661 6.56238 4.22199 6.88509 3.64977 7.4599C3.36713 7.74286 3.1428 8.07947 2.98971 8.45031C2.83663 8.82116 2.75781 9.2189 2.75781 9.62062C2.75781 10.0223 2.83663 10.4201 2.98971 10.7909C3.1428 11.1618 3.36713 11.4984 3.64977 11.7813C3.7583 11.8908 4.13454 12.1938 4.13454 12.1938L14.1591 18.008L8.35638 7.95264Z" fill="#009E3D"/>
<path d="M14.3662 4.17127C14.3662 4.17127 14.3083 3.68584 14.2685 3.54349C14.0603 2.7565 13.5508 2.08519 12.852 1.67724C12.1532 1.26929 11.3224 1.15811 10.5423 1.36817C9.76227 1.57823 9.09688 2.09231 8.69252 2.79733C8.28817 3.50235 8.17797 4.34055 8.38618 5.12753C8.42235 5.27353 8.59962 5.72246 8.59962 5.72246L14.3879 15.7924L14.3662 4.17127Z" fill="#009E3D"/>
<path d="M21.3444 4.44493C21.3444 4.44493 21.5362 3.99234 21.5723 3.85C21.7805 3.06253 21.6702 2.22386 21.2655 1.51851C20.8608 0.813146 20.1949 0.29887 19.4144 0.0888134C18.6339 -0.121244 17.8026 -0.00987532 17.1035 0.398419C16.4043 0.806712 15.8946 1.47849 15.6864 2.26596C15.6466 2.4156 15.5742 2.89009 15.5742 2.89009V14.5186L21.3444 4.44493Z" fill="#009E3D"/>
<path d="M27.3121 8.29933C27.3121 8.29933 27.7028 8.00369 27.8077 7.89784C28.0904 7.61457 28.3149 7.27766 28.468 6.90651C28.6211 6.53536 28.7 6.13732 28.7 5.7353C28.7 5.33328 28.6211 4.93523 28.468 4.56408C28.3149 4.19294 28.0904 3.85602 27.8077 3.57275C27.2352 3.00413 26.464 2.68542 25.6606 2.68542C24.8572 2.68542 24.086 3.00413 23.5135 3.57275C23.405 3.68225 23.1047 4.05818 23.1047 4.05818L17.3164 14.1245L27.3121 8.29933Z" fill="#009E3D"/>
<path d="M31.1733 14.1464C31.1733 14.1464 31.6544 14.0843 31.7991 14.0478C32.1837 13.9434 32.5441 13.7635 32.8598 13.5184C33.1755 13.2734 33.4402 12.9681 33.6389 12.6198C33.8376 12.2716 33.9664 11.8873 34.0179 11.4888C34.0694 11.0904 34.0426 10.6856 33.939 10.2976C33.8354 9.90961 33.6571 9.54599 33.4143 9.22751C33.1714 8.90903 32.8688 8.64193 32.5236 8.44146C32.1784 8.24099 31.7975 8.11107 31.4026 8.05912C31.0076 8.00718 30.6064 8.03422 30.2218 8.13871C30.0735 8.17886 29.6285 8.3577 29.6285 8.3577L19.5967 14.1646L31.1733 14.1464Z" fill="#009E3D"/>
<path d="M36.3243 19.4711V22.0078C34.9826 21.3284 33.5059 20.964 32.0048 20.942C30.6482 20.942 29.6026 21.2851 28.8683 21.9786C28.5114 22.315 28.2299 22.7245 28.0427 23.1796C27.8555 23.6347 27.767 24.1249 27.783 24.6174C27.767 25.0874 27.8563 25.5549 28.0442 25.9853C28.2322 26.4156 28.5138 26.7976 28.8683 27.103C29.6853 27.7665 30.7148 28.1053 31.7624 28.0556C32.4206 28.0502 33.0707 27.9086 33.6725 27.6395V26.2781H32.012V24.1539H36.5703V28.8987C35.9734 29.4361 35.2576 29.8215 34.4829 30.0229C33.5839 30.309 32.6472 30.4566 31.7045 30.4609C29.6883 30.4609 28.0338 29.9012 26.7411 28.7819C26.1186 28.2646 25.6207 27.6114 25.2848 26.8717C24.9489 26.132 24.7838 25.325 24.802 24.5116C24.7788 23.6905 24.9414 22.875 25.2774 22.1268C25.6134 21.3786 26.1139 20.7176 26.7411 20.1938C28.0314 19.0794 29.7064 18.5222 31.766 18.5222C33.336 18.4977 34.8921 18.8217 36.3243 19.4711Z" fill="#171717"/>
<path d="M39.8555 21.402H43.8132C44.5785 21.3643 45.3288 21.6258 45.9079 22.132C46.1647 22.3596 46.3697 22.6405 46.5089 22.9555C46.6482 23.2705 46.7183 23.6121 46.7146 23.9569C46.7146 24.9302 46.2045 25.6602 45.1843 26.1468C45.6293 26.3476 46.0526 26.8768 46.4505 27.7856C46.8485 28.6944 47.2392 29.5193 47.6154 30.3077H45.2205C45.0722 30.0157 44.8189 29.4573 44.4535 28.6324C44.2373 28.0524 43.924 27.5142 43.5274 27.041C43.3114 26.8181 43.0187 26.6874 42.7098 26.6761H42.0803V30.2931H39.8699L39.8555 21.402ZM42.0659 23.0335V25.0592H43.2272C43.5432 25.0773 43.8556 24.983 44.1099 24.7927C44.2177 24.7012 44.3029 24.5856 44.3588 24.4551C44.4147 24.3246 44.4397 24.1828 44.4318 24.0409C44.4318 23.3693 44.0158 23.0335 43.1765 23.0335H42.0659Z" fill="#171717"/>
<path d="M57.7002 28.6764V30.2933H51.1631V21.4022H57.6134V23.0337H53.3735V24.8988H57.4181V26.5303H53.3735V28.6764H57.7002Z" fill="#171717"/>
<path d="M69.0991 28.6763V30.2932H62.5547V21.4021H69.005V23.0336H64.7579V24.8987H68.8097V26.5302H64.7579V28.6763H69.0991Z" fill="#171717"/>
<path d="M82.8438 21.4022V30.2933H80.9952L76.0932 24.6032V30.2933H73.8828V21.4022H75.9123L80.637 26.8478V21.4022H82.8438Z" fill="#171717"/>
<path d="M97.5251 17.4462V19.574H93.3358V30.2937H91.773C91.4238 30.2937 91.0888 30.1537 90.8419 29.9046C90.5949 29.6554 90.4562 29.3175 90.4562 28.9651V19.574H86.2705V17.4462H97.5251Z" fill="#171717"/>
<path d="M103.632 21.4022V30.2933H101.193V21.4022H103.632Z" fill="#171717"/>
<path d="M114.249 24.7054L117.1 21.4205H119.021V30.2933H116.81V24.7491L114.401 27.5413H114.086L111.684 24.7491V30.2933H109.474V21.4022H111.424L114.249 24.7054Z" fill="#171717"/>
<path d="M130.998 28.6763V30.2932H124.446V21.4021H130.9V23.0336H126.668V24.8987H130.716V26.5302H126.668V28.6763H130.998Z" fill="#171717"/>
</svg>
