<svg width="190" height="50" viewBox="0 0 190 50" fill="none" xmlns="http://www.w3.org/2000/svg">
<path d="M8.79964 38.578C8.79964 38.578 8.15426 38.8514 7.94438 38.9092C7.38315 39.072 6.79519 39.121 6.21484 39.0534C5.63449 38.9859 5.0734 38.8031 4.56434 38.5158C4.05529 38.2285 3.60848 37.8425 3.25002 37.3802C2.89157 36.9179 2.62865 36.3887 2.47664 35.8234C2.32462 35.2582 2.28656 34.6683 2.36467 34.0881C2.44278 33.508 2.6355 32.9492 2.93156 32.4445C3.22763 31.9399 3.62111 31.4994 4.08901 31.1488C4.5569 30.7982 5.08984 30.5446 5.65667 30.4027C5.8718 30.3449 6.55916 30.2397 6.55916 30.2397H23.3496L8.79964 38.578Z" fill="#009E3D"/>
<path d="M18.4814 44.4395C18.4814 44.4395 18.0563 45.0021 17.9042 45.1545C17.0729 45.98 15.9499 46.4431 14.7796 46.4431C13.6092 46.4431 12.4863 45.98 11.655 45.1545C11.2461 44.7458 10.9218 44.2602 10.7005 43.7257C10.4792 43.1912 10.3652 42.6182 10.3652 42.0395C10.3652 41.4608 10.4792 40.8878 10.7005 40.3533C10.9218 39.8188 11.2461 39.3332 11.655 38.9245C11.8176 38.7668 12.3581 38.3356 12.3581 38.3356L26.9028 29.9658L18.4814 44.4395Z" fill="#009E3D"/>
<path d="M29.8617 44.9135C29.8617 44.9135 29.7778 45.6127 29.7201 45.8178C29.4181 46.9514 28.6791 47.9183 27.6655 48.506C26.652 49.0936 25.447 49.2538 24.3156 48.9512C23.1843 48.6486 22.2192 47.9081 21.6327 46.8926C21.0463 45.877 20.8864 44.6696 21.1884 43.536C21.2461 43.3257 21.498 42.6738 21.498 42.6738L29.909 28.1738L29.8617 44.9135Z" fill="#009E3D"/>
<path d="M6.42074 20.3138C6.42074 20.3138 5.77011 20.0404 5.56023 19.9773C4.43373 19.6733 3.23286 19.8302 2.22179 20.4134C1.21073 20.9966 0.472282 21.9584 0.168914 23.0871C-0.134454 24.2158 0.0221026 25.4191 0.604143 26.4321C1.18618 27.4452 2.14603 28.1851 3.27253 28.4891C3.48766 28.5469 4.18026 28.6521 4.18026 28.6521H20.9865L6.42074 20.3138Z" fill="#009E3D"/>
<path d="M12.1191 11.4552C12.1191 11.4552 11.6941 10.8927 11.5419 10.7455C10.712 9.91749 9.58848 9.45264 8.41731 9.45264C7.24613 9.45264 6.12264 9.91749 5.2927 10.7455C4.88277 11.1531 4.5574 11.6379 4.33537 12.1721C4.11334 12.7063 3.99902 13.2792 3.99902 13.8579C3.99902 14.4365 4.11334 15.0095 4.33537 15.5436C4.5574 16.0778 4.88277 16.5627 5.2927 16.9703C5.45011 17.128 5.9958 17.5644 5.9958 17.5644L20.5353 25.9394L12.1191 11.4552Z" fill="#009E3D"/>
<path d="M20.8354 6.00815C20.8354 6.00815 20.7514 5.30891 20.6937 5.10387C20.3917 3.97026 19.6527 3.00328 18.6392 2.41565C17.6256 1.82802 16.4206 1.66787 15.2893 1.97045C14.1579 2.27302 13.1928 3.01353 12.6064 4.02907C12.0199 5.04461 11.8601 6.25199 12.162 7.3856C12.2145 7.59589 12.4716 8.24256 12.4716 8.24256L20.8669 22.7478L20.8354 6.00815Z" fill="#009E3D"/>
<path d="M30.9569 6.40233C30.9569 6.40233 31.235 5.7504 31.2875 5.54536C31.5894 4.41106 31.4293 3.20301 30.8424 2.18698C30.2554 1.17095 29.2897 0.430161 28.1576 0.127586C27.0255 -0.17499 25.8199 -0.0145697 24.8059 0.573555C23.7918 1.16168 23.0525 2.12933 22.7505 3.26364C22.6928 3.4792 22.5879 4.16266 22.5879 4.16266V20.9128L30.9569 6.40233Z" fill="#009E3D"/>
<path d="M39.6118 11.9547C39.6118 11.9547 40.1785 11.5288 40.3306 11.3764C40.7407 10.9683 41.0662 10.483 41.2883 9.9484C41.5104 9.41378 41.6248 8.84042 41.6248 8.26133C41.6248 7.68225 41.5104 7.10888 41.2883 6.57427C41.0662 6.03965 40.7407 5.55435 40.3306 5.14631C39.5003 4.32724 38.3817 3.86816 37.2165 3.86816C36.0513 3.86816 34.9328 4.32724 34.1024 5.14631C33.945 5.30403 33.5095 5.84555 33.5095 5.84555L25.1143 20.3455L39.6118 11.9547Z" fill="#009E3D"/>
<path d="M45.2124 20.3771C45.2124 20.3771 45.9102 20.2878 46.1201 20.2352C46.6779 20.0847 47.2006 19.8255 47.6585 19.4726C48.1163 19.1197 48.5003 18.6799 48.7885 18.1782C49.0767 17.6766 49.2634 17.123 49.3381 16.5491C49.4128 15.9751 49.3739 15.3921 49.2237 14.8332C49.0735 14.2743 48.8149 13.7505 48.4627 13.2918C48.1104 12.833 47.6715 12.4483 47.1708 12.1595C46.6702 11.8707 46.1177 11.6836 45.5449 11.6088C44.9721 11.5339 44.3902 11.5729 43.8324 11.7234C43.6173 11.7812 42.9719 12.0388 42.9719 12.0388L28.4219 20.4034L45.2124 20.3771Z" fill="#009E3D"/>
<path d="M52.6827 28.047V31.7009C50.7367 30.7223 48.5949 30.1975 46.4178 30.1658C44.4501 30.1658 42.9337 30.6599 41.8686 31.6589C41.351 32.1434 40.9427 32.7332 40.6712 33.3888C40.3997 34.0444 40.2713 34.7506 40.2945 35.46C40.2714 36.1369 40.4009 36.8104 40.6735 37.4303C40.946 38.0501 41.3545 38.6004 41.8686 39.0403C43.0536 39.996 44.5467 40.4841 46.0662 40.4125C47.0209 40.4047 47.9638 40.2007 48.8366 39.8131V37.8521H46.4282V34.7923H53.0395V41.6269C52.1737 42.401 51.1356 42.9562 50.012 43.2462C48.708 43.6583 47.3495 43.871 45.9822 43.8771C43.0579 43.8771 40.6583 43.071 38.7833 41.4587C37.8806 40.7135 37.1584 39.7726 36.6712 38.7071C36.1841 37.6416 35.9446 36.4792 35.9709 35.3075C35.9373 34.1249 36.1731 32.9501 36.6604 31.8724C37.1477 30.7947 37.8738 29.8424 38.7833 29.088C40.6548 27.4827 43.0841 26.6801 46.0714 26.6801C48.3485 26.6449 50.6055 27.1115 52.6827 28.047Z" fill="white"/>
<path d="M57.8047 30.8284H63.5449C64.6549 30.7741 65.743 31.1507 66.583 31.8799C66.9554 32.2077 67.2528 32.6124 67.4548 33.0661C67.6567 33.5198 67.7585 34.0118 67.753 34.5086C67.753 35.9106 67.0132 36.962 65.5336 37.663C66.1789 37.9522 66.7928 38.7145 67.37 40.0236C67.9472 41.3327 68.5139 42.5209 69.0596 43.6565H65.586C65.3709 43.2359 65.0036 42.4315 64.4737 41.2433C64.16 40.4079 63.7056 39.6326 63.1304 38.9511C62.8171 38.6299 62.3925 38.4417 61.9446 38.4254H61.0316V43.6355H57.8257L57.8047 30.8284ZM61.0106 33.1785V36.0963H62.6949C63.1533 36.1224 63.6064 35.9866 63.9752 35.7125C64.1316 35.5807 64.2552 35.4142 64.3362 35.2262C64.4173 35.0382 64.4535 34.834 64.4422 34.6295C64.4422 33.6621 63.8388 33.1785 62.6215 33.1785H61.0106Z" fill="white"/>
<path d="M83.6874 41.3067V43.6357H74.2061V30.8286H83.5615V33.1787H77.412V35.8652H83.2782V38.2153H77.412V41.3067H83.6874Z" fill="white"/>
<path d="M100.219 41.3067V43.6357H90.7275V30.8286H100.083V33.1787H93.923V35.8652H99.7996V38.2153H93.923V41.3067H100.219Z" fill="white"/>
<path d="M120.155 30.8286V43.6357H117.474L110.364 35.4394V43.6357H107.158V30.8286H110.102L116.954 38.6727V30.8286H120.155Z" fill="white"/>
<path d="M141.448 25.1304V28.1955H135.371V43.6365H133.105C132.598 43.6365 132.112 43.4349 131.754 43.076C131.396 42.7171 131.195 42.2304 131.195 41.7228V28.1955H125.124V25.1304H141.448Z" fill="white"/>
<path d="M150.304 30.8286V43.6357H146.768V30.8286H150.304Z" fill="white"/>
<path d="M165.704 35.5866L169.839 30.8549H172.625V43.6357H169.419V35.6497L165.925 39.6716H165.468L161.984 35.6497V43.6357H158.778V30.8286H161.606L165.704 35.5866Z" fill="white"/>
<path d="M189.996 41.3067V43.6357H180.494V30.8286H189.855V33.1787H183.716V35.8652H189.587V38.2153H183.716V41.3067H189.996Z" fill="white"/>
</svg>
